<?xml version="1.0" encoding="utf-8"?>
<!-- Generator: Adobe Illustrator 23.0.6, SVG Export Plug-In . SVG Version: 6.00 Build 0)  -->
<svg version="1.1" id="Ebene_1" xmlns="http://www.w3.org/2000/svg" xmlns:xlink="http://www.w3.org/1999/xlink" x="0px" y="0px"
	 viewBox="0 0 299.8 60" style="enable-background:new 0 0 299.8 60;" xml:space="preserve">
<style type="text/css">
	.st0{clip-path:url(#SVGID_2_);fill:#0F838B;}
	.st1{fill:#1D1D1B;}
	.st2{clip-path:url(#SVGID_4_);fill:#1D1D1B;}
	.st3{clip-path:url(#SVGID_6_);fill:#1D1D1B;}
	.st4{clip-path:url(#SVGID_8_);fill:#1D1D1B;}
	.st5{clip-path:url(#SVGID_10_);fill:#1D1D1B;}
	.st6{clip-path:url(#SVGID_12_);fill:#1D1D1B;}
	.st7{clip-path:url(#SVGID_14_);fill:#1D1D1B;}
	.st8{clip-path:url(#SVGID_16_);fill:#1D1D1B;}
	.st9{clip-path:url(#SVGID_18_);fill:#1D1D1B;}
	.st10{fill:#A5B9C4;}
	.st11{clip-path:url(#SVGID_20_);fill:#A5B9C4;}
	.st12{clip-path:url(#SVGID_22_);fill:#A5B9C4;}
	.st13{clip-path:url(#SVGID_24_);fill:#A5B9C4;}
	.st14{clip-path:url(#SVGID_26_);fill:#A5B9C4;}
</style>
<g>
	<defs>
		<rect id="SVGID_1_" x="0.6" y="-1.4" width="299.2" height="62"/>
	</defs>
	<clipPath id="SVGID_2_">
		<use xlink:href="#SVGID_1_"  style="overflow:visible;"/>
	</clipPath>
	<path class="st0" d="M254.4,12.7c-0.8-0.1-1-0.7-0.9-1.4c0.8-1.8,3.1-0.2,1.8,1.2C255.1,12.6,254.9,12.8,254.4,12.7 M219.5,19.2
		c0.1-3,1.8-5.8,3.2-8.3c1-1.6,2.2-3.1,3.3-4.5c-0.8,0.1-1.4,0.3-2.3,0.4c-0.4,0.1-0.4-0.4-0.2-0.6c1.1-0.3,2.2-0.6,3.3-0.8
		c1.9-2.2,3.1-3.4,4.6-4.9c0.6-0.6,1.8-1.7,2.9-1.9c0.8,0,2.3,0.3,1.7,1.3c-1.1,1.3-2.1,2.5-3.7,4.3c1.4-0.2,2.8-0.4,4.2-0.7
		c0.6,0.1,0.8,0.5,0.2,0.8c-0.4,0.1-0.4,0.1-5.2,0.9c-0.1,0.1-0.1,0.1-0.2,0.2c-1,1.3-1.9,2.6-2.8,4c-2,3.2-3.7,6.2-4.4,9.9
		c-0.1,0.3-0.1,0.9,0.1,1.2c0.3,0,0.7-0.2,1-0.4c3.7-1.9,6.8-4.5,10.4-6.8c1.7-4,3.5-8,5.7-11.7c0.5-0.5,0.9-0.2,0.7,0.1
		c-1.2,2.1-4.2,8-5.2,10.7c2.2-1.5,5.6-3.6,8-4.6c0.9-0.4,2.2-0.1,2.7,0.9c0.2,0.4,0.2,1.4,0,1.8c-1,2.5-2.1,4.5-3.1,6.9
		c-0.4,1-1.2,2.4-1,3.3c0.1,0.7,4.4-2.5,5.1-3c0.2-0.2,1.9-1.6,2.2-1.8c0.6-0.4,1.1-0.8,1.7-0.7c1.1,0.1,2.3,0.8,1.6,1.5
		c-3,3.2-6.2,6.5-10.1,7.5c-1.7,0.5-4.2-0.8-4.4-3.1c-0.1-1.9,0.5-3.6,1.2-5.3c0.3-0.7,1.2-2.6,1.6-3.4c-2.6,1.7-5.1,3.5-7.6,5.5
		c-0.8,2.3-1.2,3.4-1.9,5.8c-0.2,0.8-1.2,0.6-1.1-0.1c0.3-1.2,1.2-3.5,1.6-4.7c-2.2,1.6-4.4,3.6-6.9,4.7c-1.3,0.6-2.8,0.8-3.9,0.5
		C220.2,23.4,219.5,21.8,219.5,19.2"/>
</g>
<polygon class="st1" points="115.2,31.7 122.9,31.7 122.9,33 119.8,33 119.8,42.7 118.3,42.7 118.3,33 115.2,33 "/>
<polygon class="st1" points="124.5,31.7 130.4,31.7 130.4,32.9 126,32.9 126,36.4 130.1,36.4 130.1,37.6 126,37.6 126,41.4 
	130.5,41.4 130.5,42.7 124.5,42.7 "/>
<g>
	<defs>
		<rect id="SVGID_3_" x="0.6" y="-1.4" width="299.2" height="62"/>
	</defs>
	<clipPath id="SVGID_4_">
		<use xlink:href="#SVGID_3_"  style="overflow:visible;"/>
	</clipPath>
	<path class="st2" d="M140.6,32.1l-0.1,1.3c-0.4-0.2-0.8-0.3-1.2-0.4c-0.4-0.1-0.8-0.1-1.2-0.1c-1.3,0-2.4,0.4-3.1,1.1
		s-1.2,1.8-1.2,3.1c0,1.3,0.4,2.4,1.2,3.1c0.8,0.8,1.8,1.1,3.1,1.1c0.4,0,0.8,0,1.2-0.1c0.4-0.1,0.8-0.2,1.2-0.4l0,1.4
		c-0.4,0.1-0.8,0.2-1.2,0.3c-0.4,0.1-0.9,0.1-1.4,0.1c-1.8,0-3.2-0.5-4.2-1.5c-1-1-1.6-2.3-1.6-4c0-1.7,0.5-3,1.6-4
		c1.1-1,2.5-1.5,4.2-1.5c0.5,0,0.9,0,1.4,0.1C139.8,31.9,140.2,32,140.6,32.1"/>
</g>
<polygon class="st1" points="142.3,31.7 143.8,31.7 143.8,36.4 148.8,36.4 148.8,31.7 150.3,31.7 150.3,42.7 148.8,42.7 148.8,37.6 
	143.8,37.6 143.8,42.7 142.3,42.7 "/>
<g>
	<defs>
		<rect id="SVGID_5_" x="0.6" y="-1.4" width="299.2" height="62"/>
	</defs>
	<clipPath id="SVGID_6_">
		<use xlink:href="#SVGID_5_"  style="overflow:visible;"/>
	</clipPath>
	<path class="st3" d="M153.1,31.7h1.9l4.8,8.5c0.1,0.1,0.1,0.3,0.2,0.6c0.1,0.3,0.2,0.6,0.3,0.9c-0.1-0.4-0.1-0.8-0.2-1.1
		c0-0.3-0.1-0.6-0.1-0.8v-8.1h1.4v10.9h-1.9l-4.8-8.6c-0.1-0.1-0.1-0.3-0.2-0.5c-0.1-0.2-0.2-0.6-0.3-1c0.1,0.6,0.1,1,0.2,1.4
		c0,0.3,0.1,0.5,0.1,0.7v8h-1.4V31.7z"/>
</g>
<rect x="164.2" y="31.7" class="st1" width="1.5" height="10.9"/>
<g>
	<defs>
		<rect id="SVGID_7_" x="0.6" y="-1.4" width="299.2" height="62"/>
	</defs>
	<clipPath id="SVGID_8_">
		<use xlink:href="#SVGID_7_"  style="overflow:visible;"/>
	</clipPath>
	<path class="st4" d="M174,32l-0.2,1.3c-0.3-0.2-0.7-0.3-1-0.4c-0.4-0.1-0.7-0.1-1.1-0.1c-0.7,0-1.2,0.1-1.6,0.4
		c-0.4,0.2-0.6,0.6-0.6,1c0,0.3,0.1,0.6,0.4,0.9c0.3,0.3,0.8,0.6,1.6,1.1c1.1,0.6,1.8,1.1,2.2,1.6c0.4,0.5,0.6,1,0.6,1.7
		c0,0.9-0.3,1.7-1,2.3c-0.7,0.6-1.6,0.9-2.6,0.9c-0.5,0-1,0-1.5-0.1c-0.5-0.1-0.9-0.2-1.3-0.4l0.2-1.5c0.5,0.2,0.9,0.4,1.3,0.5
		c0.4,0.1,0.8,0.2,1.2,0.2c0.6,0,1.2-0.1,1.5-0.4c0.4-0.3,0.6-0.7,0.6-1.1c0-0.7-0.8-1.5-2.3-2.4c-0.3-0.1-0.5-0.3-0.6-0.3
		c-0.6-0.3-1-0.8-1.4-1.2c-0.3-0.5-0.5-1-0.5-1.5c0-0.8,0.3-1.5,1-2c0.6-0.5,1.5-0.8,2.6-0.8c0.4,0,0.8,0,1.2,0.1
		C173.3,31.8,173.6,31.9,174,32"/>
	<path class="st4" d="M184.4,32.1l-0.1,1.3c-0.4-0.2-0.8-0.3-1.2-0.4c-0.4-0.1-0.8-0.1-1.2-0.1c-1.3,0-2.4,0.4-3.1,1.1
		c-0.8,0.8-1.2,1.8-1.2,3.1c0,1.3,0.4,2.4,1.2,3.1c0.8,0.8,1.8,1.1,3.1,1.1c0.4,0,0.8,0,1.2-0.1c0.4-0.1,0.8-0.2,1.2-0.4l0,1.4
		c-0.4,0.1-0.8,0.2-1.2,0.3c-0.4,0.1-0.9,0.1-1.4,0.1c-1.8,0-3.2-0.5-4.2-1.5c-1-1-1.5-2.3-1.5-4c0-1.7,0.5-3,1.6-4
		c1.1-1,2.5-1.5,4.2-1.5c0.5,0,0.9,0,1.4,0.1C183.6,31.9,184.1,32,184.4,32.1"/>
</g>
<polygon class="st1" points="186.2,31.7 187.7,31.7 187.7,36.4 192.7,36.4 192.7,31.7 194.2,31.7 194.2,42.7 192.7,42.7 192.7,37.6 
	187.7,37.6 187.7,42.7 186.2,42.7 "/>
<polygon class="st1" points="196.9,31.7 202.8,31.7 202.8,32.9 198.5,32.9 198.5,36.4 202.6,36.4 202.6,37.6 198.5,37.6 198.5,41.4 
	203,41.4 203,42.7 196.9,42.7 "/>
<g>
	<defs>
		<rect id="SVGID_9_" x="0.6" y="-1.4" width="299.2" height="62"/>
	</defs>
	<clipPath id="SVGID_10_">
		<use xlink:href="#SVGID_9_"  style="overflow:visible;"/>
	</clipPath>
	<path class="st5" d="M209.9,31.7h1.5v6.4c0,1.2,0.2,2,0.6,2.6c0.4,0.6,1.1,0.8,1.9,0.8c0.9,0,1.5-0.3,2-0.9s0.7-1.5,0.7-2.7v-6.3
		h1.4v6.3c0,1.6-0.3,2.8-1,3.6c-0.7,0.8-1.7,1.2-3.1,1.2c-1.3,0-2.3-0.4-3-1.2c-0.7-0.8-1-1.9-1-3.5V31.7z"/>
	<path class="st5" d="M220.9,31.7h1.9l4.8,8.5c0.1,0.1,0.1,0.3,0.2,0.6c0.1,0.3,0.2,0.6,0.3,0.9c-0.1-0.4-0.1-0.8-0.2-1.1
		c0-0.3-0.1-0.6-0.1-0.8v-8.1h1.4v10.9h-1.9l-4.8-8.6c-0.1-0.1-0.1-0.3-0.2-0.5c-0.1-0.2-0.2-0.6-0.3-1c0.1,0.6,0.1,1,0.2,1.4
		c0,0.3,0,0.5,0,0.7v8h-1.4V31.7z"/>
</g>
<rect x="232" y="31.7" class="st1" width="1.5" height="10.9"/>
<polygon class="st1" points="235.2,31.7 236.8,31.7 240,41.2 243.3,31.7 244.9,31.7 240.8,42.7 239.1,42.7 "/>
<polygon class="st1" points="246.4,31.7 252.4,31.7 252.4,32.9 248,32.9 248,36.4 252.1,36.4 252.1,37.6 248,37.6 248,41.4 
	252.5,41.4 252.5,42.7 246.4,42.7 "/>
<g>
	<defs>
		<rect id="SVGID_11_" x="0.6" y="-1.4" width="299.2" height="62"/>
	</defs>
	<clipPath id="SVGID_12_">
		<use xlink:href="#SVGID_11_"  style="overflow:visible;"/>
	</clipPath>
	<path class="st6" d="M256.2,32.9v3.7h1.2c0.8,0,1.4-0.2,1.8-0.5c0.4-0.3,0.7-0.8,0.7-1.4c0-0.6-0.2-1.1-0.6-1.4
		c-0.4-0.3-1-0.4-1.9-0.4H256.2z M254.6,31.7h2.9c1.2,0,2.2,0.2,2.8,0.7c0.6,0.5,0.9,1.2,0.9,2.1c0,0.7-0.2,1.3-0.6,1.7
		c-0.4,0.5-1,0.8-1.8,0.9c0.3,0.1,0.6,0.2,0.8,0.4c0.2,0.2,0.4,0.6,0.6,1.1l1.7,3.9h-1.6l-1.4-3.6c-0.2-0.5-0.4-0.8-0.7-1
		c-0.3-0.2-0.7-0.3-1.2-0.3h-0.9v4.8h-1.5V31.7z"/>
	<path class="st6" d="M269.5,32l-0.2,1.3c-0.3-0.2-0.7-0.3-1-0.4c-0.4-0.1-0.7-0.1-1.1-0.1c-0.7,0-1.2,0.1-1.6,0.4
		c-0.4,0.2-0.6,0.6-0.6,1c0,0.3,0.1,0.6,0.4,0.9c0.3,0.3,0.8,0.6,1.6,1.1c1.1,0.6,1.8,1.1,2.2,1.6c0.4,0.5,0.6,1,0.6,1.7
		c0,0.9-0.3,1.7-1,2.3c-0.7,0.6-1.6,0.9-2.6,0.9c-0.5,0-1,0-1.5-0.1c-0.5-0.1-0.9-0.2-1.3-0.4l0.2-1.5c0.5,0.2,0.9,0.4,1.3,0.5
		c0.4,0.1,0.8,0.2,1.2,0.2c0.6,0,1.2-0.1,1.5-0.4c0.4-0.3,0.6-0.7,0.6-1.1c0-0.7-0.8-1.5-2.3-2.4c-0.3-0.1-0.5-0.3-0.6-0.3
		c-0.6-0.3-1-0.8-1.4-1.2c-0.3-0.5-0.5-1-0.5-1.5c0-0.8,0.3-1.5,1-2c0.6-0.5,1.5-0.8,2.6-0.8c0.4,0,0.8,0,1.2,0.1
		C268.8,31.8,269.2,31.9,269.5,32"/>
</g>
<rect x="272" y="31.7" class="st1" width="1.5" height="10.9"/>
<polygon class="st1" points="275.2,31.7 282.9,31.7 282.9,33 279.8,33 279.8,42.7 278.3,42.7 278.3,33 275.2,33 "/>
<path class="st1" d="M288.3,28.7h1.3v1.5h-1.3V28.7z M285.7,28.7h1.3v1.5h-1.3V28.7z M287.6,33.1l-2.2,5.6h4.3L287.6,33.1z
	 M286.7,31.7h1.9l4.3,10.9h-1.7l-1.1-2.8h-5.2l-1.1,2.8h-1.5L286.7,31.7z"/>
<polygon class="st1" points="292.1,31.7 292.1,33 295.2,33 295.2,42.7 296.7,42.7 296.7,33 299.8,33 299.8,31.7 "/>
<rect x="227.3" y="49.4" class="st1" width="2.9" height="10.9"/>
<polygon class="st1" points="232.6,49.4 232.6,60.4 239.8,60.4 239.8,58.2 235.5,58.2 235.5,49.4 "/>
<g>
	<defs>
		<rect id="SVGID_13_" x="0.6" y="-1.4" width="299.2" height="62"/>
	</defs>
	<clipPath id="SVGID_14_">
		<use xlink:href="#SVGID_13_"  style="overflow:visible;"/>
	</clipPath>
	<path class="st7" d="M241.3,49.4h4.4l2,6.6c0.1,0.3,0.1,0.6,0.2,0.9c0,0.3,0.1,0.7,0.1,1c0-0.4,0.1-0.8,0.1-1.1
		c0.1-0.3,0.1-0.6,0.2-0.9l2-6.5h4.4v10.9H252V53c0-0.3,0-0.7,0-1.1c0-0.4,0.1-0.8,0.1-1.2c-0.1,0.3-0.1,0.6-0.2,0.9
		c-0.1,0.3-0.2,0.6-0.2,0.8l-2.5,7.8h-2.6l-2.4-7.7c-0.1-0.3-0.2-0.6-0.2-0.9c-0.1-0.3-0.2-0.7-0.2-1c0,0.5,0.1,1,0.1,1.4
		c0,0.4,0,0.7,0,0.9v7.3h-2.5V49.4z"/>
</g>
<polygon class="st1" points="257.1,49.4 257.1,60.4 264.9,60.4 264.9,58.3 260,58.3 260,55.8 264.4,55.8 264.4,53.7 260,53.7 
	260,51.5 264.7,51.5 264.7,49.4 "/>
<g>
	<defs>
		<rect id="SVGID_15_" x="0.6" y="-1.4" width="299.2" height="62"/>
	</defs>
	<clipPath id="SVGID_16_">
		<use xlink:href="#SVGID_15_"  style="overflow:visible;"/>
	</clipPath>
	<path class="st8" d="M266.9,49.4h3.6l3.2,6.5c0.1,0.2,0.2,0.5,0.4,0.9c0.1,0.4,0.3,0.9,0.5,1.4c-0.1-0.5-0.2-1-0.2-1.5
		c0-0.5-0.1-0.9-0.1-1.2v-6.2h2.6v10.9h-3.6l-3.3-6.8c-0.2-0.3-0.3-0.7-0.4-1c-0.1-0.4-0.2-0.8-0.4-1.2c0.1,0.7,0.2,1.2,0.2,1.8
		c0,0.5,0.1,1,0.1,1.4v5.8h-2.6V49.4z"/>
</g>
<path class="st1" d="M283.9,51.9l1.4,4.1h-2.8L283.9,51.9z M282.2,49.4l-4.1,10.9h2.9l0.8-2.3h4.2l0.8,2.3h3.1l-4.1-10.9H282.2z"/>
<g>
	<defs>
		<rect id="SVGID_17_" x="0.6" y="-1.4" width="299.2" height="62"/>
	</defs>
	<clipPath id="SVGID_18_">
		<use xlink:href="#SVGID_17_"  style="overflow:visible;"/>
	</clipPath>
	<path class="st9" d="M290.4,49.4h2.9v6.4c0,0.9,0.1,1.6,0.4,2c0.3,0.4,0.7,0.6,1.3,0.6c0.6,0,1.1-0.2,1.4-0.7
		c0.3-0.4,0.5-1.1,0.5-2v-6.4h2.8v6.4c0,1.6-0.4,2.8-1.2,3.6c-0.8,0.8-1.9,1.2-3.5,1.2c-1.5,0-2.7-0.4-3.5-1.2
		c-0.8-0.8-1.2-2-1.2-3.6V49.4z"/>
</g>
<polygon class="st10" points="0.6,34.2 0.6,35.1 4.3,35.1 4.3,44.7 5.3,44.7 5.3,35.1 8.2,35.1 8.2,34.2 "/>
<g>
	<defs>
		<rect id="SVGID_19_" x="0.6" y="-1.4" width="299.2" height="62"/>
	</defs>
	<clipPath id="SVGID_20_">
		<use xlink:href="#SVGID_19_"  style="overflow:visible;"/>
	</clipPath>
	<path class="st11" d="M9.8,33.4h0.9v4.9h0c0.2-0.4,0.5-0.8,0.9-1.1c0.4-0.3,0.8-0.4,1.4-0.4c1,0,1.6,0.3,2,0.9
		c0.3,0.6,0.5,1.4,0.5,2.4v4.6h-0.9v-4.6c0-0.3,0-0.7-0.1-1c0-0.3-0.1-0.5-0.2-0.8c-0.2-0.5-0.7-0.7-1.4-0.7c-0.8,0-1.3,0.3-1.7,1
		c-0.3,0.6-0.5,1.3-0.5,2v4.1H9.8V33.4z"/>
	<path class="st11" d="M22.2,40.4c0-0.7-0.1-1.3-0.4-1.9c-0.3-0.5-0.8-0.8-1.4-0.8c-0.7,0-1.2,0.3-1.6,0.8c-0.4,0.5-0.6,1.2-0.6,1.8
		H22.2z M22.7,44.5c-0.7,0.3-1.4,0.4-2.1,0.4c-1.2,0-2-0.4-2.5-1.2c-0.5-0.7-0.8-1.7-0.7-2.9c0-1.2,0.3-2.2,0.9-2.9
		c0.5-0.7,1.3-1.1,2.2-1.1c1,0,1.8,0.4,2.2,1.1c0.4,0.7,0.7,1.6,0.7,2.7v0.5h-5c0,0.8,0.2,1.5,0.6,2.1c0.4,0.6,1,0.9,1.8,0.9
		c0.4,0,0.7-0.1,1.1-0.2c0.4-0.1,0.7-0.2,0.9-0.4V44.5z"/>
	<path class="st11" d="M28.8,41.9c1,0.6,2.2,0.9,3.8,0.9c0.6,0,1.1-0.1,1.6-0.3c0.4-0.2,0.7-0.5,0.7-1.1c0-0.3-0.1-0.6-0.3-0.8
		c-0.2-0.2-0.4-0.4-0.7-0.5c-0.3-0.1-0.6-0.3-1-0.4c-0.4-0.1-0.8-0.3-1.2-0.4c-0.4-0.1-0.8-0.3-1.2-0.5c-0.4-0.2-0.7-0.4-1.1-0.7
		c-0.7-0.6-1-1.5-1-2.7c0-0.8,0.2-1.5,0.6-2.1c0.4-0.6,0.8-1,1.4-1.3c0.6-0.3,1.2-0.5,1.9-0.7c0.7-0.1,1.4-0.2,2.1-0.2
		c1.4,0,2.5,0.2,3.5,0.5l-0.2,2.9c-1-0.4-2-0.6-3.1-0.6c-0.2,0-0.5,0-0.7,0c-0.3,0-0.5,0.1-0.8,0.2c-0.6,0.2-0.9,0.5-0.9,1.1
		c0,0.3,0.1,0.5,0.3,0.7c0.2,0.2,0.4,0.3,0.7,0.4c0.3,0.1,0.7,0.2,1,0.3c0.4,0.1,0.8,0.3,1.2,0.4c0.4,0.1,0.8,0.3,1.2,0.5
		c0.4,0.2,0.7,0.5,1,0.7c0.3,0.3,0.6,0.7,0.7,1.1c0.2,0.4-0.4,4.6-1.6,5.3c-1.2,0.7-2.5,1-4.1,1c-1.4,0-2.7-0.2-4-0.6L28.8,41.9z"/>
	<path class="st11" d="M44.2,37.8h1c0.7,0,1.2-0.1,1.7-0.4c0.4-0.3,0.7-0.8,0.7-1.5c0-0.7-0.2-1.2-0.7-1.5c-0.5-0.3-1-0.4-1.7-0.4
		h-1V37.8z M40.7,31.3H45c4,0,6.1,1.5,6.1,4.6c-0.1,3-1.9,4.5-5.4,4.5h-1.4v4.9h-3.5V31.3z"/>
</g>
<rect x="53.1" y="31.3" class="st10" width="3.5" height="14"/>
<g>
	<defs>
		<rect id="SVGID_21_" x="0.6" y="-1.4" width="299.2" height="62"/>
	</defs>
	<clipPath id="SVGID_22_">
		<use xlink:href="#SVGID_21_"  style="overflow:visible;"/>
	</clipPath>
	<path class="st12" d="M63.1,37.2h1c0.2,0,0.3,0,0.5,0c0.2,0,0.3,0,0.5,0c0.3,0,0.6-0.1,0.9-0.2c0.3-0.1,0.5-0.3,0.7-0.5
		c0.2-0.2,0.2-0.5,0.2-0.9c0-0.7-0.3-1.1-0.8-1.3c-0.5-0.2-1.2-0.3-1.9-0.3h-1V37.2z M59.5,31.3h6.3c1.2,0,2.2,0.3,3,0.9
		c0.8,0.6,1.2,1.5,1.2,2.7c0,1.9-0.8,3.1-2.5,3.5v0c0.3,0.1,0.5,0.2,0.7,0.4c0.2,0.2,0.3,0.4,0.4,0.6c0.1,0.3,0.2,0.6,0.4,0.9
		c0.1,0.3,0.2,0.7,0.4,1.2l1.3,3.8H67l-0.8-2.5c-0.3-1.2-0.7-2-1-2.4c-0.4-0.4-0.8-0.6-1.5-0.6h-0.7v5.5h-3.5V31.3z"/>
</g>
<rect x="73.1" y="31.3" class="st10" width="3.5" height="14"/>
<polygon class="st10" points="81.8,34.1 78.5,34.1 78.5,31.3 89.3,31.3 89.3,34.1 85.3,34.1 85.3,45.4 81.8,45.4 "/>
<g>
	<defs>
		<rect id="SVGID_23_" x="0.6" y="-1.4" width="299.2" height="62"/>
	</defs>
	<clipPath id="SVGID_24_">
		<use xlink:href="#SVGID_23_"  style="overflow:visible;"/>
	</clipPath>
	<path class="st13" d="M28.5,56.4c0,0.9,0.2,1.7,0.6,2.3c0.4,0.6,1,0.9,1.8,1c0.8,0,1.4-0.3,1.8-1c0.4-0.6,0.6-1.4,0.6-2.3
		c0-0.9-0.2-1.7-0.6-2.3c-0.4-0.6-1-0.9-1.8-0.9c-0.8,0-1.4,0.3-1.8,0.9C28.7,54.8,28.5,55.5,28.5,56.4 M27.5,56.4
		c0-1.1,0.3-2,0.8-2.8c0.5-0.8,1.4-1.2,2.6-1.2c1.2,0,2,0.4,2.6,1.2c0.5,0.8,0.8,1.7,0.8,2.8c0,1.1-0.3,2-0.8,2.8
		c-0.6,0.8-1.4,1.2-2.6,1.2c-1.2,0-2-0.4-2.6-1.2C27.8,58.5,27.5,57.5,27.5,56.4"/>
	<path class="st13" d="M36.6,53.4h-1.5v-0.8h1.5V52c0-0.4,0-0.8,0.1-1.2c0-0.4,0.1-0.7,0.2-1c0.1-0.3,0.3-0.6,0.6-0.7
		c0.3-0.2,0.6-0.3,1.1-0.3c0.2,0,0.3,0,0.5,0c0.2,0,0.3,0.1,0.4,0.1l-0.1,0.8c-0.2-0.1-0.4-0.2-0.7-0.2c-0.3,0-0.5,0.1-0.7,0.2
		c-0.2,0.2-0.3,0.4-0.3,0.6c-0.1,0.2-0.1,0.5-0.1,0.7c0,0.3,0,0.5,0,0.8v0.7h1.6v0.8h-1.6v6.9h-0.9V53.4z"/>
	<path class="st13" d="M44.5,59.2c0.5,0.3,1.2,0.5,1.9,0.5c0.4,0,0.8-0.1,1.1-0.4c0.3-0.2,0.5-0.6,0.5-1c0-0.5-0.2-0.8-0.5-1.1
		c-0.3-0.3-0.7-0.5-1.2-0.7c-0.2-0.1-0.4-0.2-0.6-0.3c-0.2-0.1-0.4-0.3-0.6-0.4c-0.2-0.2-0.3-0.3-0.4-0.6c-0.1-0.2-0.2-0.4-0.2-0.7
		c0-0.8,0.3-1.3,0.7-1.6c0.5-0.3,1-0.5,1.6-0.5c0.2,0,0.5,0,0.8,0.1c0.3,0.1,0.7,0.2,1,0.3l-0.1,0.8c-0.5-0.2-1.1-0.4-1.6-0.4
		c-0.5,0-0.8,0.1-1.1,0.3c-0.1,0.1-0.3,0.2-0.3,0.4c-0.1,0.2-0.1,0.4-0.1,0.6c0,0.2,0.1,0.3,0.2,0.4c0.1,0.1,0.2,0.3,0.4,0.4
		c0.2,0.1,0.4,0.2,0.6,0.3c0.2,0.1,0.4,0.2,0.6,0.3c0.5,0.2,0.9,0.5,1.2,0.8c0.4,0.4,0.5,0.8,0.5,1.5c0,0.4-0.1,0.7-0.2,1
		c-0.2,0.3-0.4,0.5-0.6,0.7c-0.5,0.3-1.1,0.5-1.7,0.5c-0.7,0-1.4-0.1-2-0.4L44.5,59.2z"/>
	<path class="st13" d="M55.5,53.6c-0.5-0.3-1-0.4-1.6-0.4c-0.9,0-1.5,0.3-2,0.9c-0.5,0.6-0.7,1.4-0.7,2.3c0,0.9,0.2,1.6,0.7,2.3
		c0.5,0.6,1.1,1,1.9,1c0.6,0,1.1-0.1,1.6-0.3l0.1,0.9c-0.6,0.2-1.2,0.3-1.9,0.3c-1.2,0-2-0.4-2.6-1.2c-0.6-0.8-0.9-1.7-0.9-2.8
		c0-1.2,0.3-2.2,1-2.9c0.6-0.7,1.5-1.1,2.6-1.1c0.4,0,0.8,0,1.1,0.1c0.2,0,0.3,0.1,0.4,0.1c0.1,0,0.2,0.1,0.2,0.1L55.5,53.6z"/>
</g>
<path class="st10" d="M57.1,60.3H58v-7.7h-0.9V60.3z M57.1,50.6H58v-1.3h-0.9V50.6z"/>
<g>
	<defs>
		<rect id="SVGID_25_" x="0.6" y="-1.4" width="299.2" height="62"/>
	</defs>
	<clipPath id="SVGID_26_">
		<use xlink:href="#SVGID_25_"  style="overflow:visible;"/>
	</clipPath>
	<path class="st14" d="M64.8,55.9c0-0.7-0.1-1.3-0.4-1.9c-0.3-0.5-0.8-0.8-1.4-0.8c-0.7,0-1.2,0.3-1.6,0.8c-0.4,0.5-0.6,1.2-0.6,1.8
		H64.8z M65.2,60c-0.7,0.3-1.4,0.4-2.1,0.4c-1.2,0-2-0.4-2.5-1.2c-0.5-0.7-0.8-1.7-0.7-2.9c0-1.2,0.3-2.2,0.9-2.9
		c0.5-0.7,1.3-1.1,2.2-1.1c1,0,1.8,0.4,2.2,1.1c0.4,0.7,0.7,1.6,0.7,2.7v0.5h-5c0,0.8,0.2,1.5,0.6,2.1c0.4,0.6,1,0.9,1.8,0.9
		c0.4,0,0.7-0.1,1.1-0.2c0.4-0.1,0.7-0.2,0.9-0.4V60z"/>
	<path class="st14" d="M67.6,54.4c0-0.6,0-1.2-0.1-1.8h0.9V54h0c0.1-0.2,0.2-0.4,0.3-0.5c0.1-0.2,0.3-0.3,0.4-0.5
		c0.2-0.2,0.4-0.3,0.7-0.4c0.3-0.1,0.6-0.1,0.9-0.1c0.9,0,1.5,0.3,1.9,0.8c0.4,0.5,0.6,1.2,0.6,2.1v4.9h-0.9v-4.7
		c0-0.7-0.1-1.3-0.4-1.7c-0.3-0.4-0.7-0.6-1.3-0.6c-0.8,0-1.4,0.3-1.7,0.9c-0.2,0.3-0.3,0.6-0.4,0.9c-0.1,0.3-0.1,0.7-0.1,1v4.2
		h-0.9V54.4z"/>
	<path class="st14" d="M80.3,53.6c-0.5-0.3-1-0.4-1.6-0.4c-0.9,0-1.5,0.3-2,0.9c-0.5,0.6-0.7,1.4-0.7,2.3c0,0.9,0.2,1.6,0.7,2.3
		c0.5,0.6,1.1,1,1.9,1c0.6,0,1.1-0.1,1.6-0.3l0.1,0.9c-0.6,0.2-1.2,0.3-1.9,0.3c-1.2,0-2-0.4-2.6-1.2c-0.6-0.8-0.9-1.7-0.9-2.8
		c0-1.2,0.3-2.2,1-2.9c0.6-0.7,1.5-1.1,2.6-1.1c0.4,0,0.8,0,1.1,0.1c0.2,0,0.3,0.1,0.4,0.1c0.1,0,0.2,0.1,0.2,0.1L80.3,53.6z"/>
	<path class="st14" d="M86.3,55.9c0-0.7-0.1-1.3-0.4-1.9c-0.3-0.5-0.8-0.8-1.4-0.8c-0.7,0-1.2,0.3-1.6,0.8c-0.4,0.5-0.6,1.2-0.6,1.8
		H86.3z M86.7,60c-0.7,0.3-1.4,0.4-2.1,0.4c-1.2,0-2-0.4-2.5-1.2c-0.5-0.7-0.8-1.7-0.7-2.9c0-1.2,0.3-2.2,0.9-2.9
		c0.5-0.7,1.3-1.1,2.2-1.1c1,0,1.8,0.4,2.2,1.1c0.4,0.7,0.7,1.6,0.7,2.7v0.5h-5c0,0.8,0.2,1.5,0.6,2.1c0.4,0.6,1,0.9,1.8,0.9
		c0.4,0,0.7-0.1,1.1-0.2c0.4-0.1,0.7-0.2,0.9-0.4V60z"/>
</g>
</svg>
