<?xml version="1.0" encoding="UTF-8"?>
<!DOCTYPE svg PUBLIC "-//W3C//DTD SVG 1.1//EN" "http://www.w3.org/Graphics/SVG/1.1/DTD/svg11.dtd">
<!-- Creator: CorelDRAW X6 -->
<svg xmlns="http://www.w3.org/2000/svg" xml:space="preserve" width="55mm" height="18.4765mm" version="1.1" style="shape-rendering:geometricPrecision; text-rendering:geometricPrecision; image-rendering:optimizeQuality; fill-rule:evenodd; clip-rule:evenodd"
viewBox="0 0 5713 1919"
 xmlns:xlink="http://www.w3.org/1999/xlink">
 <defs>
  <style type="text/css">
   <![CDATA[
    .fil0 {fill:#008787}
    .fil1 {fill:#2B2A29;fill-rule:nonzero}
   ]]>
  </style>
 </defs>
 <g id="Ebene_x0020_1">
  <metadata id="CorelCorpID_0Corel-Layer"/>
  <g id="_764101936">
   <path class="fil0" d="M4309 436c-23,-4 -32,-22 -27,-45 25,-55 95,-5 56,37 -8,7 -15,10 -29,8zm-1082 202c4,-93 55,-180 100,-258 31,-48 67,-94 104,-138 -25,4 -43,9 -70,14 -12,3 -14,-13 -6,-18 33,-9 67,-17 101,-25 58,-68 95,-106 144,-152 20,-19 55,-54 89,-60 24,1 72,10 52,41 -35,42 -66,77 -113,134 43,-7 87,-13 131,-20 19,2 24,14 7,23 -12,3 -12,3 -162,28 -2,2 -5,5 -7,7 -30,40 -60,80 -88,122 -62,98 -116,192 -138,308 -2,9 -3,29 4,36 8,0 22,-7 30,-11 116,-60 211,-139 323,-209 51,-123 110,-247 176,-361 15,-16 29,-7 23,5 -37,64 -130,246 -160,331 69,-48 174,-111 248,-143 28,-12 67,-4 83,28 6,13 6,43 1,57 -30,78 -64,138 -97,213 -12,32 -37,75 -32,101 3,20 137,-76 158,-93 8,-7 60,-49 69,-55 20,-13 34,-23 52,-23 35,2 70,25 50,47 -92,99 -192,201 -314,233 -54,14 -131,-26 -135,-95 -4,-58 15,-113 38,-165 10,-23 37,-81 50,-104 -82,53 -157,108 -235,170 -26,70 -38,105 -57,179 -6,26 -38,19 -33,-2 10,-36 37,-108 50,-146 -68,51 -138,111 -214,146 -41,19 -86,26 -120,15 -75,-25 -98,-78 -98,-156z"/>
   <polygon class="fil1" points="0,1026 237,1026 237,1066 142,1066 142,1364 95,1364 95,1066 0,1066 "/>
   <polygon class="fil1" points="288,1026 470,1026 470,1062 335,1062 335,1170 463,1170 463,1208 335,1208 335,1325 475,1325 475,1364 288,1364 "/>
   <path class="fil1" d="M785 1038l-2 41c-13,-5 -26,-9 -38,-12 -12,-3 -25,-4 -38,-4 -41,0 -73,12 -97,36 -24,24 -36,56 -36,96 0,41 12,73 36,96 24,23 56,35 97,35 13,0 26,-1 38,-4 12,-2 25,-6 37,-11l1 42c-12,4 -24,7 -38,9 -13,2 -27,3 -42,3 -55,0 -99,-15 -131,-45 -32,-30 -48,-71 -48,-123 0,-52 16,-94 49,-125 33,-31 76,-47 131,-47 15,0 29,1 42,3 13,2 26,5 38,10z"/>
   <polygon class="fil1" points="839,1026 887,1026 887,1169 1040,1169 1040,1026 1087,1026 1087,1364 1040,1364 1040,1208 887,1208 887,1364 839,1364 "/>
   <path class="fil1" d="M1172 1026l60 0 147 263c2,4 5,10 8,17 3,8 6,17 9,28 -2,-12 -4,-24 -5,-33 -1,-10 -2,-18 -2,-26l0 -249 43 0 0 338 -58 0 -150 -265c-2,-3 -4,-8 -7,-16 -3,-8 -6,-17 -9,-29 2,18 4,32 5,42 1,10 2,17 2,21l0 248 -43 0 0 -338z"/>
   <polygon class="fil1" points="1516,1026 1564,1026 1564,1364 1516,1364 "/>
   <path class="fil1" d="M1820 1035l-5 42c-10,-5 -21,-9 -32,-11 -11,-3 -23,-4 -35,-4 -21,0 -37,4 -48,11 -12,8 -17,18 -17,31 0,10 4,20 12,28 8,9 25,20 50,34 33,18 57,35 69,50 13,15 19,32 19,52 0,29 -11,52 -32,71 -21,18 -48,28 -81,28 -16,0 -31,-1 -46,-4 -15,-3 -28,-6 -41,-11l5 -45c14,7 27,13 40,16 13,4 26,5 38,5 20,0 36,-4 48,-13 12,-9 18,-21 18,-35 0,-23 -24,-47 -71,-74 -8,-4 -14,-8 -18,-10 -18,-10 -32,-23 -43,-38 -10,-15 -15,-31 -15,-46 0,-26 10,-47 30,-63 20,-15 47,-23 82,-23 13,0 25,1 37,3 12,2 24,5 35,9z"/>
   <path class="fil1" d="M2143 1038l-2 41c-13,-5 -26,-9 -38,-12 -12,-3 -25,-4 -38,-4 -41,0 -73,12 -97,36 -24,24 -36,56 -36,96 0,41 12,73 36,96 24,23 56,35 97,35 13,0 26,-1 38,-4 12,-2 25,-6 37,-11l1 42c-12,4 -24,7 -38,9 -13,2 -27,3 -42,3 -55,0 -99,-15 -131,-45 -32,-30 -48,-71 -48,-123 0,-52 16,-94 49,-125 33,-31 76,-47 131,-47 15,0 29,1 42,3 13,2 26,5 38,10z"/>
   <polygon class="fil1" points="2197,1026 2245,1026 2245,1169 2398,1169 2398,1026 2445,1026 2445,1364 2398,1364 2398,1208 2245,1208 2245,1364 2197,1364 "/>
   <polygon class="fil1" points="2530,1026 2713,1026 2713,1062 2577,1062 2577,1170 2705,1170 2705,1208 2577,1208 2577,1325 2717,1325 2717,1364 2530,1364 "/>
   <path class="fil1" d="M2932 1026l47 0 0 199c0,36 7,63 20,80 13,17 33,26 60,26 27,0 48,-9 61,-28 14,-19 21,-46 21,-83l0 -195 44 0 0 196c0,49 -11,87 -32,111 -21,25 -53,37 -96,37 -41,0 -72,-12 -94,-36 -21,-24 -32,-60 -32,-107l0 -200z"/>
   <path class="fil1" d="M3270 1026l60 0 147 263c2,4 5,10 8,17 3,8 6,17 9,28 -2,-12 -4,-24 -5,-33 -1,-10 -2,-18 -2,-26l0 -249 43 0 0 338 -58 0 -150 -265c-2,-3 -4,-8 -7,-16 -3,-8 -6,-17 -9,-29 2,18 4,32 5,42 1,10 2,17 2,21l0 248 -43 0 0 -338z"/>
   <polygon class="fil1" points="3615,1026 3662,1026 3662,1364 3615,1364 "/>
   <polygon class="fil1" points="3713,1026 3764,1026 3863,1319 3965,1026 4013,1026 3889,1364 3833,1364 "/>
   <polygon class="fil1" points="4062,1026 4245,1026 4245,1062 4109,1062 4109,1170 4237,1170 4237,1208 4109,1208 4109,1325 4249,1325 4249,1364 4062,1364 "/>
   <path class="fil1" d="M4363 1062l0 115 36 0c24,0 42,-5 55,-16 13,-10 20,-25 20,-43 0,-20 -6,-34 -19,-43 -12,-9 -32,-14 -58,-14l-35 0zm-47 -36l91 0c38,0 67,7 87,22 19,15 29,36 29,65 0,21 -6,39 -19,53 -13,14 -31,24 -55,29 10,3 18,7 25,14 6,6 13,18 20,34l51 121 -51 0 -44 -111c-6,-14 -13,-24 -22,-30 -9,-6 -21,-9 -38,-9l-27 0 0 150 -47 0 0 -338z"/>
   <path class="fil1" d="M4776 1035l-5 42c-10,-5 -21,-9 -32,-11 -11,-3 -23,-4 -35,-4 -21,0 -37,4 -48,11 -11,8 -17,18 -17,31 0,10 4,20 12,28 8,9 25,20 50,34 33,18 57,35 69,50 13,15 19,32 19,52 0,29 -10,52 -32,71 -21,18 -48,28 -81,28 -16,0 -31,-1 -46,-4 -15,-3 -28,-6 -41,-11l5 -45c14,7 27,13 41,16 13,4 26,5 38,5 20,0 36,-4 48,-13 12,-9 18,-21 18,-35 0,-23 -24,-47 -71,-74 -8,-4 -14,-8 -18,-10 -18,-10 -32,-23 -43,-38 -10,-15 -15,-31 -15,-46 0,-26 10,-47 30,-63 20,-15 47,-23 82,-23 13,0 25,1 37,3 12,2 24,5 35,9z"/>
   <polygon class="fil1" points="4854,1026 4901,1026 4901,1364 4854,1364 "/>
   <polygon class="fil1" points="4952,1026 5189,1026 5189,1066 5094,1066 5094,1364 5047,1364 5047,1066 4952,1066 "/>
   <path class="fil1" d="M5357 931l41 0 0 45 -41 0 0 -45zm-79 0l41 0 0 45 -41 0 0 -45zm57 136l-67 172 132 0 -65 -172zm-28 -41l57 0 133 338 -51 0 -33 -87 -161 0 -33 87 -48 0 135 -338z"/>
   <polygon class="fil1" points="5476,1026 5713,1026 5713,1066 5619,1066 5619,1364 5571,1364 5571,1066 5476,1066 "/>
   <polygon class="fil1" points="3470,1574 3560,1574 3560,1911 3470,1911 "/>
   <polygon class="fil1" points="3632,1574 3722,1574 3722,1845 3858,1845 3858,1911 3632,1911 "/>
   <path class="fil1" d="M3904 1574l137 0 62 203c2,8 4,17 6,27 1,10 3,21 3,32 1,-13 3,-24 4,-35 2,-11 4,-20 6,-27l62 -201 135 0 0 338 -85 0 0 -227c0,-11 0,-22 1,-33 1,-12 2,-24 3,-37 -2,10 -5,20 -7,29 -2,9 -5,18 -8,26l-76 242 -81 0 -74 -238c-3,-8 -5,-17 -7,-27 -2,-10 -5,-21 -7,-32 1,16 2,30 3,43 1,13 1,22 1,29l0 225 -79 0 0 -338z"/>
   <polygon class="fil1" points="4392,1574 4627,1574 4627,1637 4482,1637 4482,1705 4618,1705 4618,1769 4482,1769 4482,1846 4632,1846 4632,1911 4392,1911 "/>
   <path class="fil1" d="M4695 1574l113 0 98 203c3,7 7,16 12,28 4,12 9,27 15,45 -3,-17 -5,-32 -6,-46 -1,-14 -2,-27 -2,-38l0 -191 82 0 0 338 -112 0 -102 -210c-5,-10 -9,-20 -13,-31 -4,-11 -8,-24 -11,-37 3,20 6,39 7,56 1,17 2,32 2,45l0 178 -82 0 0 -338z"/>
   <path class="fil1" d="M5222 1649l-44 127 86 0 -42 -127zm-53 -75l109 0 128 338 -96 0 -24 -71 -130 0 -25 71 -89 0 128 -338z"/>
   <path class="fil1" d="M5423 1574l90 0 0 197c0,29 4,50 13,63 9,13 22,19 41,19 19,0 34,-7 44,-21 10,-14 15,-34 15,-61l0 -197 86 0 0 197c0,50 -12,87 -36,112 -24,25 -60,37 -108,37 -48,0 -84,-12 -108,-37 -24,-25 -36,-62 -36,-112l0 -197z"/>
  </g>
 </g>
</svg>
