<svg xmlns="http://www.w3.org/2000/svg" width="1000" height="15" preserveAspectRatio="none"><path fill="#573D90" d="M0 0h50.031v15H0z"/><path fill="#8671B1" d="M50.031 0h49.996v15H50.031z"/><path fill="#A9609D" d="M150.024 0h49.997v15h-49.997z"/><path fill="#CB6389" d="M250.017 0h49.997v15h-49.997z"/><path fill="#E18271" d="M350.01 0h49.997v15H350.01z"/><path fill="#ECA56E" d="M450.004 0h49.997v15h-49.997z"/><path fill="#8B1878" d="M100.028 0h49.996v15h-49.996z"/><path fill="#B8085F" d="M200.02 0h49.997v15H200.02z"/><path fill="#CB2129" d="M300.014 0h49.996v15h-49.996z"/><path fill="#DC6413" d="M400.007 0h49.997v15h-49.997z"/><path fill="#E8B65A" d="M549.996 0h49.997v15h-49.997z"/><path fill="#92B869" d="M649.99 0h49.997v15H649.99z"/><path fill="#6A9864" d="M749.983 0h49.997v15h-49.997z"/><path fill="#449CAB" d="M849.976 0h49.997v15h-49.997z"/><path fill="#7DABD0" d="M949.969 0H1000v15h-50.031z"/><path fill="#DC9800" d="M500 0h49.996v15H500z"/><path fill="#559E31" d="M599.993 0h49.997v15h-49.997z"/><path fill="#007836" d="M699.987 0h49.996v15h-49.996z"/><path fill="#007A8B" d="M799.979 0h49.997v15h-49.997z"/><path fill="#368DBC" d="M899.973 0h49.996v15h-49.996z"/></svg>