<?xml version="1.0" encoding="utf-8"?>
<!-- Generator: Adobe Illustrator 28.0.0, SVG Export Plug-In . SVG Version: 6.00 Build 0)  -->
<svg version="1.1" id="Ebene_4" xmlns="http://www.w3.org/2000/svg" xmlns:xlink="http://www.w3.org/1999/xlink" x="0px" y="0px"
	 viewBox="0 0 904 306.7" style="enable-background:new 0 0 904 306.7;" xml:space="preserve">
<style type="text/css">
	.st0{fill-rule:evenodd;clip-rule:evenodd;fill:#004F9F;}
	.st1{fill-rule:evenodd;clip-rule:evenodd;fill:#159A34;}
	.st2{fill:#004F9F;}
	.st3{fill:#159A34;}
</style>
<g>
	<path class="st0" d="M228.6,110.1c-4.1-0.5-8.2-0.7-12.4-0.7c-19,0-36.9,5-52.5,13.6c-18.3-17-70.2-7.6-79.6,36.4c0,0,0,0,0,0.1
		l-11.7,55.2c-0.3,1.5-1.7,2.6-3.3,2.6H14.8c-2.1,0-3.7-2-3.3-4L56.1,4.6C56.4,3.1,57.8,2,59.4,2h54.4c2.1,0,3.7,2,3.3,4L97,99.1
		C142.7,48.8,212.2,66,228.6,110.1L228.6,110.1z"/>
	<path class="st0" d="M223.5,178l-7.8,36.8c-0.3,1.5-1.7,2.6-3.3,2.6h-54.5c-2.1,0-3.7-2-3.3-4l9-42.4c7.4-4,15.9-6.3,25-6.3
		C202,164.8,214.2,169.8,223.5,178L223.5,178z"/>
	<path class="st1" d="M310.3,217.4h-55.2c-1.8,0-3.2-1.4-3.3-3.1c-1-19.6-10.9-36.9-25.7-47.8c-10.5-7.7-23.4-12.2-37.4-12.2
		c-7.8,0-15.3,1.4-22.2,4c-23,8.6-39.6,30.3-40.9,56c-0.1,1.8-1.6,3.1-3.3,3.1l0,0c-1.9,0-3.4-1.6-3.3-3.5
		c0.9-25.5,11.6-48.5,28.5-65.4c6.5-6.5,13.9-12.1,22-16.5c13.9-7.7,29.9-12,46.9-12c5.2,0,10.3,0.4,15.3,1.2
		c45.4,7.2,80.4,45.7,82.1,92.7C313.7,215.8,312.2,217.4,310.3,217.4L310.3,217.4z"/>
</g>
<g>
	<path class="st2" d="M414,120.9h-16.2V92.8h-23.9v28.2h-16.3V53.5h16.3v26.8h23.9V53.5H414V120.9L414,120.9z"/>
	<path class="st2" d="M474.2,94.9c0,5.3-1.1,10-3.3,14.1c-2.2,4.1-5.2,7.2-9.2,9.4c-4,2.2-8.4,3.3-13.4,3.3s-9.6-1.1-13.5-3.2
		c-4-2.2-7-5.3-9.2-9.4c-2.2-4.1-3.3-8.8-3.3-14.1v-1.9c0-5.3,1.1-10,3.2-14c2.1-4.1,5.2-7.2,9.2-9.5s8.5-3.3,13.6-3.3
		c5.1,0,9.4,1.1,13.4,3.3c3.9,2.2,7,5.3,9.2,9.3c2.2,4,3.3,8.6,3.4,13.7L474.2,94.9L474.2,94.9z M458.5,93c0-4.8-0.9-8.4-2.7-11
		c-1.8-2.6-4.3-3.9-7.5-3.9c-6.8,0-10.2,5-10.2,15.1v1.6c0,4.6,0.8,8.3,2.5,10.9c1.7,2.6,4.3,4,7.7,4c3.1,0,5.5-1.3,7.3-3.9
		s2.7-6.1,2.8-10.7L458.5,93L458.5,93z"/>
	<path class="st2" d="M529.2,102.1c-0.2,6-2.5,10.7-7,14.3s-10.3,5.3-17.5,5.3c-7.9,0-14.1-2.3-18.5-7c-4.4-4.7-6.6-11.4-6.6-20
		v-1.5c0-5.4,1-10.2,3.1-14.3c2-4.1,4.9-7.2,8.7-9.4c3.7-2.2,8.1-3.2,13-3.2c7.3,0,13.2,1.8,17.6,5.4c4.4,3.6,6.9,8.5,7.4,14.7
		h-15.6c0.1-2.5-0.7-4.5-2.4-5.9c-1.7-1.4-4-2.1-7-2.1c-5.6,0-8.5,4.2-8.9,12.5l0,4.1c0,5.3,0.7,9.1,2.1,11.4
		c1.4,2.3,3.8,3.4,7.3,3.4c6.1,0,9.1-2.5,8.9-7.5L529.2,102.1L529.2,102.1z"/>
	<path class="st2" d="M585.4,120.9h-15.6v-20.4h-18.3v20.4h-15.7V67h15.7v21.5h18.3V67h15.6V120.9z"/>
	<path class="st2" d="M623.4,106.2c0-1.6-0.7-2.9-2.1-3.9c-1.4-1-3.9-1.9-7.5-2.7c-3.6-0.8-6.6-1.7-9-2.6c-2.4-0.9-4.4-2-6-3.3
		c-1.6-1.3-2.7-2.8-3.5-4.6c-0.7-1.8-1.1-3.9-1.1-6.5c0-3.1,0.9-5.9,2.7-8.4c1.8-2.5,4.3-4.4,7.5-5.8c3.2-1.4,6.8-2.1,10.7-2.1
		c7,0,12.6,1.5,16.8,4.6c4.2,3,6.2,7.2,6.2,12.4h-15.7c0-1.7-0.7-3.1-2.1-4.3c-1.4-1.2-3.1-1.8-5.2-1.8c-1.9,0-3.5,0.5-4.7,1.4
		s-1.8,2-1.8,3.3c0,1.4,0.6,2.5,1.8,3.3c1.2,0.8,3.4,1.7,6.5,2.5c7.7,1.6,13.1,3.8,16.2,6.6c3.1,2.8,4.7,6.6,4.7,11.5
		c0,4.9-1.9,8.8-5.8,11.7c-3.9,2.9-9.2,4.3-15.9,4.3c-4.7,0-8.8-0.7-12.5-2.2c-3.7-1.5-6.5-3.6-8.5-6.3c-2-2.7-3-6-3-9.8H608
		c0,2.8,0.7,4.7,2.2,5.8c1.4,1.1,3.8,1.7,7.2,1.7c1.9,0,3.4-0.4,4.4-1.3S623.3,107.6,623.4,106.2L623.4,106.2z"/>
	<path class="st2" d="M693.3,102.1c-0.2,6-2.5,10.7-7,14.3c-4.5,3.5-10.3,5.3-17.5,5.3c-7.9,0-14.1-2.3-18.5-7
		c-4.4-4.7-6.6-11.4-6.6-20v-1.5c0-5.4,1-10.2,3.1-14.3c2-4.1,4.9-7.2,8.7-9.4c3.7-2.2,8.1-3.2,13-3.2c7.3,0,13.2,1.8,17.6,5.4
		c4.4,3.6,6.9,8.5,7.4,14.7h-15.6c0.1-2.5-0.7-4.5-2.4-5.9c-1.7-1.4-4-2.1-7-2.1c-5.6,0-8.5,4.2-8.9,12.5l0,4.1
		c0,5.3,0.7,9.1,2.1,11.4c1.4,2.3,3.8,3.4,7.3,3.4c6.1,0,9.1-2.5,8.9-7.5L693.3,102.1L693.3,102.1z"/>
	<path class="st2" d="M749.5,120.9h-15.6v-20.4h-18.3v20.4H700V67h15.7v21.5h18.3V67h15.6V120.9z"/>
	<path class="st2" d="M805.3,67v34.6c0,6.4-2,11.3-6.1,14.8c-4.1,3.5-9.8,5.3-17.2,5.3s-13-1.8-17.1-5.3c-4.2-3.6-6.3-8.4-6.3-14.5
		V67h15.7v34.6c0,2.9,0.6,5,1.9,6.2c1.3,1.2,3.2,1.9,5.8,1.9c2.6,0,4.5-0.6,5.8-1.9c1.2-1.2,1.8-3.3,1.8-6.2V67H805.3L805.3,67z"/>
	<path class="st2" d="M830.1,108.9h23.4v12h-39.1V67h15.7L830.1,108.9L830.1,108.9z"/>
	<path class="st2" d="M896,99.1h-21.2v9.8h25.1v12h-40.8V67h41v12h-25.4v8H896L896,99.1L896,99.1z"/>
	<path class="st2" d="M413.9,217.3h-16.2l-23.9-42v42h-16.3v-67.4h16.3l23.8,42v-42h16.2V217.3z"/>
	<path class="st2" d="M473.4,191.3c0,5.3-1.1,10-3.3,14.1s-5.2,7.2-9.2,9.4c-4,2.2-8.4,3.3-13.4,3.3s-9.6-1.1-13.5-3.2
		c-4-2.2-7-5.3-9.2-9.4c-2.2-4.1-3.3-8.8-3.3-14.1v-1.9c0-5.3,1.1-10,3.2-14c2.1-4.1,5.2-7.2,9.2-9.5s8.5-3.3,13.6-3.3
		c5.1,0,9.4,1.1,13.4,3.3c3.9,2.2,7,5.3,9.2,9.3c2.2,4,3.3,8.6,3.4,13.7L473.4,191.3L473.4,191.3z M457.7,189.4
		c0-4.8-0.9-8.4-2.7-11c-1.8-2.6-4.3-3.9-7.5-3.9c-6.8,0-10.2,5-10.2,15.1v1.6c0,4.6,0.8,8.3,2.5,10.9c1.7,2.6,4.3,4,7.7,4
		c3.1,0,5.5-1.3,7.3-3.9s2.7-6.1,2.8-10.7L457.7,189.4L457.7,189.4z"/>
	<path class="st2" d="M501.5,199.4h-6.2v17.9h-15.7v-54h23.8c7,0,12.5,1.4,16.4,4.2c3.9,2.8,5.9,6.8,5.9,11.8c0,3.9-0.8,7.1-2.3,9.6
		c-1.5,2.5-4,4.6-7.6,6.2l11.7,21.4v0.6h-16.9L501.5,199.4L501.5,199.4z M495.3,187.4h8.2c4.5,0,6.8-2,6.8-6.1
		c0-4.1-2.4-5.9-7.2-5.9h-7.7V187.4z"/>
	<path class="st2" d="M533.5,217.3v-54h19.3c5.1,0,9.8,1.1,13.9,3.4c4.2,2.2,7.4,5.4,9.8,9.3c2.3,4,3.5,8.4,3.5,13.3v1.9
		c0,4.8-1.1,9.3-3.4,13.2c-2.3,4-5.5,7.1-9.5,9.3c-4.1,2.3-8.6,3.4-13.6,3.4L533.5,217.3L533.5,217.3z M549.1,175.4v29.9h4.1
		c3.9,0,6.6-1,8.3-2.9c1.7-1.9,2.6-5.3,2.7-10.1v-3c0-5.1-0.9-8.6-2.6-10.7s-4.5-3.1-8.3-3.2L549.1,175.4L549.1,175.4z"/>
	<path class="st2" d="M635.7,217.3h-15.6v-20.4h-18.3v20.4h-15.7v-54h15.7v21.5h18.3v-21.5h15.6V217.3z"/>
	<path class="st2" d="M677.8,207.9h-19.3l-3.2,9.5h-15.7l20.9-54h15l21.3,54h-15.7L677.8,207.9L677.8,207.9z M662,197.2h12
		l-5.9-16.7l-0.2-1l-0.2,0.9L662,197.2L662,197.2z"/>
	<path class="st2" d="M744.8,163.4v34.6c0,6.4-2,11.3-6.1,14.8c-4.1,3.5-9.8,5.3-17.2,5.3s-13-1.8-17.1-5.3
		c-4.2-3.6-6.3-8.4-6.3-14.5v-34.9h15.7v34.6c0,2.9,0.6,5,1.9,6.2c1.3,1.2,3.2,1.9,5.8,1.9c2.6,0,4.5-0.6,5.8-1.9
		c1.2-1.2,1.8-3.3,1.8-6.2v-34.6L744.8,163.4L744.8,163.4z"/>
	<path class="st2" d="M781.5,202.5c0-1.6-0.7-2.9-2.1-3.9c-1.4-1-3.9-1.9-7.5-2.7s-6.6-1.7-9-2.6c-2.4-0.9-4.4-2-6-3.3
		c-1.6-1.3-2.7-2.8-3.5-4.6s-1.1-3.9-1.1-6.5c0-3.1,0.9-5.9,2.7-8.4c1.8-2.5,4.3-4.4,7.5-5.8c3.2-1.4,6.8-2.1,10.7-2.1
		c7,0,12.6,1.5,16.8,4.6c4.2,3,6.2,7.2,6.2,12.4h-15.7c0-1.7-0.7-3.1-2.1-4.3c-1.4-1.2-3.1-1.8-5.2-1.8c-1.9,0-3.5,0.5-4.7,1.4
		c-1.2,0.9-1.8,2-1.8,3.3c0,1.4,0.6,2.5,1.8,3.3c1.2,0.8,3.4,1.7,6.5,2.5c7.7,1.6,13.1,3.8,16.2,6.6c3.1,2.8,4.7,6.6,4.7,11.5
		s-1.9,8.8-5.8,11.7c-3.9,2.9-9.2,4.3-15.9,4.3c-4.7,0-8.8-0.7-12.5-2.2c-3.7-1.5-6.5-3.6-8.5-6.3c-2-2.7-3-6-3-9.8h15.7
		c0,2.8,0.7,4.7,2.2,5.8c1.4,1.1,3.8,1.7,7.2,1.7c1.9,0,3.4-0.4,4.4-1.3S781.4,204,781.5,202.5L781.5,202.5z"/>
	<path class="st2" d="M840.3,195.4h-21.2v9.8h25.1v12h-40.8v-54h41v12h-25.4v8h21.2L840.3,195.4L840.3,195.4z"/>
	<path class="st2" d="M900.1,217.3h-15.6l-18.2-31.4v31.4h-15.7v-54h15.7l18.2,31.4v-31.4h15.6V217.3z"/>
</g>
<g>
	<path class="st3" d="M34.9,248v29.3c0,4.7-1.5,8.4-4.5,11.1s-7,4.1-11.9,4.1s-9-1.3-12-4c-3-2.7-4.4-6.4-4.4-11.2V248h7.6v29.4
		c0,2.9,0.7,5.2,2.2,6.7c1.5,1.6,3.7,2.3,6.6,2.3c5.9,0,8.8-3.1,8.8-9.3V248L34.9,248L34.9,248z"/>
	<path class="st3" d="M51.8,259.3l0.2,3.8c2.4-2.9,5.6-4.4,9.5-4.4c6.8,0,10.3,3.9,10.4,11.7v21.5h-7.3v-21.1c0-2.1-0.5-3.6-1.3-4.6
		c-0.9-1-2.3-1.5-4.4-1.5c-3,0-5.1,1.3-6.6,4v23.2H45v-32.6L51.8,259.3L51.8,259.3z"/>
	<path class="st3" d="M81.4,250.8c0-1.1,0.4-2.1,1.1-2.8c0.7-0.7,1.7-1.1,3.1-1.1c1.3,0,2.3,0.4,3.1,1.1s1.1,1.7,1.1,2.8
		s-0.4,2-1.1,2.8s-1.7,1.1-3.1,1.1c-1.3,0-2.3-0.4-3.1-1.1C81.8,252.9,81.4,251.9,81.4,250.8z M89.2,291.9h-7.3v-32.6h7.3V291.9z"/>
	<path class="st3" d="M110.8,282.6l6.9-23.3h7.6L114,291.9h-6.4l-11.4-32.6h7.6L110.8,282.6L110.8,282.6z"/>
	<path class="st3" d="M145.1,292.5c-4.6,0-8.4-1.5-11.3-4.4c-2.9-2.9-4.3-6.8-4.3-11.7v-0.9c0-3.3,0.6-6.2,1.9-8.7
		c1.2-2.6,3-4.6,5.3-6c2.3-1.4,4.8-2.1,7.6-2.1c4.4,0,7.9,1.4,10.3,4.2c2.4,2.8,3.6,6.8,3.6,12v3h-21.3c0.2,2.7,1.1,4.8,2.7,6.4
		c1.6,1.6,3.6,2.3,5.9,2.3c3.4,0,6.1-1.4,8.2-4.1l3.9,3.8c-1.3,1.9-3.1,3.5-5.2,4.5C150.3,291.9,147.8,292.5,145.1,292.5
		L145.1,292.5z M144.2,264.6c-2,0-3.6,0.7-4.9,2.1s-2,3.4-2.4,5.9h14V272c-0.2-2.5-0.8-4.3-2-5.6
		C147.9,265.2,146.3,264.6,144.2,264.6L144.2,264.6z"/>
	<path class="st3" d="M183.5,266c-1-0.2-2-0.2-3-0.2c-3.4,0-5.6,1.3-6.8,3.9v22.3h-7.3v-32.6h7l0.2,3.6c1.8-2.8,4.2-4.2,7.3-4.2
		c1,0,1.9,0.1,2.6,0.4L183.5,266L183.5,266z"/>
	<path class="st3" d="M208.9,283.1c0-1.3-0.5-2.3-1.6-3c-1.1-0.7-2.9-1.3-5.3-1.8c-2.5-0.5-4.6-1.2-6.2-2c-3.7-1.8-5.5-4.3-5.5-7.7
		c0-2.8,1.2-5.2,3.6-7c2.4-1.9,5.4-2.8,9-2.8c3.9,0,7,1,9.5,2.9s3.6,4.4,3.6,7.5h-7.3c0-1.4-0.5-2.6-1.6-3.5c-1-0.9-2.4-1.4-4.2-1.4
		c-1.6,0-2.9,0.4-3.9,1.1c-1,0.7-1.5,1.7-1.5,3c0,1.1,0.5,2,1.4,2.6c0.9,0.6,2.9,1.2,5.7,1.9c2.9,0.6,5.1,1.4,6.8,2.3
		c1.6,0.9,2.8,1.9,3.6,3.1c0.8,1.2,1.2,2.7,1.2,4.5c0,2.9-1.2,5.3-3.6,7.1c-2.4,1.8-5.6,2.7-9.6,2.7c-2.7,0-5.1-0.5-7.1-1.4
		c-2.1-1-3.7-2.3-4.9-4c-1.2-1.7-1.7-3.5-1.7-5.4h7.1c0.1,1.7,0.8,3.1,2,4c1.2,0.9,2.8,1.4,4.8,1.4c2,0,3.4-0.4,4.4-1.1
		C208.4,285.2,208.9,284.2,208.9,283.1L208.9,283.1z"/>
	<path class="st3" d="M224.4,250.8c0-1.1,0.4-2.1,1.1-2.8c0.7-0.7,1.7-1.1,3.1-1.1s2.3,0.4,3.1,1.1c0.7,0.7,1.1,1.7,1.1,2.8
		s-0.4,2-1.1,2.8c-0.7,0.7-1.7,1.1-3.1,1.1s-2.3-0.4-3.1-1.1C224.8,252.9,224.4,251.9,224.4,250.8z M232.2,291.9h-7.3v-32.6h7.3
		V291.9z"/>
	<path class="st3" d="M251.7,251.4v7.9h5.8v5.4h-5.8v18.2c0,1.2,0.2,2.1,0.7,2.7s1.4,0.8,2.6,0.8c0.8,0,1.7-0.1,2.6-0.3v5.7
		c-1.7,0.5-3.3,0.7-4.8,0.7c-5.6,0-8.4-3.1-8.4-9.3v-18.5H239v-5.4h5.4v-7.9L251.7,251.4L251.7,251.4z"/>
	<path class="st3" d="M278,281.4l6.6-22.1h7.8l-13,37.5c-2,5.5-5.4,8.2-10.1,8.2c-1.1,0-2.2-0.2-3.5-0.5v-5.7l1.4,0.1
		c1.9,0,3.2-0.3,4.2-1c0.9-0.7,1.7-1.8,2.2-3.4l1.1-2.8l-11.5-32.4h7.9L278,281.4L278,281.4z"/>
	<path class="st3" d="M316.1,275.3c0-3.2,0.6-6.1,1.9-8.6c1.3-2.6,3-4.5,5.3-5.9c2.3-1.4,4.9-2.1,7.9-2.1c4.4,0,8,1.4,10.7,4.2
		c2.7,2.8,4.2,6.6,4.4,11.3l0,1.7c0,3.2-0.6,6.1-1.9,8.6c-1.2,2.5-3,4.5-5.3,5.9c-2.3,1.4-5,2.1-8,2.1c-4.6,0-8.3-1.5-11-4.6
		c-2.8-3.1-4.1-7.2-4.1-12.3L316.1,275.3L316.1,275.3z M323.4,275.9c0,3.4,0.7,6,2.1,7.9c1.4,1.9,3.3,2.8,5.8,2.8
		c2.5,0,4.4-1,5.8-2.9c1.4-1.9,2.1-4.8,2.1-8.5c0-3.3-0.7-5.9-2.1-7.8c-1.4-1.9-3.3-2.9-5.8-2.9c-2.4,0-4.3,0.9-5.7,2.8
		S323.4,272.2,323.4,275.9z"/>
	<path class="st3" d="M356.6,291.9v-27.2h-5v-5.4h5v-3c0-3.6,1-6.4,3-8.4s4.8-3,8.4-3c1.3,0,2.6,0.2,4.1,0.5l-0.2,5.7
		c-0.8-0.2-1.7-0.2-2.8-0.2c-3.5,0-5.2,1.8-5.2,5.4v2.9h6.6v5.4h-6.6v27.2L356.6,291.9L356.6,291.9z"/>
	<path class="st3" d="M421.9,281.7h-17l-3.6,10.2h-7.9L410,248h6.8l16.6,43.9h-8L421.9,281.7L421.9,281.7z M407.1,275.6h12.7
		l-6.4-18.2L407.1,275.6L407.1,275.6z"/>
	<path class="st3" d="M469.1,275.9c0,5-1.1,9.1-3.4,12.1s-5.4,4.5-9.2,4.5c-3.6,0-6.4-1.2-8.6-3.5v15.5h-7.3v-45.1h6.7l0.3,3.3
		c2.2-2.6,5.1-3.9,8.8-3.9c4,0,7.1,1.5,9.4,4.4c2.3,3,3.4,7.1,3.4,12.3L469.1,275.9L469.1,275.9z M461.8,275.3
		c0-3.3-0.6-5.8-1.9-7.8c-1.3-1.9-3.1-2.9-5.6-2.9c-3,0-5.1,1.2-6.4,3.7v14.5c1.3,2.5,3.5,3.8,6.5,3.8c2.3,0,4.2-0.9,5.5-2.8
		C461.2,282,461.8,279.1,461.8,275.3L461.8,275.3z"/>
	<path class="st3" d="M506.2,275.9c0,5-1.1,9.1-3.4,12.1s-5.4,4.5-9.2,4.5c-3.6,0-6.4-1.2-8.6-3.5v15.5h-7.3v-45.1h6.7l0.3,3.3
		c2.2-2.6,5.1-3.9,8.8-3.9c4,0,7.1,1.5,9.4,4.4c2.3,3,3.4,7.1,3.4,12.3L506.2,275.9L506.2,275.9z M499,275.3c0-3.3-0.6-5.8-1.9-7.8
		c-1.3-1.9-3.1-2.9-5.6-2.9c-3,0-5.1,1.2-6.4,3.7v14.5c1.3,2.5,3.5,3.8,6.5,3.8c2.3,0,4.2-0.9,5.5-2.8
		C498.3,282,499,279.1,499,275.3L499,275.3z"/>
	<path class="st3" d="M522.4,291.9h-7.3v-46.3h7.3V291.9z"/>
	<path class="st3" d="M532.3,250.8c0-1.1,0.4-2.1,1.1-2.8s1.7-1.1,3.1-1.1c1.3,0,2.3,0.4,3.1,1.1c0.7,0.7,1.1,1.7,1.1,2.8
		s-0.4,2-1.1,2.8c-0.7,0.7-1.7,1.1-3.1,1.1c-1.3,0-2.3-0.4-3.1-1.1C532.6,252.9,532.3,251.9,532.3,250.8z M540.1,291.9h-7.3v-32.6
		h7.3V291.9z"/>
	<path class="st3" d="M564.2,292.5c-4.6,0-8.4-1.5-11.3-4.4c-2.9-2.9-4.3-6.8-4.3-11.7v-0.9c0-3.3,0.6-6.2,1.9-8.7
		c1.2-2.6,3-4.6,5.3-6c2.3-1.4,4.8-2.1,7.6-2.1c4.4,0,7.9,1.4,10.3,4.2c2.4,2.8,3.6,6.8,3.6,12v3H556c0.2,2.7,1.1,4.8,2.7,6.4
		c1.6,1.6,3.6,2.3,5.9,2.3c3.4,0,6.1-1.4,8.2-4.1l3.9,3.8c-1.3,1.9-3.1,3.5-5.2,4.5C569.4,291.9,567,292.5,564.2,292.5L564.2,292.5z
		 M563.4,264.6c-2,0-3.6,0.7-4.9,2.1s-2,3.4-2.4,5.9h14V272c-0.2-2.5-0.8-4.3-2-5.6C567,265.2,565.4,264.6,563.4,264.6L563.4,264.6z
		"/>
	<path class="st3" d="M584.2,275.4c0-5,1.2-9.1,3.5-12.1c2.3-3,5.4-4.6,9.4-4.6c3.5,0,6.2,1.2,8.4,3.6v-16.7h7.3v46.3h-6.6l-0.4-3.4
		c-2.2,2.6-5.1,4-8.8,4c-3.7,0-6.9-1.5-9.3-4.6S584.2,280.6,584.2,275.4L584.2,275.4z M591.5,276c0,3.3,0.6,5.9,1.9,7.8
		c1.3,1.9,3.1,2.8,5.4,2.8c3,0,5.2-1.3,6.6-4v-13.9c-1.3-2.6-3.5-3.9-6.5-3.9c-2.4,0-4.2,0.9-5.5,2.8
		C592.2,269.4,591.5,272.2,591.5,276L591.5,276z"/>
	<path class="st3" d="M664.9,280.6c0-1.9-0.7-3.4-2-4.5c-1.4-1-3.8-2.1-7.3-3.2s-6.4-2.2-8.4-3.6c-4-2.5-6-5.8-6-9.8
		c0-3.5,1.4-6.4,4.3-8.7s6.6-3.4,11.2-3.4c3.1,0,5.8,0.6,8.2,1.7c2.4,1.1,4.3,2.7,5.6,4.8c1.4,2.1,2,4.4,2,6.9h-7.6
		c0-2.3-0.7-4.1-2.2-5.4c-1.4-1.3-3.5-1.9-6.2-1.9c-2.5,0-4.4,0.5-5.8,1.6s-2.1,2.6-2.1,4.5c0,1.6,0.7,3,2.2,4
		c1.5,1.1,3.9,2.1,7.3,3.1c3.4,1,6.2,2.2,8.2,3.5c2.1,1.3,3.6,2.8,4.5,4.5c1,1.7,1.4,3.6,1.4,5.9c0,3.7-1.4,6.6-4.2,8.7
		c-2.8,2.2-6.6,3.2-11.4,3.2c-3.2,0-6.1-0.6-8.8-1.8s-4.7-2.8-6.2-4.9c-1.5-2.1-2.2-4.5-2.2-7.2h7.6c0,2.5,0.8,4.4,2.5,5.8
		c1.6,1.4,4,2,7.1,2c2.6,0,4.7-0.5,6-1.6C664.2,283.8,664.9,282.4,664.9,280.6L664.9,280.6z"/>
	<path class="st3" d="M694.4,286.7c1.8,0,3.3-0.5,4.5-1.6c1.2-1.1,1.9-2.4,1.9-3.9h6.9c-0.1,2-0.7,3.9-1.9,5.7
		c-1.2,1.8-2.8,3.1-4.8,4.2c-2,1-4.2,1.5-6.6,1.5c-4.6,0-8.2-1.5-10.9-4.4c-2.7-3-4-7-4-12.2v-0.8c0-5,1.3-8.9,4-11.9
		c2.6-3,6.3-4.5,10.9-4.5c3.9,0,7,1.1,9.5,3.4c2.4,2.3,3.7,5.2,3.8,8.9h-6.9c-0.1-1.9-0.7-3.4-1.9-4.6c-1.2-1.2-2.7-1.8-4.6-1.8
		c-2.4,0-4.2,0.9-5.5,2.6c-1.3,1.7-1.9,4.3-2,7.8v1.2c0,3.5,0.6,6.2,1.9,7.9C690.2,285.8,692,286.7,694.4,286.7L694.4,286.7z"/>
	<path class="st3" d="M715.5,250.8c0-1.1,0.4-2.1,1.1-2.8c0.7-0.7,1.7-1.1,3.1-1.1c1.3,0,2.3,0.4,3.1,1.1s1.1,1.7,1.1,2.8
		s-0.4,2-1.1,2.8s-1.7,1.1-3.1,1.1c-1.3,0-2.3-0.4-3.1-1.1C715.8,252.9,715.5,251.9,715.5,250.8z M723.3,291.9H716v-32.6h7.3V291.9z
		"/>
	<path class="st3" d="M747.4,292.5c-4.6,0-8.4-1.5-11.3-4.4c-2.9-2.9-4.3-6.8-4.3-11.7v-0.9c0-3.3,0.6-6.2,1.9-8.7
		c1.2-2.6,3-4.6,5.3-6c2.3-1.4,4.8-2.1,7.6-2.1c4.4,0,7.9,1.4,10.3,4.2c2.4,2.8,3.6,6.8,3.6,12v3h-21.3c0.2,2.7,1.1,4.8,2.7,6.4
		c1.6,1.6,3.6,2.3,5.9,2.3c3.4,0,6.1-1.4,8.2-4.1l3.9,3.8c-1.3,1.9-3.1,3.5-5.2,4.5C752.6,291.9,750.2,292.5,747.4,292.5
		L747.4,292.5z M746.6,264.6c-2,0-3.6,0.7-4.9,2.1s-2,3.4-2.4,5.9h14V272c-0.2-2.5-0.8-4.3-2-5.6
		C750.2,265.2,748.6,264.6,746.6,264.6L746.6,264.6z"/>
	<path class="st3" d="M775.6,259.3l0.2,3.8c2.4-2.9,5.6-4.4,9.5-4.4c6.8,0,10.3,3.9,10.4,11.7v21.5h-7.3v-21.1
		c0-2.1-0.5-3.6-1.3-4.6c-0.9-1-2.3-1.5-4.4-1.5c-3,0-5.1,1.3-6.6,4v23.2h-7.3v-32.6L775.6,259.3L775.6,259.3z"/>
	<path class="st3" d="M818.8,286.7c1.8,0,3.3-0.5,4.5-1.6c1.2-1.1,1.9-2.4,1.9-3.9h6.9c-0.1,2-0.7,3.9-1.9,5.7
		c-1.2,1.8-2.8,3.1-4.8,4.2c-2,1-4.2,1.5-6.6,1.5c-4.6,0-8.2-1.5-10.9-4.4c-2.7-3-4-7-4-12.2v-0.8c0-5,1.3-8.9,4-11.9
		s6.3-4.5,10.9-4.5c3.9,0,7,1.1,9.5,3.4c2.4,2.3,3.7,5.2,3.8,8.9h-6.9c-0.1-1.9-0.7-3.4-1.9-4.6c-1.2-1.2-2.7-1.8-4.6-1.8
		c-2.4,0-4.2,0.9-5.5,2.6c-1.3,1.7-1.9,4.3-2,7.8v1.2c0,3.5,0.6,6.2,1.9,7.9C814.6,285.8,816.4,286.7,818.8,286.7L818.8,286.7z"/>
	<path class="st3" d="M854.4,292.5c-4.6,0-8.4-1.5-11.3-4.4c-2.9-2.9-4.3-6.8-4.3-11.7v-0.9c0-3.3,0.6-6.2,1.9-8.7
		c1.2-2.6,3-4.6,5.3-6c2.3-1.4,4.8-2.1,7.6-2.1c4.4,0,7.9,1.4,10.3,4.2c2.4,2.8,3.6,6.8,3.6,12v3h-21.3c0.2,2.7,1.1,4.8,2.7,6.4
		c1.6,1.6,3.6,2.3,5.9,2.3c3.4,0,6.1-1.4,8.2-4.1l3.9,3.8c-1.3,1.9-3.1,3.5-5.2,4.5C859.5,291.9,857.1,292.5,854.4,292.5
		L854.4,292.5z M853.5,264.6c-2,0-3.6,0.7-4.9,2.1c-1.2,1.4-2,3.4-2.4,5.9h14V272c-0.2-2.5-0.8-4.3-2-5.6
		C857.1,265.2,855.5,264.6,853.5,264.6L853.5,264.6z"/>
	<path class="st3" d="M893.5,283.1c0-1.3-0.5-2.3-1.6-3c-1.1-0.7-2.9-1.3-5.3-1.8c-2.5-0.5-4.6-1.2-6.2-2c-3.7-1.8-5.5-4.3-5.5-7.7
		c0-2.8,1.2-5.2,3.6-7c2.4-1.9,5.4-2.8,9-2.8c3.9,0,7,1,9.5,2.9c2.4,1.9,3.6,4.4,3.6,7.5h-7.3c0-1.4-0.5-2.6-1.6-3.5
		s-2.4-1.4-4.2-1.4c-1.6,0-2.9,0.4-3.9,1.1c-1,0.7-1.5,1.7-1.5,3c0,1.1,0.5,2,1.4,2.6c0.9,0.6,2.9,1.2,5.7,1.9
		c2.9,0.6,5.1,1.4,6.8,2.3c1.6,0.9,2.8,1.9,3.6,3.1c0.8,1.2,1.2,2.7,1.2,4.5c0,2.9-1.2,5.3-3.6,7.1c-2.4,1.8-5.6,2.7-9.6,2.7
		c-2.7,0-5.1-0.5-7.1-1.4c-2.1-1-3.7-2.3-4.9-4c-1.2-1.7-1.7-3.5-1.7-5.4h7.1c0.1,1.7,0.8,3.1,2,4c1.2,0.9,2.8,1.4,4.8,1.4
		c2,0,3.4-0.4,4.4-1.1C893,285.2,893.5,284.2,893.5,283.1L893.5,283.1z"/>
</g>
</svg>
