<svg xmlns="http://www.w3.org/2000/svg" viewBox="0 0 177.28 52.67"><defs><style>.cls-1{fill:#002f5d;}</style></defs><g id="Ebene_2" data-name="Ebene 2"><g id="Ebene_1-2" data-name="Ebene 1"><path class="cls-1" d="M120.12,0h-6.28V44.64a8,8,0,0,0,8,8h6.31V8.05A8.06,8.06,0,0,0,120.12,0Z"/><path class="cls-1" d="M20.89,8.06a8.05,8.05,0,0,0-8-8.06H6.56V12.17H0V25.11H3.2a3.35,3.35,0,0,1,3.35,3.34v4A20.18,20.18,0,0,0,26.78,52.66c.32,0,.65,0,1,0l.62,0V40.3l-.58-.06a7.87,7.87,0,0,1-6.9-7.8V25.11h7.48V12.17H20.89Z"/><path class="cls-1" d="M170.86,17.57c-4.83-4.3-11.65-6.33-17.45-4.25a25,25,0,0,0-6.08,3.12V8.05a8,8,0,0,0-8-8H133V52.67h11.29l1-1.1a3,3,0,0,1,3.54-.73,19.47,19.47,0,0,0,7.27,1.75,20.19,20.19,0,0,0,21.21-20.21A20,20,0,0,0,170.86,17.57ZM156.93,41a8.76,8.76,0,0,1-6.57-2,8.71,8.71,0,0,1,0-13.15,8.76,8.76,0,0,1,6.57-2,8.65,8.65,0,0,1,0,17.17Z"/><path class="cls-1" d="M109.25,32.37V20.76a8.06,8.06,0,0,0-8.06-8.06h-.07l-6.24.05V32.37a8.39,8.39,0,0,1-1.21,4.4c-.08.13-.16.26-.25.39l-.15.23c-.13.19-.28.37-.42.55l0,0c-.16.19-.33.38-.51.56h0c-.14.13-.27.27-.41.39l-.13.1A8.33,8.33,0,0,1,87.26,41a9.48,9.48,0,0,1-1.07,0H86l-.53,0h-.16a8,8,0,0,1-2.72-.79,8.83,8.83,0,0,1-1.91-1.22,9.84,9.84,0,0,1-3.44-6.41c-.71-5.29-1.26-10-3.7-13.09-3.64-4.65-8.91-6.72-12.48-6.72-5.65,0-10.76,2-13.31,6.53V8.05a8,8,0,0,0-8-8h-6.3V52.67H47.78V32.38h0a9.13,9.13,0,0,1,.31-2.21,8.63,8.63,0,0,1,2.68-4.36,7.93,7.93,0,0,1,1-.73,8.38,8.38,0,0,1,1-.55,8.85,8.85,0,0,1,4.53-.74c.15,0,.3.05.45.07,4.35.7,6.88,4.12,7.16,8.48.4,6.19,2.41,11.13,6.42,14.83a20.4,20.4,0,0,0,14.79,5.41,19.47,19.47,0,0,0,7.27-1.75,3.05,3.05,0,0,1,3.55.72l1,1.11h11.29V32.37Z"/></g></g></svg>