<svg xmlns="http://www.w3.org/2000/svg" viewBox="0 0 214.72 95.62"><defs><style>.cls-1{fill:#fff;}</style></defs><g id="Ebene_2" data-name="Ebene 2"><g id="Ebene_1-2" data-name="Ebene 1"><path class="cls-1" d="M120.12,0h-6.28V44.64a8,8,0,0,0,8,8h6.31V8.05A8.06,8.06,0,0,0,120.12,0Z"/><path class="cls-1" d="M20.89,8.06a8.05,8.05,0,0,0-8-8.06H6.56V12.17H0V25.11H3.2a3.35,3.35,0,0,1,3.35,3.34v4A20.18,20.18,0,0,0,26.78,52.66c.32,0,.65,0,1,0l.62,0V40.3l-.58-.06a7.87,7.87,0,0,1-6.9-7.8V25.11h7.48V12.17H20.89Z"/><path class="cls-1" d="M170.86,17.57c-4.83-4.3-11.65-6.33-17.45-4.25a25,25,0,0,0-6.08,3.12V8.05a8,8,0,0,0-8-8H133V52.67h11.29l1-1.1a3,3,0,0,1,3.54-.73,19.47,19.47,0,0,0,7.27,1.75,20.19,20.19,0,0,0,21.21-20.21A20,20,0,0,0,170.86,17.57ZM156.93,41a8.76,8.76,0,0,1-6.57-2,8.71,8.71,0,0,1,0-13.15,8.76,8.76,0,0,1,6.57-2,8.65,8.65,0,0,1,0,17.17Z"/><path class="cls-1" d="M109.25,32.37V20.76a8.06,8.06,0,0,0-8.06-8.06h-.07l-6.24.05V32.37a8.39,8.39,0,0,1-1.21,4.4c-.08.13-.16.26-.25.39l-.15.23c-.13.19-.28.37-.42.55l0,0c-.16.19-.33.38-.51.56h0c-.14.13-.27.27-.41.39l-.13.1A8.33,8.33,0,0,1,87.26,41a9.48,9.48,0,0,1-1.07,0H86l-.53,0h-.16a8,8,0,0,1-2.72-.79,8.83,8.83,0,0,1-1.91-1.22,9.84,9.84,0,0,1-3.44-6.41c-.71-5.29-1.26-10-3.7-13.09-3.64-4.65-8.91-6.72-12.48-6.72-5.65,0-10.76,2-13.31,6.53V8.05a8,8,0,0,0-8-8h-6.3V52.67H47.78V32.38h0a9.13,9.13,0,0,1,.31-2.21,8.63,8.63,0,0,1,2.68-4.36,7.93,7.93,0,0,1,1-.73,8.38,8.38,0,0,1,1-.55,8.85,8.85,0,0,1,4.53-.74c.15,0,.3.05.45.07,4.35.7,6.88,4.12,7.16,8.48.4,6.19,2.41,11.13,6.42,14.83a20.4,20.4,0,0,0,14.79,5.41,19.47,19.47,0,0,0,7.27-1.75,3.05,3.05,0,0,1,3.55.72l1,1.11h11.29V32.37Z"/><path class="cls-1" d="M41.88,68.31H38.55v9.17H36.71V68.31H33.42v-1.5h8.46Z"/><path class="cls-1" d="M44.86,70.42a2.91,2.91,0,0,1,1-.75,2.81,2.81,0,0,1,1.24-.26,3.23,3.23,0,0,1,1.06.16,2,2,0,0,1,.81.51,2.45,2.45,0,0,1,.52.93,4.51,4.51,0,0,1,.18,1.37v5.1H47.85V72.36a1.61,1.61,0,0,0-.35-1.16,1.5,1.5,0,0,0-1-.34,1.71,1.71,0,0,0-1,.26,1.85,1.85,0,0,0-.64.69v5.67H43.08V66.23h1.78Z"/><path class="cls-1" d="M56.23,76.7a2.51,2.51,0,0,1-.92.68,3.65,3.65,0,0,1-2.37.08,2,2,0,0,1-.82-.52,2.44,2.44,0,0,1-.54-.92,4.08,4.08,0,0,1-.19-1.34V69.55h1.78v5.14a2.12,2.12,0,0,0,.1.72,1.12,1.12,0,0,0,.28.45.83.83,0,0,0,.4.24,1.49,1.49,0,0,0,.47.07,2.19,2.19,0,0,0,1.12-.25,1.54,1.54,0,0,0,.63-.68V69.55H58v7.93H56.28Zm-4.14-9.23a.85.85,0,0,1,.25-.61.89.89,0,0,1,.68-.25.92.92,0,0,1,.68.25.85.85,0,0,1,.25.61.87.87,0,0,1-.25.62,1,1,0,0,1-.68.25.93.93,0,0,1-.68-.25A.87.87,0,0,1,52.09,67.47Zm3.34,0a.89.89,0,0,1,.25-.62,1,1,0,0,1,.68-.24.92.92,0,0,1,.68.24.84.84,0,0,1,.25.62.81.81,0,0,1-.25.61.89.89,0,0,1-.68.25.92.92,0,0,1-.68-.25A.85.85,0,0,1,55.43,67.48Z"/><path class="cls-1" d="M63.91,71.18l-.35-.05h-.37a1.94,1.94,0,0,0-1,.25,1.45,1.45,0,0,0-.6.69v5.42H59.76V69.55h1.7l0,.89a2.25,2.25,0,0,1,.74-.76,1.94,1.94,0,0,1,1-.27l.35,0a1,1,0,0,1,.28.07Z"/><path class="cls-1" d="M65,67.49a1,1,0,0,1,.26-.68,1,1,0,0,1,.75-.27,1,1,0,0,1,.74.27.93.93,0,0,1,.27.68.89.89,0,0,1-.27.67,1,1,0,0,1-.74.27,1,1,0,0,1-.75-.27A.92.92,0,0,1,65,67.49Zm1.89,10H65.15V69.55h1.78Z"/><path class="cls-1" d="M70.52,69.55l0,.92a3,3,0,0,1,1-.79,3.05,3.05,0,0,1,1.3-.27,3.39,3.39,0,0,1,1,.15,2,2,0,0,1,.79.51,2.4,2.4,0,0,1,.51.92,4.51,4.51,0,0,1,.18,1.37v5.12H73.62V72.34a2.31,2.31,0,0,0-.09-.69,1.1,1.1,0,0,0-.27-.46,1.09,1.09,0,0,0-.43-.25,2.23,2.23,0,0,0-.6-.08,1.69,1.69,0,0,0-1,.27,1.94,1.94,0,0,0-.65.71v5.64H68.85V69.55Z"/><path class="cls-1" d="M76.9,73.46a5.73,5.73,0,0,1,.22-1.65,3.93,3.93,0,0,1,.63-1.28,2.81,2.81,0,0,1,2.32-1.12,3,3,0,0,1,1.24.24,2.52,2.52,0,0,1,.89.7l.08-.8h1.61v7.71a3.56,3.56,0,0,1-.27,1.42,3,3,0,0,1-.73,1,3.18,3.18,0,0,1-1.14.64,4.45,4.45,0,0,1-1.45.23,5.11,5.11,0,0,1-.73-.07,4.4,4.4,0,0,1-.82-.23,3.64,3.64,0,0,1-.78-.41,2.61,2.61,0,0,1-.64-.6l.85-1.07a2.7,2.7,0,0,0,.95.74,2.64,2.64,0,0,0,1.07.23,2,2,0,0,0,1.4-.48,1.84,1.84,0,0,0,.51-1.41v-.53a2.38,2.38,0,0,1-.88.63,2.87,2.87,0,0,1-1.17.22,2.81,2.81,0,0,1-1.31-.3,3,3,0,0,1-1-.84,4.08,4.08,0,0,1-.63-1.27,5.43,5.43,0,0,1-.22-1.6Zm1.77.15a4.48,4.48,0,0,0,.11,1,2.61,2.61,0,0,0,.33.82,1.66,1.66,0,0,0,.57.55,1.57,1.57,0,0,0,.83.2,1.72,1.72,0,0,0,1-.25,1.9,1.9,0,0,0,.62-.67V71.76a2,2,0,0,0-.62-.66,1.8,1.8,0,0,0-1-.24,1.58,1.58,0,0,0-1.41.77,2.66,2.66,0,0,0-.34.82,4.6,4.6,0,0,0-.11,1Z"/><path class="cls-1" d="M89.21,77.62a4,4,0,0,1-1.59-.29,3.4,3.4,0,0,1-1.19-.81,3.34,3.34,0,0,1-.75-1.21,4.23,4.23,0,0,1-.27-1.52V73.5a4.85,4.85,0,0,1,.28-1.7,4,4,0,0,1,.76-1.28,3.35,3.35,0,0,1,1.14-.83A3.51,3.51,0,0,1,89,69.41a3.62,3.62,0,0,1,1.5.28,3,3,0,0,1,1.06.81,3.53,3.53,0,0,1,.62,1.24,5.65,5.65,0,0,1,.2,1.58v.76H87.21a2.86,2.86,0,0,0,.19.85,2.2,2.2,0,0,0,.43.67,1.92,1.92,0,0,0,.64.44,2.06,2.06,0,0,0,.84.16,2.4,2.4,0,0,0,1.14-.26,2.69,2.69,0,0,0,.85-.73l1,.92a3.35,3.35,0,0,1-.47.55,3.29,3.29,0,0,1-.66.48,4,4,0,0,1-.86.34A4.29,4.29,0,0,1,89.21,77.62ZM89,70.83a1.52,1.52,0,0,0-1.18.52,2.6,2.6,0,0,0-.57,1.42h3.39v-.13a3.61,3.61,0,0,0-.12-.67,1.65,1.65,0,0,0-.28-.58,1.4,1.4,0,0,0-.49-.41A1.7,1.7,0,0,0,89,70.83Z"/><path class="cls-1" d="M97.91,71.18l-.35-.05h-.37a1.94,1.94,0,0,0-1,.25,1.45,1.45,0,0,0-.6.69v5.42H93.76V69.55h1.7l0,.89a2.27,2.27,0,0,1,.75-.76,1.94,1.94,0,0,1,1-.27l.35,0a1,1,0,0,1,.28.07Z"/><path class="cls-1" d="M110.75,66.81V74a3.81,3.81,0,0,1-.32,1.6,3.17,3.17,0,0,1-.85,1.15,3.47,3.47,0,0,1-1.27.69,4.89,4.89,0,0,1-1.55.23,5,5,0,0,1-1.58-.23,3.47,3.47,0,0,1-1.27-.69,3.24,3.24,0,0,1-.83-1.15,4,4,0,0,1-.3-1.6V66.81h1.84V74a2.84,2.84,0,0,0,.15,1,1.84,1.84,0,0,0,.43.69,1.78,1.78,0,0,0,.68.4,3,3,0,0,0,.88.12,3,3,0,0,0,.89-.12,1.78,1.78,0,0,0,.68-.4,1.83,1.83,0,0,0,.42-.69,2.84,2.84,0,0,0,.15-1V66.81Z"/><path class="cls-1" d="M114.2,69.55l.06.92a2.85,2.85,0,0,1,1-.79,3.05,3.05,0,0,1,1.3-.27,3.39,3.39,0,0,1,1,.15,2,2,0,0,1,.79.51,2.4,2.4,0,0,1,.51.92,4.51,4.51,0,0,1,.18,1.37v5.12H117.3V72.34a2.31,2.31,0,0,0-.09-.69,1.1,1.1,0,0,0-.27-.46,1,1,0,0,0-.43-.25,2.23,2.23,0,0,0-.6-.08,1.69,1.69,0,0,0-1,.27,1.84,1.84,0,0,0-.64.71v5.64h-1.78V69.55Z"/><path class="cls-1" d="M120.9,67.49a.92.92,0,0,1,.26-.68,1,1,0,0,1,.74-.27,1,1,0,0,1,.75.27,1,1,0,0,1,.26.68.92.92,0,0,1-.26.67,1,1,0,0,1-.75.27,1,1,0,0,1-.74-.27A.88.88,0,0,1,120.9,67.49Zm1.89,10H121V69.55h1.78Z"/><path class="cls-1" d="M127.52,75.22l1.67-5.67H131l-2.74,7.93h-1.55L124,69.55h1.85Z"/><path class="cls-1" d="M135.54,77.62a4,4,0,0,1-1.58-.29,3.43,3.43,0,0,1-2-2,4.23,4.23,0,0,1-.27-1.52V73.5a5.09,5.09,0,0,1,.28-1.7,4,4,0,0,1,.76-1.28,3.56,3.56,0,0,1,1.14-.83,3.51,3.51,0,0,1,1.41-.28,3.62,3.62,0,0,1,1.5.28,3,3,0,0,1,1.06.81,3.53,3.53,0,0,1,.62,1.24,5.64,5.64,0,0,1,.21,1.58v.76h-5.18a2.86,2.86,0,0,0,.19.85,2.2,2.2,0,0,0,.43.67,1.92,1.92,0,0,0,.64.44,2.06,2.06,0,0,0,.84.16,2.47,2.47,0,0,0,1.15-.26,2.77,2.77,0,0,0,.84-.73l1,.92a2.93,2.93,0,0,1-.47.55,3.29,3.29,0,0,1-.66.48,4.08,4.08,0,0,1-.85.34A4.43,4.43,0,0,1,135.54,77.62Zm-.21-6.79a1.52,1.52,0,0,0-1.19.52,2.6,2.6,0,0,0-.57,1.42H137v-.13a3.61,3.61,0,0,0-.11-.67,1.86,1.86,0,0,0-.29-.58,1.31,1.31,0,0,0-.49-.41A1.65,1.65,0,0,0,135.33,70.83Z"/><path class="cls-1" d="M144.25,71.18l-.36-.05h-.37a1.94,1.94,0,0,0-1.05.25,1.5,1.5,0,0,0-.6.69v5.42h-1.78V69.55h1.7l.05.89a2.25,2.25,0,0,1,.74-.76,2,2,0,0,1,1-.27l.35,0a1,1,0,0,1,.28.07Z"/><path class="cls-1" d="M149.81,75.32a1,1,0,0,0-.06-.35.75.75,0,0,0-.24-.31,2.74,2.74,0,0,0-.52-.27,5.88,5.88,0,0,0-.87-.23,8.41,8.41,0,0,1-1.16-.33,3.48,3.48,0,0,1-.9-.48,2.13,2.13,0,0,1-.58-.66,1.82,1.82,0,0,1-.21-.88,2.1,2.1,0,0,1,.21-.92,2.4,2.4,0,0,1,.62-.77,2.94,2.94,0,0,1,1-.52,3.89,3.89,0,0,1,1.27-.19,4.19,4.19,0,0,1,1.33.19,3.17,3.17,0,0,1,1,.53,2.47,2.47,0,0,1,.63.81,2.34,2.34,0,0,1,.21,1h-1.78a1.32,1.32,0,0,0-.08-.44,1.25,1.25,0,0,0-.27-.39,1.15,1.15,0,0,0-.43-.26,1.66,1.66,0,0,0-.61-.1,2,2,0,0,0-.58.08,1.38,1.38,0,0,0-.42.22.82.82,0,0,0-.24.32.8.8,0,0,0-.08.37.83.83,0,0,0,.07.36.74.74,0,0,0,.26.27,2.34,2.34,0,0,0,.5.24,6.42,6.42,0,0,0,.79.2,10.37,10.37,0,0,1,1.24.35,3.46,3.46,0,0,1,.92.48,1.94,1.94,0,0,1,.57.68,1.87,1.87,0,0,1,.2.92,2.13,2.13,0,0,1-.22,1,2.32,2.32,0,0,1-.65.75,3,3,0,0,1-1,.5,4.86,4.86,0,0,1-1.32.17,3.94,3.94,0,0,1-1.43-.23,3.3,3.3,0,0,1-1.06-.6,2.61,2.61,0,0,1-.64-.85,2.31,2.31,0,0,1-.21-1h1.73a1.37,1.37,0,0,0,.16.61,1.25,1.25,0,0,0,.38.41,1.68,1.68,0,0,0,.51.22,2.32,2.32,0,0,0,.59.07,1.8,1.8,0,0,0,1.07-.27A.82.82,0,0,0,149.81,75.32Z"/><path class="cls-1" d="M153.12,67.49a.92.92,0,0,1,.26-.68,1,1,0,0,1,.74-.27,1,1,0,0,1,.75.27,1,1,0,0,1,.26.68.92.92,0,0,1-.26.67,1,1,0,0,1-.75.27,1,1,0,0,1-.74-.27A.88.88,0,0,1,153.12,67.49Zm1.89,10h-1.78V69.55H155Z"/><path class="cls-1" d="M159.17,67.63v1.92h1.4v1.32h-1.4v4.42a1.29,1.29,0,0,0,.06.44.56.56,0,0,0,.17.26.5.5,0,0,0,.26.13,1.69,1.69,0,0,0,.33,0l.36,0,.27,0v1.38l-.5.11a4.31,4.31,0,0,1-.68.05,3,3,0,0,1-.81-.11,1.58,1.58,0,0,1-1.08-1.07,2.92,2.92,0,0,1-.16-1V70.87h-1.3V69.55h1.3V67.63Z"/><path class="cls-1" d="M166.67,77.48a1.61,1.61,0,0,1-.12-.33,2.71,2.71,0,0,1-.09-.41,4.32,4.32,0,0,1-.39.34,2.24,2.24,0,0,1-.48.28,2.46,2.46,0,0,1-.56.19,2.7,2.7,0,0,1-.65.07,3.2,3.2,0,0,1-1.09-.18,2.53,2.53,0,0,1-.85-.49,2.38,2.38,0,0,1-.56-.75,2.3,2.3,0,0,1-.2-.94,2.54,2.54,0,0,1,.24-1.13,2.21,2.21,0,0,1,.7-.82,3.34,3.34,0,0,1,1.13-.5,6,6,0,0,1,1.53-.17h1.12v-.52a1.4,1.4,0,0,0-.34-1,1.36,1.36,0,0,0-1.05-.37,1.7,1.7,0,0,0-.57.09,1.4,1.4,0,0,0-.44.22,1.13,1.13,0,0,0-.28.34,1,1,0,0,0-.09.43h-1.78a1.84,1.84,0,0,1,.23-.91,2.37,2.37,0,0,1,.65-.77,3.48,3.48,0,0,1,1-.55,4.08,4.08,0,0,1,1.35-.2,4,4,0,0,1,1.23.17,2.69,2.69,0,0,1,1,.51,2.33,2.33,0,0,1,.63.85,2.78,2.78,0,0,1,.23,1.19v3.52a4,4,0,0,0,.3,1.7v.13Zm-4.09-10a.84.84,0,0,1,.24-.61.91.91,0,0,1,.68-.25.89.89,0,0,1,.68.25.81.81,0,0,1,.25.61.83.83,0,0,1-.25.62.93.93,0,0,1-.68.25,1,1,0,0,1-.68-.25A.86.86,0,0,1,162.58,67.47Zm2.13,8.73a1.81,1.81,0,0,0,.58-.09,2.06,2.06,0,0,0,.48-.21,2.28,2.28,0,0,0,.38-.3,1.9,1.9,0,0,0,.25-.35V73.76h-1a2.59,2.59,0,0,0-1.48.34,1.09,1.09,0,0,0-.5,1,1.06,1.06,0,0,0,.08.45.88.88,0,0,0,.24.36,1.09,1.09,0,0,0,.39.23A1.53,1.53,0,0,0,164.71,76.2Zm1.21-8.72a.84.84,0,0,1,.25-.62.92.92,0,0,1,.68-.24.94.94,0,0,1,.68.24.84.84,0,0,1,.25.62.81.81,0,0,1-.25.61.91.91,0,0,1-.68.25.89.89,0,0,1-.68-.25A.81.81,0,0,1,165.92,67.48Z"/><path class="cls-1" d="M172.28,67.63v1.92h1.4v1.32h-1.4v4.42a1.29,1.29,0,0,0,.06.44.48.48,0,0,0,.16.26.53.53,0,0,0,.26.13,1.72,1.72,0,0,0,.34,0l.35,0,.27,0v1.38l-.5.11a4.17,4.17,0,0,1-.67.05,3,3,0,0,1-.82-.11,1.69,1.69,0,0,1-.65-.38,1.84,1.84,0,0,1-.43-.69,3.17,3.17,0,0,1-.15-1V70.87h-1.31V69.55h1.31V67.63Z"/><path class="cls-1" d="M179.48,75.32a.84.84,0,0,0-.07-.35.75.75,0,0,0-.24-.31,2.46,2.46,0,0,0-.52-.27,5.88,5.88,0,0,0-.87-.23,8.41,8.41,0,0,1-1.16-.33,3.41,3.41,0,0,1-.89-.48,2.16,2.16,0,0,1-.59-.66,1.94,1.94,0,0,1-.21-.88,2.11,2.11,0,0,1,.22-.92,2.24,2.24,0,0,1,.61-.77,3.1,3.1,0,0,1,1-.52,3.85,3.85,0,0,1,1.27-.19,4.27,4.27,0,0,1,1.33.19,3.28,3.28,0,0,1,1,.53,2.31,2.31,0,0,1,.62.81,2.21,2.21,0,0,1,.22,1h-1.78a1.12,1.12,0,0,0-.09-.44,1.4,1.4,0,0,0-.26-.39,1.28,1.28,0,0,0-.44-.26,1.57,1.57,0,0,0-.6-.1,2.05,2.05,0,0,0-.59.08A1.32,1.32,0,0,0,177,71a.85.85,0,0,0-.25.32,1,1,0,0,0-.08.37,1,1,0,0,0,.07.36.74.74,0,0,0,.26.27,2.44,2.44,0,0,0,.51.24,6,6,0,0,0,.79.2,9.68,9.68,0,0,1,1.23.35,3.46,3.46,0,0,1,.92.48,1.87,1.87,0,0,1,.58.68,2,2,0,0,1,.2.92,2.13,2.13,0,0,1-.23,1,2.21,2.21,0,0,1-.65.75,3.08,3.08,0,0,1-1,.5,5,5,0,0,1-1.32.17,4,4,0,0,1-1.44-.23,3.14,3.14,0,0,1-1.05-.6,2.48,2.48,0,0,1-.64-.85,2.17,2.17,0,0,1-.22-1h1.73a1.37,1.37,0,0,0,.17.61,1.23,1.23,0,0,0,.37.41,1.68,1.68,0,0,0,.51.22,2.38,2.38,0,0,0,.59.07,1.78,1.78,0,0,0,1.07-.27A.83.83,0,0,0,179.48,75.32Z"/><path class="cls-1" d="M186.23,73.66h-3.85V72.23h3.85Z"/><path class="cls-1" d="M196.24,76.7a2.55,2.55,0,0,1-.93.68,3.21,3.21,0,0,1-1.3.24,3.29,3.29,0,0,1-1.07-.16,2,2,0,0,1-.82-.52,2.3,2.3,0,0,1-.53-.92,4.07,4.07,0,0,1-.2-1.34V69.55h1.78v5.14a2.1,2.1,0,0,0,.11.72,1.23,1.23,0,0,0,.27.45.88.88,0,0,0,.4.24,1.51,1.51,0,0,0,.48.07,2.12,2.12,0,0,0,1.11-.25,1.56,1.56,0,0,0,.64-.68V69.55H198v7.93h-1.68Z"/><path class="cls-1" d="M201.42,69.55l.05.92a3,3,0,0,1,1-.79,3.13,3.13,0,0,1,1.31-.27,3.28,3.28,0,0,1,1,.15,2,2,0,0,1,.8.51,2.4,2.4,0,0,1,.51.92,4.51,4.51,0,0,1,.18,1.37v5.12h-1.78V72.34a2.31,2.31,0,0,0-.09-.69,1.1,1.1,0,0,0-.27-.46,1.06,1.06,0,0,0-.44-.25,2.1,2.1,0,0,0-.59-.08,1.69,1.69,0,0,0-1,.27,1.86,1.86,0,0,0-.65.71v5.64h-1.78V69.55Z"/><path class="cls-1" d="M207.78,73.46a6.11,6.11,0,0,1,.21-1.65,3.93,3.93,0,0,1,.63-1.28,2.73,2.73,0,0,1,2.28-1.12,2.87,2.87,0,0,1,1.17.22,2.61,2.61,0,0,1,.87.65v-4h1.78V77.48h-1.61l-.09-.82a2.7,2.7,0,0,1-.9.71,2.79,2.79,0,0,1-1.23.25,2.73,2.73,0,0,1-1.29-.3,2.82,2.82,0,0,1-1-.84,3.86,3.86,0,0,1-.62-1.27,5.43,5.43,0,0,1-.22-1.6Zm1.78.15a4.49,4.49,0,0,0,.1,1,2.59,2.59,0,0,0,.31.82,1.61,1.61,0,0,0,.55.55,1.54,1.54,0,0,0,.82.2,1.78,1.78,0,0,0,1-.26,1.91,1.91,0,0,0,.61-.71V71.81a1.86,1.86,0,0,0-.61-.69,1.75,1.75,0,0,0-1-.26,1.57,1.57,0,0,0-.83.21,1.64,1.64,0,0,0-.55.56,2.42,2.42,0,0,0-.32.82,4.61,4.61,0,0,0-.1,1Z"/><path class="cls-1" d="M36,94h4.85v1.48h-6.7V84.81H36Z"/><path class="cls-1" d="M46.85,95.48a1.61,1.61,0,0,1-.12-.33l-.09-.41a2.64,2.64,0,0,1-.39.34,2.43,2.43,0,0,1-.47.28,2.54,2.54,0,0,1-.57.19,2.7,2.7,0,0,1-.65.07,3.2,3.2,0,0,1-1.09-.18,2.63,2.63,0,0,1-.85-.49,2.54,2.54,0,0,1-.56-.75,2.3,2.3,0,0,1-.2-.94,2.54,2.54,0,0,1,.24-1.13,2.15,2.15,0,0,1,.71-.82,3.18,3.18,0,0,1,1.13-.5,5.92,5.92,0,0,1,1.53-.17h1.12v-.52a1.41,1.41,0,0,0-.35-1,1.36,1.36,0,0,0-1.05-.37,1.7,1.7,0,0,0-.57.09,1.34,1.34,0,0,0-.43.22,1,1,0,0,0-.28.34.91.91,0,0,0-.1.43H42a2,2,0,0,1,.23-.91,2.28,2.28,0,0,1,.66-.77,3.25,3.25,0,0,1,1-.55,4.6,4.6,0,0,1,2.58,0,2.65,2.65,0,0,1,1,.51,2.36,2.36,0,0,1,.64.85,2.94,2.94,0,0,1,.23,1.19v3.52a4,4,0,0,0,.3,1.7v.13Zm-2-1.28a1.81,1.81,0,0,0,.58-.09A1.75,1.75,0,0,0,46,93.9a1.94,1.94,0,0,0,.38-.3,2,2,0,0,0,.26-.35V91.76h-1a2.63,2.63,0,0,0-1.49.34,1.11,1.11,0,0,0-.5,1,1.25,1.25,0,0,0,.08.45,1.13,1.13,0,0,0,.24.36,1.05,1.05,0,0,0,.4.23A1.44,1.44,0,0,0,44.89,94.2Z"/><path class="cls-1" d="M51.88,87.55l0,.92a3,3,0,0,1,1-.79,3.05,3.05,0,0,1,1.3-.27,3.39,3.39,0,0,1,1,.15,2,2,0,0,1,.79.51,2.4,2.4,0,0,1,.51.92,4.51,4.51,0,0,1,.18,1.37v5.12H55V90.34a2.31,2.31,0,0,0-.09-.69,1.1,1.1,0,0,0-.27-.46,1.06,1.06,0,0,0-.44-.25,2.1,2.1,0,0,0-.59-.08,1.69,1.69,0,0,0-1,.27,1.86,1.86,0,0,0-.65.71v5.64H50.2V87.55Z"/><path class="cls-1" d="M58.24,91.46a6.11,6.11,0,0,1,.21-1.65,3.93,3.93,0,0,1,.63-1.28,2.77,2.77,0,0,1,1-.83,2.8,2.8,0,0,1,1.31-.29,2.86,2.86,0,0,1,1.16.22,2.61,2.61,0,0,1,.87.65v-4h1.78V95.48H63.57l-.09-.82a2.7,2.7,0,0,1-.9.71,2.79,2.79,0,0,1-1.23.25,2.73,2.73,0,0,1-1.29-.3,2.91,2.91,0,0,1-1-.84,3.86,3.86,0,0,1-.62-1.27,5.43,5.43,0,0,1-.22-1.6Zm1.78.15a4.49,4.49,0,0,0,.1,1,2.59,2.59,0,0,0,.31.82A1.7,1.7,0,0,0,61,94a1.54,1.54,0,0,0,.82.2,1.75,1.75,0,0,0,1-.26,1.91,1.91,0,0,0,.61-.71V89.81a1.78,1.78,0,0,0-.61-.69,1.73,1.73,0,0,0-1-.26,1.51,1.51,0,0,0-.82.21,1.58,1.58,0,0,0-.56.56,2.65,2.65,0,0,0-.32.82,4.61,4.61,0,0,0-.1,1Z"/><path class="cls-1" d="M70.53,95.62A4,4,0,0,1,69,95.33a3.35,3.35,0,0,1-1.2-.81A3.48,3.48,0,0,1,67,93.31a4.23,4.23,0,0,1-.27-1.52V91.5A5.09,5.09,0,0,1,67,89.8a4,4,0,0,1,.76-1.28,3.56,3.56,0,0,1,1.14-.83,3.51,3.51,0,0,1,1.41-.28,3.62,3.62,0,0,1,1.5.28,3,3,0,0,1,1.06.81,3.53,3.53,0,0,1,.62,1.24,5.64,5.64,0,0,1,.21,1.58v.76H68.53a2.86,2.86,0,0,0,.19.85,2.2,2.2,0,0,0,.43.67,2,2,0,0,0,.64.44,2.06,2.06,0,0,0,.84.16,2.47,2.47,0,0,0,1.15-.26,2.77,2.77,0,0,0,.84-.73l1,.92a2.93,2.93,0,0,1-.47.55,3.29,3.29,0,0,1-.66.48,4.08,4.08,0,0,1-.85.34A4.43,4.43,0,0,1,70.53,95.62Zm-.21-6.79a1.52,1.52,0,0,0-1.19.52,2.6,2.6,0,0,0-.57,1.42H72v-.13a3.61,3.61,0,0,0-.11-.67,1.86,1.86,0,0,0-.29-.58,1.31,1.31,0,0,0-.49-.41A1.65,1.65,0,0,0,70.32,88.83Z"/><path class="cls-1" d="M79.53,93.32a1,1,0,0,0-.06-.35.78.78,0,0,0-.25-.31,2.35,2.35,0,0,0-.51-.27,6.64,6.64,0,0,0-.87-.23,8,8,0,0,1-1.16-.33,3.48,3.48,0,0,1-.9-.48,2.13,2.13,0,0,1-.58-.66,1.82,1.82,0,0,1-.21-.88,2.1,2.1,0,0,1,.21-.92,2.36,2.36,0,0,1,.61-.77,3.1,3.1,0,0,1,1-.52,3.89,3.89,0,0,1,1.27-.19,4.23,4.23,0,0,1,1.33.19,3.28,3.28,0,0,1,1,.53,2.47,2.47,0,0,1,.63.81,2.34,2.34,0,0,1,.21,1H79.44a1.12,1.12,0,0,0-.09-.44,1.21,1.21,0,0,0-.26-.39,1.2,1.2,0,0,0-.44-.26,1.57,1.57,0,0,0-.6-.1,2.05,2.05,0,0,0-.59.08,1.45,1.45,0,0,0-.41.22,1,1,0,0,0-.25.32,1,1,0,0,0-.08.37.83.83,0,0,0,.08.36.66.66,0,0,0,.26.27,2.12,2.12,0,0,0,.5.24,6,6,0,0,0,.79.2,9.68,9.68,0,0,1,1.23.35,3.38,3.38,0,0,1,.93.48,1.94,1.94,0,0,1,.57.68,2,2,0,0,1,.2.92,2.13,2.13,0,0,1-.23,1,2.21,2.21,0,0,1-.65.75,3,3,0,0,1-1,.5,5,5,0,0,1-1.32.17,4,4,0,0,1-1.44-.23,3.25,3.25,0,0,1-1-.6,2.48,2.48,0,0,1-.64-.85,2.32,2.32,0,0,1-.22-1h1.73a1.37,1.37,0,0,0,.17.61A1.15,1.15,0,0,0,77,94a1.68,1.68,0,0,0,.51.22,2.25,2.25,0,0,0,.58.07A1.78,1.78,0,0,0,79.16,94,.81.81,0,0,0,79.53,93.32Z"/><path class="cls-1" d="M89.78,91.6a5.87,5.87,0,0,1-.2,1.61A3.78,3.78,0,0,1,89,94.49a2.73,2.73,0,0,1-1,.83,2.88,2.88,0,0,1-1.34.3,2.78,2.78,0,0,1-1.26-.26,2.59,2.59,0,0,1-.91-.74l-.08.86H82.83V84.23H84.6v4.08a2.65,2.65,0,0,1,.89-.67,2.75,2.75,0,0,1,1.19-.23A2.92,2.92,0,0,1,88,87.7a3,3,0,0,1,1,.83,4.08,4.08,0,0,1,.59,1.28,6.45,6.45,0,0,1,.19,1.63ZM88,91.44a5.37,5.37,0,0,0-.08-1,2.57,2.57,0,0,0-.29-.82,1.64,1.64,0,0,0-.55-.56,1.57,1.57,0,0,0-.85-.21,1.73,1.73,0,0,0-1,.28,1.9,1.9,0,0,0-.61.73v3.27a1.9,1.9,0,0,0,.62.75,1.72,1.72,0,0,0,1,.28,1.5,1.5,0,0,0,1.37-.75,2.43,2.43,0,0,0,.3-.81,6.46,6.46,0,0,0,.08-1Z"/><path class="cls-1" d="M91.28,85.49a.92.92,0,0,1,.26-.68,1,1,0,0,1,.74-.27,1,1,0,0,1,.75.27,1,1,0,0,1,.26.68.92.92,0,0,1-.26.67,1,1,0,0,1-.75.27,1,1,0,0,1-.74-.27A.88.88,0,0,1,91.28,85.49Zm1.89,10H91.39V87.55h1.78Z"/><path class="cls-1" d="M102.06,91.6a6.28,6.28,0,0,1-.2,1.61,4,4,0,0,1-.59,1.28,2.67,2.67,0,0,1-1,.83,2.83,2.83,0,0,1-1.33.3,2.73,2.73,0,0,1-1.26-.26,2.5,2.5,0,0,1-.91-.74l-.09.86H95.1V84.23h1.78v4.08a2.61,2.61,0,0,1,.88-.67A2.78,2.78,0,0,1,99,87.41a2.86,2.86,0,0,1,1.35.29,2.77,2.77,0,0,1,1,.83,3.87,3.87,0,0,1,.59,1.28,6.44,6.44,0,0,1,.2,1.63Zm-1.78-.16a5.36,5.36,0,0,0-.09-1,2.56,2.56,0,0,0-.28-.82,1.64,1.64,0,0,0-.55-.56,1.6,1.6,0,0,0-.85-.21,1.69,1.69,0,0,0-1,.28,1.74,1.74,0,0,0-.61.73v3.27a1.88,1.88,0,0,0,.61.75,1.74,1.74,0,0,0,1,.28,1.55,1.55,0,0,0,.83-.2,1.5,1.5,0,0,0,.54-.55,2.43,2.43,0,0,0,.3-.81,5.42,5.42,0,0,0,.09-1Z"/><path class="cls-1" d="M105.44,95.48h-1.78V84.23h1.78Z"/><path class="cls-1" d="M107.38,85.49a1,1,0,0,1,.26-.68,1,1,0,0,1,.75-.27,1,1,0,0,1,.74.27.93.93,0,0,1,.27.68.89.89,0,0,1-.27.67,1,1,0,0,1-.74.27,1,1,0,0,1-.75-.27A.92.92,0,0,1,107.38,85.49Zm1.89,10h-1.78V87.55h1.78Z"/><path class="cls-1" d="M110.88,91.44a4.88,4.88,0,0,1,.25-1.6,3.9,3.9,0,0,1,.72-1.28,3.42,3.42,0,0,1,1.16-.85,3.78,3.78,0,0,1,1.54-.3,3.88,3.88,0,0,1,1.56.3,3.33,3.33,0,0,1,1.16.85,3.75,3.75,0,0,1,.73,1.28,5.16,5.16,0,0,1,.25,1.6v.16a5.16,5.16,0,0,1-.25,1.6,3.75,3.75,0,0,1-.73,1.28,3.23,3.23,0,0,1-1.15.84,4.18,4.18,0,0,1-3.11,0,3.27,3.27,0,0,1-1.16-.84,3.9,3.9,0,0,1-.72-1.28,4.88,4.88,0,0,1-.25-1.6Zm1.78.16a4.17,4.17,0,0,0,.11,1,2.46,2.46,0,0,0,.34.83,1.89,1.89,0,0,0,.6.56,1.93,1.93,0,0,0,1.71,0,1.76,1.76,0,0,0,.59-.56,2.7,2.7,0,0,0,.35-.83,4.74,4.74,0,0,0,.11-1v-.16a4.64,4.64,0,0,0-.11-1,2.7,2.7,0,0,0-.35-.83,1.79,1.79,0,0,0-.6-.56,1.77,1.77,0,0,0-1.71,0,1.86,1.86,0,0,0-.59.56,2.46,2.46,0,0,0-.34.83,4.09,4.09,0,0,0-.11,1Z"/><path class="cls-1" d="M122,85.63v1.92h1.4v1.32H122v4.42a1.29,1.29,0,0,0,.06.44.58.58,0,0,0,.43.39,1.69,1.69,0,0,0,.33,0l.36,0,.26,0v1.38l-.49.11a4.4,4.4,0,0,1-.68.05,3.12,3.12,0,0,1-.82-.11,1.77,1.77,0,0,1-.65-.38,2,2,0,0,1-.43-.69,3.17,3.17,0,0,1-.15-1V88.87h-1.3V87.55h1.3V85.63Z"/><path class="cls-1" d="M126.49,88.42a3,3,0,0,1,1-.75,2.78,2.78,0,0,1,1.24-.26,3.21,3.21,0,0,1,1.05.16,1.9,1.9,0,0,1,.81.51,2.33,2.33,0,0,1,.52.93,4.19,4.19,0,0,1,.19,1.37v5.1h-1.78V90.36a1.56,1.56,0,0,0-.36-1.16,1.48,1.48,0,0,0-1-.34,1.77,1.77,0,0,0-1,.26,1.93,1.93,0,0,0-.64.69v5.67h-1.78V84.23h1.78Z"/><path class="cls-1" d="M136.56,95.62a4,4,0,0,1-1.59-.29,3.4,3.4,0,0,1-1.19-.81,3.51,3.51,0,0,1-.76-1.21,4.45,4.45,0,0,1-.26-1.52V91.5a4.85,4.85,0,0,1,.28-1.7,3.78,3.78,0,0,1,.76-1.28,3.35,3.35,0,0,1,1.14-.83,3.51,3.51,0,0,1,1.41-.28,3.62,3.62,0,0,1,1.5.28,3,3,0,0,1,1.06.81,3.7,3.7,0,0,1,.62,1.24,5.65,5.65,0,0,1,.2,1.58v.76h-5.17a2.58,2.58,0,0,0,.19.85,2,2,0,0,0,.43.67,1.92,1.92,0,0,0,.64.44,2.06,2.06,0,0,0,.84.16,2.4,2.4,0,0,0,1.14-.26,2.69,2.69,0,0,0,.85-.73l1,.92a3.35,3.35,0,0,1-.47.55,3.29,3.29,0,0,1-.66.48,4,4,0,0,1-.86.34A4.29,4.29,0,0,1,136.56,95.62Zm-.22-6.79a1.5,1.5,0,0,0-1.18.52,2.6,2.6,0,0,0-.57,1.42H138v-.13a3.61,3.61,0,0,0-.12-.67,1.65,1.65,0,0,0-.28-.58,1.4,1.4,0,0,0-.49-.41A1.7,1.7,0,0,0,136.34,88.83Z"/><path class="cls-1" d="M143.69,92.08l-.79.81v2.59h-1.78V84.23h1.78v6.49l.55-.7,2.19-2.47h2.14l-2.94,3.31,3.26,4.62H146Z"/><path class="cls-1" d="M157.22,84.81h1.84v7.48a3.48,3.48,0,0,1-.26,1.41,2.81,2.81,0,0,1-.72,1,3.07,3.07,0,0,1-1.11.65,4.09,4.09,0,0,1-1.39.22,4.84,4.84,0,0,1-1.4-.19,2.9,2.9,0,0,1-1.1-.58,2.7,2.7,0,0,1-.72-1,3.41,3.41,0,0,1-.26-1.41h1.84a2.34,2.34,0,0,0,.12.79,1.38,1.38,0,0,0,.34.52,1.29,1.29,0,0,0,.52.3,2.29,2.29,0,0,0,.66.09,1.76,1.76,0,0,0,.66-.12,1.45,1.45,0,0,0,.52-.35,1.74,1.74,0,0,0,.34-.58,2.45,2.45,0,0,0,.12-.8Z"/><path class="cls-1" d="M164.5,95.62a3.94,3.94,0,0,1-1.58-.29,3.43,3.43,0,0,1-1.95-2,4.23,4.23,0,0,1-.27-1.52V91.5a5.09,5.09,0,0,1,.28-1.7,4,4,0,0,1,.76-1.28,3.45,3.45,0,0,1,1.14-.83,3.51,3.51,0,0,1,1.41-.28,3.62,3.62,0,0,1,1.5.28,3,3,0,0,1,1.06.81,3.53,3.53,0,0,1,.62,1.24,5.64,5.64,0,0,1,.21,1.58v.76H162.5a2.86,2.86,0,0,0,.19.85,2.2,2.2,0,0,0,.43.67,1.92,1.92,0,0,0,.64.44,2.06,2.06,0,0,0,.84.16,2.47,2.47,0,0,0,1.15-.26,2.77,2.77,0,0,0,.84-.73l1,.92a3.35,3.35,0,0,1-.47.55,3.29,3.29,0,0,1-.66.48,4.08,4.08,0,0,1-.85.34A4.43,4.43,0,0,1,164.5,95.62Zm-.22-6.79a1.52,1.52,0,0,0-1.18.52,2.6,2.6,0,0,0-.57,1.42h3.39v-.13a2.94,2.94,0,0,0-.12-.67,1.65,1.65,0,0,0-.28-.58A1.4,1.4,0,0,0,165,89,1.67,1.67,0,0,0,164.28,88.83Z"/><path class="cls-1" d="M170.71,87.55l0,.92a3,3,0,0,1,1-.79,3.1,3.1,0,0,1,1.31-.27,3.33,3.33,0,0,1,1,.15,2,2,0,0,1,.8.51,2.4,2.4,0,0,1,.51.92,4.51,4.51,0,0,1,.18,1.37v5.12h-1.78V90.34a2.29,2.29,0,0,0-.1-.69,1.21,1.21,0,0,0-.26-.46,1.12,1.12,0,0,0-.44-.25,2.13,2.13,0,0,0-.6-.08,1.68,1.68,0,0,0-.95.27,1.86,1.86,0,0,0-.65.71v5.64H169V87.55Z"/><path class="cls-1" d="M182.13,95.48a1.61,1.61,0,0,1-.12-.33c0-.13-.06-.27-.08-.41a4.32,4.32,0,0,1-.39.34,2.87,2.87,0,0,1-.48.28,2.46,2.46,0,0,1-.56.19,2.76,2.76,0,0,1-.65.07,3.16,3.16,0,0,1-1.09-.18,2.58,2.58,0,0,1-.86-.49,2.5,2.5,0,0,1-.55-.75,2.15,2.15,0,0,1-.21-.94,2.54,2.54,0,0,1,.25-1.13,2.12,2.12,0,0,1,.7-.82,3.26,3.26,0,0,1,1.13-.5,6,6,0,0,1,1.53-.17h1.12v-.52a1.41,1.41,0,0,0-.35-1,1.32,1.32,0,0,0-1-.37,1.7,1.7,0,0,0-.57.09,1.3,1.3,0,0,0-.44.22,1.13,1.13,0,0,0-.28.34,1,1,0,0,0-.1.43h-1.78a2,2,0,0,1,.23-.91,2.53,2.53,0,0,1,.66-.77,3.36,3.36,0,0,1,1-.55,4.6,4.6,0,0,1,2.58,0,2.57,2.57,0,0,1,1,.51,2.25,2.25,0,0,1,.64.85,2.94,2.94,0,0,1,.23,1.19v3.52a4,4,0,0,0,.3,1.7v.13Zm-1.95-1.28a1.79,1.79,0,0,0,.57-.09,2,2,0,0,0,.49-.21,1.86,1.86,0,0,0,.37-.3,2,2,0,0,0,.26-.35V91.76h-1a2.63,2.63,0,0,0-1.49.34,1.11,1.11,0,0,0-.49,1,1.06,1.06,0,0,0,.08.45.88.88,0,0,0,.24.36.94.94,0,0,0,.39.23A1.45,1.45,0,0,0,180.18,94.2Z"/></g></g></svg>