<svg xmlns="http://www.w3.org/2000/svg" viewBox="0 0 374.29 52.67"><defs><style>.cls-1{fill:#002f5d;}.cls-2{fill:none;stroke:#002f5d;stroke-miterlimit:10;}</style></defs><g id="Ebene_2" data-name="Ebene 2"><g id="Ebene_1-2" data-name="Ebene 1"><path class="cls-1" d="M120.12,0h-6.28V44.64a8,8,0,0,0,8,8h6.31V8.05A8.06,8.06,0,0,0,120.12,0Z"/><path class="cls-1" d="M20.89,8.06a8.05,8.05,0,0,0-8-8.06H6.56V12.17H0V25.11H3.2a3.35,3.35,0,0,1,3.35,3.34v4A20.18,20.18,0,0,0,26.78,52.66c.32,0,.65,0,1,0l.62,0V40.3l-.58-.06a7.87,7.87,0,0,1-6.9-7.8V25.11h7.48V12.17H20.89Z"/><path class="cls-1" d="M170.86,17.57c-4.83-4.3-11.65-6.33-17.45-4.25a25,25,0,0,0-6.08,3.12V8.05a8,8,0,0,0-8-8H133V52.67h11.29l1-1.1a3,3,0,0,1,3.54-.73,19.47,19.47,0,0,0,7.27,1.75,20.19,20.19,0,0,0,21.21-20.21A20,20,0,0,0,170.86,17.57ZM156.93,41a8.76,8.76,0,0,1-6.57-2,8.71,8.71,0,0,1,0-13.15,8.76,8.76,0,0,1,6.57-2,8.65,8.65,0,0,1,0,17.17Z"/><path class="cls-1" d="M109.25,32.37V20.76a8.06,8.06,0,0,0-8.06-8.06h-.07l-6.24.05V32.37a8.39,8.39,0,0,1-1.21,4.4c-.08.13-.16.26-.25.39l-.15.23c-.13.19-.28.37-.42.55l0,0c-.16.19-.33.38-.51.56h0c-.14.13-.27.27-.41.39l-.13.1A8.33,8.33,0,0,1,87.26,41a9.48,9.48,0,0,1-1.07,0H86l-.53,0h-.16a8,8,0,0,1-2.72-.79,8.83,8.83,0,0,1-1.91-1.22,9.84,9.84,0,0,1-3.44-6.41c-.71-5.29-1.26-10-3.7-13.09-3.64-4.65-8.91-6.72-12.48-6.72-5.65,0-10.76,2-13.31,6.53V8.05a8,8,0,0,0-8-8h-6.3V52.67H47.78V32.38h0a9.13,9.13,0,0,1,.31-2.21,8.63,8.63,0,0,1,2.68-4.36,7.93,7.93,0,0,1,1-.73,8.38,8.38,0,0,1,1-.55,8.85,8.85,0,0,1,4.53-.74c.15,0,.3.05.45.07,4.35.7,6.88,4.12,7.16,8.48.4,6.19,2.41,11.13,6.42,14.83a20.4,20.4,0,0,0,14.79,5.41,19.47,19.47,0,0,0,7.27-1.75,3.05,3.05,0,0,1,3.55.72l1,1.11h11.29V32.37Z"/><line class="cls-2" x1="191.11" x2="191.11" y2="29.2"/><path class="cls-1" d="M213.16,2.13h-3.32V11.3H208V2.13h-3.29V.64h8.45Z"/><path class="cls-1" d="M216.15,4.24a2.76,2.76,0,0,1,1-.74,2.82,2.82,0,0,1,1.24-.27,3.23,3.23,0,0,1,1.06.16,2.05,2.05,0,0,1,.81.52,2.34,2.34,0,0,1,.52.92,4.55,4.55,0,0,1,.18,1.37v5.1h-1.78V6.19A1.58,1.58,0,0,0,218.79,5a1.46,1.46,0,0,0-1-.34,1.7,1.7,0,0,0-1,.25,1.81,1.81,0,0,0-.64.7V11.3h-1.78V.05h1.78Z"/><path class="cls-1" d="M227.52,10.52a2.48,2.48,0,0,1-.92.68,3.09,3.09,0,0,1-1.31.25,3.23,3.23,0,0,1-1.06-.17,2.05,2.05,0,0,1-.83-.52,2.46,2.46,0,0,1-.53-.91,4.19,4.19,0,0,1-.19-1.35V3.37h1.78V8.52a2.09,2.09,0,0,0,.1.71,1.12,1.12,0,0,0,.28.45.88.88,0,0,0,.4.25,1.84,1.84,0,0,0,.47.07,2.29,2.29,0,0,0,1.12-.25,1.65,1.65,0,0,0,.63-.68V3.37h1.78V11.3h-1.68Z"/><path class="cls-1" d="M235.2,5l-.35,0-.37,0a2,2,0,0,0-1,.25,1.55,1.55,0,0,0-.6.69V11.3h-1.78V3.37h1.7l0,.89a2.37,2.37,0,0,1,.75-.76,1.94,1.94,0,0,1,1-.27l.35,0a1.59,1.59,0,0,1,.28.07Z"/><path class="cls-1" d="M236.33,1.32a.94.94,0,0,1,.26-.68,1.13,1.13,0,0,1,1.49,0,.91.91,0,0,1,.27.68.9.9,0,0,1-.27.67,1.2,1.2,0,0,1-1.49,0A.94.94,0,0,1,236.33,1.32Zm1.89,10h-1.78V3.37h1.78Z"/><path class="cls-1" d="M241.81,3.37l.05.92a2.75,2.75,0,0,1,1-.78,2.92,2.92,0,0,1,1.3-.28,3.11,3.11,0,0,1,1,.16,1.8,1.8,0,0,1,.79.51,2.28,2.28,0,0,1,.51.91,4.55,4.55,0,0,1,.18,1.37V11.3h-1.78V6.16a2.31,2.31,0,0,0-.09-.69,1,1,0,0,0-.27-.45,1,1,0,0,0-.44-.26,2.12,2.12,0,0,0-.59-.07,1.68,1.68,0,0,0-1,.26,1.93,1.93,0,0,0-.65.71V11.3h-1.78V3.37Z"/><path class="cls-1" d="M248.19,7.28a5.73,5.73,0,0,1,.22-1.65A4,4,0,0,1,249,4.35a3.07,3.07,0,0,1,3.56-.88,2.64,2.64,0,0,1,.89.7l.08-.8h1.61v7.71a3.53,3.53,0,0,1-.27,1.42,2.92,2.92,0,0,1-.73,1.05,3.36,3.36,0,0,1-1.14.65,4.46,4.46,0,0,1-1.45.22,3.9,3.9,0,0,1-.73-.07,4.4,4.4,0,0,1-.82-.23,4.11,4.11,0,0,1-.78-.4,2.65,2.65,0,0,1-.64-.61l.84-1.07a2.86,2.86,0,0,0,1,.75,2.63,2.63,0,0,0,1.07.22,1.94,1.94,0,0,0,1.39-.48,1.81,1.81,0,0,0,.52-1.41v-.53a2.62,2.62,0,0,1-.88.64,3.05,3.05,0,0,1-1.17.22,2.81,2.81,0,0,1-1.31-.31,3,3,0,0,1-1-.84A4,4,0,0,1,248.41,9a5.43,5.43,0,0,1-.22-1.6Zm1.77.15a4.48,4.48,0,0,0,.11,1,2.43,2.43,0,0,0,.33.82,1.6,1.6,0,0,0,1.4.76,1.72,1.72,0,0,0,1-.26,1.9,1.9,0,0,0,.62-.67V5.59a1.88,1.88,0,0,0-.62-.66,1.8,1.8,0,0,0-1-.24,1.58,1.58,0,0,0-.84.2,1.61,1.61,0,0,0-.57.56,2.77,2.77,0,0,0-.34.82,4.67,4.67,0,0,0-.11,1Z"/><path class="cls-1" d="M257,1.32a.9.9,0,0,1,.26-.68A.94.94,0,0,1,258,.36a1,1,0,0,1,.75.28.94.94,0,0,1,.26.68.94.94,0,0,1-.26.67,1.05,1.05,0,0,1-.75.26,1,1,0,0,1-.74-.26A.9.9,0,0,1,257,1.32Zm1.89,10h-1.78V3.37h1.78Z"/><path class="cls-1" d="M265.57,11.3a1.27,1.27,0,0,1-.12-.33c0-.13-.06-.26-.09-.41a2.16,2.16,0,0,1-.39.34,2.47,2.47,0,0,1-.47.29,3.18,3.18,0,0,1-.57.19,3.32,3.32,0,0,1-.65.07,3.24,3.24,0,0,1-1.09-.18,2.65,2.65,0,0,1-.85-.5,2.31,2.31,0,0,1-.56-.75,2.26,2.26,0,0,1-.2-.94A2.57,2.57,0,0,1,260.82,8a2.32,2.32,0,0,1,.71-.82,3.26,3.26,0,0,1,1.13-.5,6.39,6.39,0,0,1,1.53-.17h1.12V5.94A1.41,1.41,0,0,0,265,5a1.39,1.39,0,0,0-1-.37,1.72,1.72,0,0,0-.58.09,1.34,1.34,0,0,0-.43.22,1.06,1.06,0,0,0-.28.35.87.87,0,0,0-.1.42h-1.78a1.94,1.94,0,0,1,.23-.9,2.31,2.31,0,0,1,.66-.78,3.25,3.25,0,0,1,1-.55,4.35,4.35,0,0,1,1.35-.2,4.4,4.4,0,0,1,1.23.17,3,3,0,0,1,1,.51,2.25,2.25,0,0,1,.64.85A2.94,2.94,0,0,1,267.09,6V9.47a4,4,0,0,0,.3,1.7v.13Zm-2-1.28a2.14,2.14,0,0,0,.58-.08,2.67,2.67,0,0,0,.48-.21,1.88,1.88,0,0,0,.64-.66V7.58h-1a2.63,2.63,0,0,0-1.49.34,1.13,1.13,0,0,0-.5,1,1.23,1.23,0,0,0,.08.44,1.13,1.13,0,0,0,.24.36,1.05,1.05,0,0,0,.4.23A1.44,1.44,0,0,0,263.61,10Z"/><path class="cls-1" d="M270.6,3.37l0,.92a2.84,2.84,0,0,1,1-.78,2.92,2.92,0,0,1,1.3-.28,3.11,3.11,0,0,1,1,.16,1.8,1.8,0,0,1,.79.51,2.28,2.28,0,0,1,.51.91,4.55,4.55,0,0,1,.18,1.37V11.3H273.7V6.16a2.31,2.31,0,0,0-.09-.69,1.07,1.07,0,0,0-.7-.71,2.25,2.25,0,0,0-.6-.07,1.68,1.68,0,0,0-1,.26,2,2,0,0,0-.65.71V11.3h-1.78V3.37Z"/><path class="cls-1" d="M289,.64V7.77a3.81,3.81,0,0,1-.31,1.6,3.2,3.2,0,0,1-.85,1.15,3.83,3.83,0,0,1-1.27.7,5.23,5.23,0,0,1-1.55.23,5.36,5.36,0,0,1-1.59-.23,3.51,3.51,0,0,1-1.26-.7,3.06,3.06,0,0,1-.84-1.15,4,4,0,0,1-.3-1.6V.64h1.85V7.77a2.84,2.84,0,0,0,.15,1,1.69,1.69,0,0,0,1.1,1.09A3,3,0,0,0,285,10a3.13,3.13,0,0,0,.89-.13,1.74,1.74,0,0,0,.67-.4,1.83,1.83,0,0,0,.42-.69,2.84,2.84,0,0,0,.15-1V.64Z"/><path class="cls-1" d="M292.46,3.37l.05.92a2.8,2.8,0,0,1,1-.78,3,3,0,0,1,1.31-.28,3.05,3.05,0,0,1,1,.16,1.83,1.83,0,0,1,.8.51,2.28,2.28,0,0,1,.51.91,4.55,4.55,0,0,1,.18,1.37V11.3h-1.78V6.16a2.29,2.29,0,0,0-.1-.69A1.09,1.09,0,0,0,295.2,5a1,1,0,0,0-.44-.26,2.15,2.15,0,0,0-.6-.07,1.67,1.67,0,0,0-1,.26,1.93,1.93,0,0,0-.65.71V11.3h-1.78V3.37Z"/><path class="cls-1" d="M299.15,1.32a.93.93,0,0,1,1-1,1,1,0,0,1,.75.28.91.91,0,0,1,.27.68.9.9,0,0,1-.27.67,1.2,1.2,0,0,1-1.49,0A.94.94,0,0,1,299.15,1.32Zm1.89,10h-1.78V3.37H301Z"/><path class="cls-1" d="M305.77,9l1.68-5.67h1.84l-2.75,7.93H305l-2.77-7.93h1.84Z"/><path class="cls-1" d="M313.79,11.45a4,4,0,0,1-1.58-.3,3.33,3.33,0,0,1-1.19-.8,3.55,3.55,0,0,1-.76-1.22A4.39,4.39,0,0,1,310,7.62v-.3a4.76,4.76,0,0,1,.28-1.69A3.74,3.74,0,0,1,311,4.34a3.2,3.2,0,0,1,1.14-.82,3.3,3.3,0,0,1,1.41-.29,3.52,3.52,0,0,1,1.5.29,2.8,2.8,0,0,1,1.05.81,3.29,3.29,0,0,1,.62,1.24A5.52,5.52,0,0,1,317,7.14V7.9h-5.18a2.86,2.86,0,0,0,.2.85,1.88,1.88,0,0,0,.43.67,1.7,1.7,0,0,0,.64.44,2,2,0,0,0,.83.17A2.33,2.33,0,0,0,315,9.76a2.66,2.66,0,0,0,.85-.72l1,.91a3.05,3.05,0,0,1-.48.55,2.81,2.81,0,0,1-.66.48,3.87,3.87,0,0,1-.85.34A4.35,4.35,0,0,1,313.79,11.45Zm-.21-6.79a1.49,1.49,0,0,0-1.18.51,2.64,2.64,0,0,0-.58,1.43h3.39V6.47a3,3,0,0,0-.11-.68,1.84,1.84,0,0,0-.28-.58,1.33,1.33,0,0,0-.5-.4A1.65,1.65,0,0,0,313.58,4.66Z"/><path class="cls-1" d="M322.5,5l-.36,0-.37,0a2,2,0,0,0-1,.25,1.55,1.55,0,0,0-.6.69V11.3h-1.78V3.37h1.7l0,.89a2.45,2.45,0,0,1,.74-.76,2,2,0,0,1,1.05-.27l.34,0a1.76,1.76,0,0,1,.29.07Z"/><path class="cls-1" d="M328.07,9.15a.86.86,0,0,0-.07-.36.75.75,0,0,0-.24-.31,2.08,2.08,0,0,0-.52-.26,5.73,5.73,0,0,0-.87-.24,8.41,8.41,0,0,1-1.16-.33,3.41,3.41,0,0,1-.89-.48,2.16,2.16,0,0,1-.59-.66,1.79,1.79,0,0,1-.21-.88,2.11,2.11,0,0,1,.22-.92,2.21,2.21,0,0,1,.61-.76,3.11,3.11,0,0,1,1-.53,3.85,3.85,0,0,1,1.27-.19,4.27,4.27,0,0,1,1.33.19,3.09,3.09,0,0,1,1,.54,2.19,2.19,0,0,1,.62.8,2.24,2.24,0,0,1,.22,1H328a1.15,1.15,0,0,0-.09-.44,1.22,1.22,0,0,0-.26-.38,1.48,1.48,0,0,0-.44-.27,1.57,1.57,0,0,0-.6-.1,1.74,1.74,0,0,0-.59.09,1.31,1.31,0,0,0-.41.21.93.93,0,0,0-.25.32,1,1,0,0,0-.08.38,1,1,0,0,0,.07.35.84.84,0,0,0,.26.28,2.47,2.47,0,0,0,.51.23,7.81,7.81,0,0,0,.79.21,8.32,8.32,0,0,1,1.23.34,3.46,3.46,0,0,1,.92.48,2,2,0,0,1,.58.68,2,2,0,0,1,.2.92,2.1,2.1,0,0,1-.23,1,2.34,2.34,0,0,1-.65.76,3.28,3.28,0,0,1-1,.49,4.58,4.58,0,0,1-1.32.18,4.26,4.26,0,0,1-1.44-.23,3.34,3.34,0,0,1-1.05-.61,2.54,2.54,0,0,1-.64-.84,2.25,2.25,0,0,1-.22-1H325a1.41,1.41,0,0,0,.17.62,1.29,1.29,0,0,0,.37.4A1.46,1.46,0,0,0,326,10a2.38,2.38,0,0,0,.59.07,1.86,1.86,0,0,0,1.07-.26A.86.86,0,0,0,328.07,9.15Z"/><path class="cls-1" d="M331.37,1.32a.93.93,0,0,1,1-1,1,1,0,0,1,.75.28.9.9,0,0,1,.26.68.9.9,0,0,1-.26.67,1,1,0,0,1-.75.26,1,1,0,0,1-.74-.26A.94.94,0,0,1,331.37,1.32Zm1.89,10h-1.78V3.37h1.78Z"/><path class="cls-1" d="M337.43,1.45V3.37h1.4V4.69h-1.4V9.12a1.37,1.37,0,0,0,.06.44.53.53,0,0,0,.16.26.62.62,0,0,0,.26.12,1.72,1.72,0,0,0,.34,0,2,2,0,0,0,.35,0l.27,0v1.38l-.49.11a3.37,3.37,0,0,1-.68.06,2.66,2.66,0,0,1-.82-.12,1.69,1.69,0,0,1-.65-.38,1.84,1.84,0,0,1-.43-.69,3.13,3.13,0,0,1-.15-1V4.69h-1.31V3.37h1.31V1.45Z"/><path class="cls-1" d="M343,8.75l1.61-5.38h1.89l-3.14,9.13a6.94,6.94,0,0,1-.29.65,2.9,2.9,0,0,1-.47.65,2.66,2.66,0,0,1-.71.5,2.35,2.35,0,0,1-1,.2,2.28,2.28,0,0,1-.45,0l-.4-.09V13l.17,0h.17a3.18,3.18,0,0,0,.57,0,1.39,1.39,0,0,0,.43-.18,1.22,1.22,0,0,0,.31-.33,2.43,2.43,0,0,0,.24-.51l.25-.68-2.78-7.89h1.92Z"/><path class="cls-1" d="M356,11.3a1.27,1.27,0,0,1-.12-.33c0-.13-.06-.26-.09-.41a2.16,2.16,0,0,1-.39.34,2.47,2.47,0,0,1-.47.29,3.47,3.47,0,0,1-.57.19,3.32,3.32,0,0,1-.65.07,3.2,3.2,0,0,1-1.09-.18,2.65,2.65,0,0,1-.85-.5,2.31,2.31,0,0,1-.56-.75,2.26,2.26,0,0,1-.2-.94A2.57,2.57,0,0,1,351.21,8a2.23,2.23,0,0,1,.71-.82,3.18,3.18,0,0,1,1.13-.5,6.3,6.3,0,0,1,1.52-.17h1.12V5.94a1.4,1.4,0,0,0-.34-1,1.39,1.39,0,0,0-1.05-.37,1.7,1.7,0,0,0-.57.09,1.34,1.34,0,0,0-.43.22,1,1,0,0,0-.28.35.87.87,0,0,0-.1.42h-1.78a1.94,1.94,0,0,1,.23-.9A2.31,2.31,0,0,1,352,4a3.31,3.31,0,0,1,1-.55,4.46,4.46,0,0,1,1.36-.2,4.4,4.4,0,0,1,1.23.17,3,3,0,0,1,1,.51,2.36,2.36,0,0,1,.64.85A2.94,2.94,0,0,1,357.47,6V9.47a4,4,0,0,0,.3,1.7v.13ZM354,10a2.14,2.14,0,0,0,.58-.08,2.67,2.67,0,0,0,.48-.21,1.66,1.66,0,0,0,.38-.31,1.33,1.33,0,0,0,.25-.35V7.58h-.95a2.63,2.63,0,0,0-1.49.34,1.13,1.13,0,0,0-.5,1,1.23,1.23,0,0,0,.08.44.88.88,0,0,0,.24.36,1.09,1.09,0,0,0,.39.23A1.53,1.53,0,0,0,354,10Z"/><path class="cls-1" d="M361,3.37l.05.92a2.75,2.75,0,0,1,1-.78,2.92,2.92,0,0,1,1.3-.28,3,3,0,0,1,1,.16,1.78,1.78,0,0,1,.8.51,2.28,2.28,0,0,1,.51.91,4.55,4.55,0,0,1,.18,1.37V11.3h-1.78V6.16a2.31,2.31,0,0,0-.09-.69,1,1,0,0,0-.27-.45,1,1,0,0,0-.44-.26,2.12,2.12,0,0,0-.59-.07,1.68,1.68,0,0,0-1,.26,1.93,1.93,0,0,0-.65.71V11.3h-1.78V3.37Z"/><path class="cls-1" d="M367.35,7.28a6.11,6.11,0,0,1,.21-1.65,4,4,0,0,1,.63-1.28,2.88,2.88,0,0,1,1-.83,2.92,2.92,0,0,1,1.3-.29,2.72,2.72,0,0,1,1.17.23,2.49,2.49,0,0,1,.87.65V.05h1.78V11.3h-1.61l-.09-.82a2.47,2.47,0,0,1-.9.71,2.79,2.79,0,0,1-1.23.26,2.73,2.73,0,0,1-1.29-.31,2.82,2.82,0,0,1-1-.84A3.76,3.76,0,0,1,367.57,9a5.43,5.43,0,0,1-.22-1.6Zm1.78.15a4.49,4.49,0,0,0,.1,1,2.42,2.42,0,0,0,.31.82,1.54,1.54,0,0,0,1.37.76,1.7,1.7,0,0,0,1-.27,1.84,1.84,0,0,0,.61-.71V5.64a1.82,1.82,0,0,0-.61-.7,1.75,1.75,0,0,0-1-.25,1.57,1.57,0,0,0-.83.2,1.64,1.64,0,0,0-.55.56,2.51,2.51,0,0,0-.32.82,4.68,4.68,0,0,0-.1,1Z"/><path class="cls-1" d="M211,26.55a1.7,1.7,0,0,0-.09-.57,1.26,1.26,0,0,0-.35-.47,2.94,2.94,0,0,0-.7-.4,9.82,9.82,0,0,0-1.13-.41,10.1,10.1,0,0,1-1.41-.52,4.63,4.63,0,0,1-1.11-.68,3.07,3.07,0,0,1-.73-.89,2.45,2.45,0,0,1-.26-1.16,2.63,2.63,0,0,1,.27-1.19,2.88,2.88,0,0,1,.77-.94,3.87,3.87,0,0,1,1.2-.61,4.94,4.94,0,0,1,1.54-.22,4.73,4.73,0,0,1,1.61.26,3.57,3.57,0,0,1,1.22.71,3.07,3.07,0,0,1,.76,1,3.16,3.16,0,0,1,.26,1.26H211a2.09,2.09,0,0,0-.12-.72,1.48,1.48,0,0,0-.37-.56,1.62,1.62,0,0,0-.63-.37,3.26,3.26,0,0,0-1.75,0,1.55,1.55,0,0,0-.6.31,1.31,1.31,0,0,0-.35.46,1.67,1.67,0,0,0-.11.59,1.17,1.17,0,0,0,.56,1,5.86,5.86,0,0,0,1.71.73,9.84,9.84,0,0,1,1.56.59,4.57,4.57,0,0,1,1.1.73,2.56,2.56,0,0,1,.64.91,3,3,0,0,1,.22,1.15,2.61,2.61,0,0,1-1,2.13,3.52,3.52,0,0,1-1.2.57,5.75,5.75,0,0,1-3.08,0,4.24,4.24,0,0,1-1.34-.63,3.21,3.21,0,0,1-1-1.05,3,3,0,0,1-.36-1.48h1.85A2,2,0,0,0,207,27a1.65,1.65,0,0,0,.49.59,2.09,2.09,0,0,0,.74.33,3.29,3.29,0,0,0,.91.11,2.31,2.31,0,0,0,1.46-.39A1.28,1.28,0,0,0,211,26.55Z"/><path class="cls-1" d="M216.57,19.45v1.92H218v1.32h-1.4v4.43a1.37,1.37,0,0,0,.06.44.54.54,0,0,0,.17.26.57.57,0,0,0,.26.12,1.69,1.69,0,0,0,.33,0,2.17,2.17,0,0,0,.36,0l.26-.05v1.38l-.49.11a3.37,3.37,0,0,1-.68.06,2.76,2.76,0,0,1-.82-.12,1.77,1.77,0,0,1-.65-.38,2,2,0,0,1-.43-.69,3.13,3.13,0,0,1-.15-1V22.69h-1.3V21.37h1.3V19.45Z"/><path class="cls-1" d="M224.06,29.3a1.27,1.27,0,0,1-.12-.33c0-.13-.06-.26-.08-.41a2.66,2.66,0,0,1-.4.34,2.47,2.47,0,0,1-.47.29,2.93,2.93,0,0,1-.57.19,3.22,3.22,0,0,1-.64.07,3.16,3.16,0,0,1-1.09-.18,2.6,2.6,0,0,1-.86-.5,2.28,2.28,0,0,1-.55-.75,2.12,2.12,0,0,1-.21-.94,2.57,2.57,0,0,1,.25-1.13,2.2,2.2,0,0,1,.7-.82,3.26,3.26,0,0,1,1.13-.5,6.45,6.45,0,0,1,1.53-.17h1.12v-.52a1.41,1.41,0,0,0-.35-1,1.37,1.37,0,0,0-1-.37,1.7,1.7,0,0,0-.57.09,1.3,1.3,0,0,0-.44.22,1.06,1.06,0,0,0-.28.35,1,1,0,0,0-.1.42h-1.78a1.94,1.94,0,0,1,.23-.9,2.57,2.57,0,0,1,.66-.78,3.36,3.36,0,0,1,1-.55,4.35,4.35,0,0,1,1.35-.2,4.4,4.4,0,0,1,1.23.17,2.89,2.89,0,0,1,1,.51,2.25,2.25,0,0,1,.64.85,2.94,2.94,0,0,1,.23,1.19v3.52a4,4,0,0,0,.3,1.7v.13ZM222.11,28a2.12,2.12,0,0,0,.57-.08,3.14,3.14,0,0,0,.49-.21,1.85,1.85,0,0,0,.37-.31,1.67,1.67,0,0,0,.26-.35V25.58h-1a2.63,2.63,0,0,0-1.49.34,1.13,1.13,0,0,0-.5,1,1.23,1.23,0,0,0,.08.44,1,1,0,0,0,.25.36.94.94,0,0,0,.39.23A1.45,1.45,0,0,0,222.11,28Z"/><path class="cls-1" d="M229.67,19.45v1.92h1.4v1.32h-1.4v4.43a1.37,1.37,0,0,0,.06.44.62.62,0,0,0,.17.26.57.57,0,0,0,.26.12,1.69,1.69,0,0,0,.33,0,2.17,2.17,0,0,0,.36,0l.27-.05v1.38l-.5.11a3.3,3.3,0,0,1-.68.06,2.64,2.64,0,0,1-.81-.12,1.58,1.58,0,0,1-1.08-1.07,2.88,2.88,0,0,1-.16-1V22.69h-1.3V21.37h1.3V19.45Z"/><path class="cls-1" d="M235.92,29.45a4,4,0,0,1-1.58-.3,3.46,3.46,0,0,1-1.2-.8,3.68,3.68,0,0,1-.75-1.22,4.17,4.17,0,0,1-.26-1.51v-.3a4.76,4.76,0,0,1,.28-1.69,3.59,3.59,0,0,1,.76-1.29,3.2,3.2,0,0,1,1.14-.82,3.3,3.3,0,0,1,1.41-.29,3.52,3.52,0,0,1,1.5.29,2.8,2.8,0,0,1,1.05.81,3.29,3.29,0,0,1,.62,1.24,5.52,5.52,0,0,1,.21,1.57v.76h-5.18a2.86,2.86,0,0,0,.2.85,2,2,0,0,0,.42.67,1.88,1.88,0,0,0,.64.44A2.07,2.07,0,0,0,236,28a2.35,2.35,0,0,0,1.15-.27A2.62,2.62,0,0,0,238,27l1,.91a2.64,2.64,0,0,1-.47.55,3.29,3.29,0,0,1-.66.48,3.87,3.87,0,0,1-.85.34A4.35,4.35,0,0,1,235.92,29.45Zm-.21-6.79a1.49,1.49,0,0,0-1.18.51A2.57,2.57,0,0,0,234,24.6h3.39v-.13a3,3,0,0,0-.11-.68,1.84,1.84,0,0,0-.28-.58,1.41,1.41,0,0,0-.5-.4A1.65,1.65,0,0,0,235.71,22.66Z"/><path class="cls-1" d="M246.24,27.82h4.84V29.3h-6.69V18.64h1.85Z"/><path class="cls-1" d="M252.33,19.32a.94.94,0,0,1,.26-.68,1,1,0,0,1,.75-.28.94.94,0,0,1,.74.28,1,1,0,0,1,0,1.35,1,1,0,0,1-.74.26,1,1,0,0,1-.75-.26A.94.94,0,0,1,252.33,19.32Zm1.89,10h-1.78V21.37h1.78Z"/><path class="cls-1" d="M263.12,25.42a6,6,0,0,1-.21,1.62,3.81,3.81,0,0,1-.59,1.27,2.67,2.67,0,0,1-1,.84,2.88,2.88,0,0,1-1.34.3,2.92,2.92,0,0,1-1.26-.26,2.7,2.7,0,0,1-.9-.75l-.09.86h-1.61V18.05h1.78v4.09a2.52,2.52,0,0,1,.88-.68,3.19,3.19,0,0,1,2.54.07,2.66,2.66,0,0,1,1,.83,3.72,3.72,0,0,1,.59,1.27,6.44,6.44,0,0,1,.2,1.63Zm-1.78-.16a5.18,5.18,0,0,0-.09-1,2.33,2.33,0,0,0-.29-.83,1.61,1.61,0,0,0-.54-.56,2,2,0,0,0-1.87.07,1.71,1.71,0,0,0-.61.74V27a1.8,1.8,0,0,0,.61.75,1.72,1.72,0,0,0,1,.29,1.57,1.57,0,0,0,.83-.21,1.5,1.5,0,0,0,.54-.55,2.43,2.43,0,0,0,.3-.81,5.34,5.34,0,0,0,.09-1Z"/><path class="cls-1" d="M268.76,23l-.36,0-.37,0a2,2,0,0,0-1,.25,1.55,1.55,0,0,0-.6.69V29.3H264.6V21.37h1.7l.05.89a2.34,2.34,0,0,1,.74-.76,1.94,1.94,0,0,1,1-.27l.35,0a1.59,1.59,0,0,1,.28.07Z"/><path class="cls-1" d="M274.39,29.3a3,3,0,0,1-.12-.33c0-.13-.06-.26-.08-.41a3.17,3.17,0,0,1-.39.34,2.55,2.55,0,0,1-.48.29,3.07,3.07,0,0,1-.56.19,3.32,3.32,0,0,1-.65.07,3.16,3.16,0,0,1-1.09-.18,2.55,2.55,0,0,1-.85-.5,2.17,2.17,0,0,1-.56-.75,2.12,2.12,0,0,1-.2-.94,2.57,2.57,0,0,1,.24-1.13,2.29,2.29,0,0,1,.7-.82,3.34,3.34,0,0,1,1.13-.5,6.45,6.45,0,0,1,1.53-.17h1.12v-.52a1.24,1.24,0,0,0-1.39-1.36,1.7,1.7,0,0,0-.57.09,1.4,1.4,0,0,0-.44.22,1.06,1.06,0,0,0-.28.35,1,1,0,0,0-.09.42h-1.78a1.83,1.83,0,0,1,.23-.9,2.4,2.4,0,0,1,.65-.78,3.48,3.48,0,0,1,1-.55,4.35,4.35,0,0,1,1.35-.2,4.3,4.3,0,0,1,1.23.17,3,3,0,0,1,1,.51,2.33,2.33,0,0,1,.63.85,2.78,2.78,0,0,1,.23,1.19v3.52a4,4,0,0,0,.3,1.7v.13ZM272.44,28a2.07,2.07,0,0,0,.57-.08,3.14,3.14,0,0,0,.49-.21,1.91,1.91,0,0,0,.38-.31,1.61,1.61,0,0,0,.25-.35V25.58h-1a2.59,2.59,0,0,0-1.48.34,1.11,1.11,0,0,0-.5,1,1,1,0,0,0,.08.44.88.88,0,0,0,.24.36,1.09,1.09,0,0,0,.39.23A1.45,1.45,0,0,0,272.44,28Z"/><path class="cls-1" d="M281.92,23l-.35,0-.37,0a2,2,0,0,0-1.05.25,1.55,1.55,0,0,0-.6.69V29.3h-1.78V21.37h1.7l0,.89a2.37,2.37,0,0,1,.75-.76,1.94,1.94,0,0,1,1-.27l.35,0a1.59,1.59,0,0,1,.28.07Z"/><path class="cls-1" d="M286,26.75l1.61-5.38h1.9l-3.15,9.13a5,5,0,0,1-.29.65,2.62,2.62,0,0,1-.47.65,2.46,2.46,0,0,1-.7.5,2.35,2.35,0,0,1-1,.2,2.28,2.28,0,0,1-.45,0l-.41-.09V31l.18,0h.16a3.3,3.3,0,0,0,.58-.05,1.33,1.33,0,0,0,.42-.18,1.26,1.26,0,0,0,.32-.33,2.43,2.43,0,0,0,.23-.51l.26-.68-2.78-7.89h1.92Z"/><path class="cls-1" d="M298.76,18.64h1.84v7.47a3.74,3.74,0,0,1-.26,1.42,2.86,2.86,0,0,1-.72,1,3.07,3.07,0,0,1-1.11.65,4.09,4.09,0,0,1-1.39.23,5.15,5.15,0,0,1-1.4-.19,3.06,3.06,0,0,1-1.1-.59,2.63,2.63,0,0,1-.72-1,3.41,3.41,0,0,1-.26-1.41h1.84a2.3,2.3,0,0,0,.12.79,1.38,1.38,0,0,0,.34.52,1.23,1.23,0,0,0,.52.3,2,2,0,0,0,.66.1,1.76,1.76,0,0,0,.66-.12,1.43,1.43,0,0,0,.52-.36,1.72,1.72,0,0,0,.33-.58,2.17,2.17,0,0,0,.13-.8Z"/><path class="cls-1" d="M306,29.45a4,4,0,0,1-1.59-.3,3.52,3.52,0,0,1-1.19-.8,3.38,3.38,0,0,1-.75-1.22,4.17,4.17,0,0,1-.27-1.51v-.3a4.76,4.76,0,0,1,.28-1.69,3.9,3.9,0,0,1,.76-1.29,3.2,3.2,0,0,1,1.14-.82,3.36,3.36,0,0,1,1.41-.29,3.46,3.46,0,0,1,1.5.29,2.76,2.76,0,0,1,1.06.81,3.44,3.44,0,0,1,.62,1.24,5.53,5.53,0,0,1,.2,1.57v.76H304a2.86,2.86,0,0,0,.19.85,2.2,2.2,0,0,0,.43.67,1.79,1.79,0,0,0,.64.44,2.07,2.07,0,0,0,.84.17,2.29,2.29,0,0,0,1.14-.27,2.66,2.66,0,0,0,.85-.72l1,.91a3,3,0,0,1-.47.55A3.29,3.29,0,0,1,308,29a4,4,0,0,1-.86.34A4.27,4.27,0,0,1,306,29.45Zm-.22-6.79a1.51,1.51,0,0,0-1.18.51,2.64,2.64,0,0,0-.57,1.43h3.39v-.13a3.71,3.71,0,0,0-.12-.68,1.65,1.65,0,0,0-.28-.58,1.37,1.37,0,0,0-.49-.4A1.7,1.7,0,0,0,305.82,22.66Z"/><path class="cls-1" d="M312.25,21.37l.05.92a2.8,2.8,0,0,1,1-.78,3,3,0,0,1,1.3-.28,3.07,3.07,0,0,1,1,.16,1.83,1.83,0,0,1,.8.51,2.16,2.16,0,0,1,.5.91,4.55,4.55,0,0,1,.18,1.37V29.3h-1.78V24.16a2.31,2.31,0,0,0-.09-.69A1.09,1.09,0,0,0,315,23a1,1,0,0,0-.44-.26,2.15,2.15,0,0,0-.6-.07A1.67,1.67,0,0,0,313,23a1.93,1.93,0,0,0-.65.71V29.3h-1.78V21.37Z"/><path class="cls-1" d="M323.67,29.3a1.27,1.27,0,0,1-.12-.33c0-.13-.06-.26-.08-.41a2.66,2.66,0,0,1-.4.34,2.47,2.47,0,0,1-.47.29,3.18,3.18,0,0,1-.57.19,3.22,3.22,0,0,1-.64.07,3.16,3.16,0,0,1-1.09-.18,2.6,2.6,0,0,1-.86-.5,2.46,2.46,0,0,1-.56-.75,2.26,2.26,0,0,1-.2-.94,2.57,2.57,0,0,1,.24-1.13,2.32,2.32,0,0,1,.71-.82,3.26,3.26,0,0,1,1.13-.5,6.45,6.45,0,0,1,1.53-.17h1.12v-.52a1.41,1.41,0,0,0-.35-1,1.37,1.37,0,0,0-1-.37,1.81,1.81,0,0,0-.58.09,1.34,1.34,0,0,0-.43.22,1.06,1.06,0,0,0-.28.35,1,1,0,0,0-.1.42h-1.78a1.94,1.94,0,0,1,.23-.9,2.57,2.57,0,0,1,.66-.78,3.25,3.25,0,0,1,1-.55,4.35,4.35,0,0,1,1.35-.2,4.4,4.4,0,0,1,1.23.17,3,3,0,0,1,1,.51,2.25,2.25,0,0,1,.64.85,2.94,2.94,0,0,1,.23,1.19v3.52a4,4,0,0,0,.3,1.7v.13ZM321.72,28a2.12,2.12,0,0,0,.57-.08,2.67,2.67,0,0,0,.48-.21,1.88,1.88,0,0,0,.64-.66V25.58h-1a2.63,2.63,0,0,0-1.49.34,1.13,1.13,0,0,0-.5,1,1.23,1.23,0,0,0,.08.44,1,1,0,0,0,.25.36.94.94,0,0,0,.39.23A1.45,1.45,0,0,0,321.72,28Z"/></g></g></svg>