<svg xmlns="http://www.w3.org/2000/svg" viewBox="0 0 194.38 86.94"><defs><style>.cls-1{fill:#002f5d;}</style></defs><g id="Ebene_2" data-name="Ebene 2"><g id="Ebene_1-2" data-name="Ebene 1"><path class="cls-1" d="M120.12,0h-6.28V44.64a8,8,0,0,0,8,8h6.31V8.05A8.06,8.06,0,0,0,120.12,0Z"/><path class="cls-1" d="M20.89,8.06a8.05,8.05,0,0,0-8-8.06H6.56V12.17H0V25.11H3.2a3.35,3.35,0,0,1,3.35,3.34v4A20.18,20.18,0,0,0,26.78,52.66c.32,0,.65,0,1,0l.62,0V40.3l-.58-.06a7.87,7.87,0,0,1-6.9-7.8V25.11h7.48V12.17H20.89Z"/><path class="cls-1" d="M170.86,17.57c-4.83-4.3-11.65-6.33-17.45-4.25a25,25,0,0,0-6.08,3.12V8.05a8,8,0,0,0-8-8H133V52.67h11.29l1-1.1a3,3,0,0,1,3.54-.73,19.47,19.47,0,0,0,7.27,1.75,20.19,20.19,0,0,0,21.21-20.21A20,20,0,0,0,170.86,17.57ZM156.93,41a8.76,8.76,0,0,1-6.57-2,8.71,8.71,0,0,1,0-13.15,8.76,8.76,0,0,1,6.57-2,8.65,8.65,0,0,1,0,17.17Z"/><path class="cls-1" d="M109.25,32.37V20.76a8.06,8.06,0,0,0-8.06-8.06h-.07l-6.24.05V32.37a8.39,8.39,0,0,1-1.21,4.4c-.08.13-.16.26-.25.39l-.15.23c-.13.19-.28.37-.42.55l0,0c-.16.19-.33.38-.51.56h0c-.14.13-.27.27-.41.39l-.13.1A8.33,8.33,0,0,1,87.26,41a9.48,9.48,0,0,1-1.07,0H86l-.53,0h-.16a8,8,0,0,1-2.72-.79,8.83,8.83,0,0,1-1.91-1.22,9.84,9.84,0,0,1-3.44-6.41c-.71-5.29-1.26-10-3.7-13.09-3.64-4.65-8.91-6.72-12.48-6.72-5.65,0-10.76,2-13.31,6.53V8.05a8,8,0,0,0-8-8h-6.3V52.67H47.78V32.38h0a9.13,9.13,0,0,1,.31-2.21,8.63,8.63,0,0,1,2.68-4.36,7.93,7.93,0,0,1,1-.73,8.38,8.38,0,0,1,1-.55,8.85,8.85,0,0,1,4.53-.74c.15,0,.3.05.45.07,4.35.7,6.88,4.12,7.16,8.48.4,6.19,2.41,11.13,6.42,14.83a20.4,20.4,0,0,0,14.79,5.41,19.47,19.47,0,0,0,7.27-1.75,3.05,3.05,0,0,1,3.55.72l1,1.11h11.29V32.37Z"/><path class="cls-1" d="M33.52,74.09a12.37,12.37,0,0,1,.64-2.69A9.41,9.41,0,0,1,35.44,69a6.26,6.26,0,0,1,2-1.71,5.18,5.18,0,0,1,2.7-.62,5.09,5.09,0,0,1,2,.43,3.82,3.82,0,0,1,1.56,1.3l.49-1.47H47L44.67,80.88a7.43,7.43,0,0,1-.81,2.54,6.53,6.53,0,0,1-3.7,3.14,7.56,7.56,0,0,1-2.65.38,7,7,0,0,1-1.43-.18,6.55,6.55,0,0,1-1.37-.48,6.47,6.47,0,0,1-1.23-.76,5.09,5.09,0,0,1-1-1l1.67-1.9a4.35,4.35,0,0,0,1.42,1.29,3.85,3.85,0,0,0,1.86.5,4.09,4.09,0,0,0,1.51-.21,3.93,3.93,0,0,0,1.2-.68A4.08,4.08,0,0,0,41,82.42,5.71,5.71,0,0,0,41.56,81l.22-1a5.84,5.84,0,0,1-1.72,1.17,4.67,4.67,0,0,1-2,.38,4.24,4.24,0,0,1-1.69-.34,4.07,4.07,0,0,1-1.25-.85,4.77,4.77,0,0,1-.87-1.24,6.38,6.38,0,0,1-.54-1.5A9.57,9.57,0,0,1,33.46,76a9.69,9.69,0,0,1,0-1.62Zm3.12.28a9.78,9.78,0,0,0-.06,1.46,4.92,4.92,0,0,0,.25,1.47,2.57,2.57,0,0,0,.74,1.13,2.07,2.07,0,0,0,1.39.49,3.15,3.15,0,0,0,1.77-.43,5.09,5.09,0,0,0,1.36-1.23l1.12-6.34a2.65,2.65,0,0,0-1-1.2,2.84,2.84,0,0,0-1.49-.43,3.13,3.13,0,0,0-1.7.41,4,4,0,0,0-1.22,1.14,6.07,6.07,0,0,0-.77,1.55,10,10,0,0,0-.41,1.7Z"/><path class="cls-1" d="M56.68,79.86a5.26,5.26,0,0,1-1.85,1.29,5.46,5.46,0,0,1-2.23.39,4.26,4.26,0,0,1-2-.46,3.4,3.4,0,0,1-1.24-1.17,4.39,4.39,0,0,1-.61-1.68,7.52,7.52,0,0,1,0-2l1.55-9.28h3.14l-1.56,9.32a4.41,4.41,0,0,0,0,1,2.26,2.26,0,0,0,.21.85,1.6,1.6,0,0,0,.53.6,1.81,1.81,0,0,0,.91.26,3.94,3.94,0,0,0,1.91-.39,4.31,4.31,0,0,0,1.46-1.28l1.8-10.32h3.14L59.34,81.28H56.4Z"/><path class="cls-1" d="M69.67,63.45l-.61,3.48h2.45l-.41,2.39H68.64l-1.36,8a3.14,3.14,0,0,0,0,.61,1.24,1.24,0,0,0,.14.46.77.77,0,0,0,.34.3,1.34,1.34,0,0,0,.58.13,5.15,5.15,0,0,0,1.11-.12l-.21,2.52a7,7,0,0,1-2,.28,3.44,3.44,0,0,1-1.51-.33,2.71,2.71,0,0,1-1-.86,3.34,3.34,0,0,1-.53-1.28,5.28,5.28,0,0,1-.06-1.55l1.33-8.19H63.2l.43-2.39h2.28l.61-3.48Z"/><path class="cls-1" d="M82.22,78.7h7.31l-.41,2.58H77.81L78.17,79l8.44-9.51H79.77l.41-2.6H91.09l-.33,2.18Z"/><path class="cls-1" d="M100.41,79.86a5.26,5.26,0,0,1-1.85,1.29,5.46,5.46,0,0,1-2.23.39,4.26,4.26,0,0,1-2-.46,3.4,3.4,0,0,1-1.24-1.17,4.39,4.39,0,0,1-.61-1.68,8,8,0,0,1,0-2L94,66.93h3.14L95.6,76.25a4.41,4.41,0,0,0,0,1,2.47,2.47,0,0,0,.21.85,1.6,1.6,0,0,0,.53.6,1.81,1.81,0,0,0,.91.26,3.94,3.94,0,0,0,1.91-.39,4.31,4.31,0,0,0,1.46-1.28l1.8-10.32h3.14l-2.47,14.35h-3Z"/><path class="cls-1" d="M126,76.81l3.93-9.88h3.16l-6.28,14.35h-2.59L123,71.47l-4.64,9.81h-2.6l-1.31-14.35h3l.54,9.73,4.54-9.73h2.37Z"/><path class="cls-1" d="M136.09,81.28H133l2.49-14.35h3.15Zm-.19-18a1.87,1.87,0,0,1,.13-.71,1.92,1.92,0,0,1,.36-.56,1.66,1.66,0,0,1,.56-.37,2,2,0,0,1,.71-.15,1.73,1.73,0,0,1,.69.11,1.63,1.63,0,0,1,.57.34,1.75,1.75,0,0,1,.38.54,1.6,1.6,0,0,1,.15.7,1.78,1.78,0,0,1-.14.7,1.57,1.57,0,0,1-.37.55,1.8,1.8,0,0,1-.56.36,2,2,0,0,1-.7.15,1.76,1.76,0,0,1-.69-.11,1.63,1.63,0,0,1-.56-.33A1.87,1.87,0,0,1,136,64,1.52,1.52,0,0,1,135.9,63.26Z"/><path class="cls-1" d="M148.17,77.3a1.21,1.21,0,0,0-.14-.88,1.7,1.7,0,0,0-.62-.57,3.61,3.61,0,0,0-.85-.35l-.87-.23a13.68,13.68,0,0,1-1.62-.51,5.76,5.76,0,0,1-1.47-.8,4.08,4.08,0,0,1-1-1.18,3.06,3.06,0,0,1-.35-1.67,3.73,3.73,0,0,1,.58-2,4.94,4.94,0,0,1,1.37-1.4,6.14,6.14,0,0,1,1.84-.83,7.4,7.4,0,0,1,2-.26,6.42,6.42,0,0,1,2,.32,4.79,4.79,0,0,1,1.64.88,4.08,4.08,0,0,1,1.11,1.42,4.25,4.25,0,0,1,.4,2H149a2.06,2.06,0,0,0-.55-1.56,2.25,2.25,0,0,0-1.56-.59,3.48,3.48,0,0,0-.9.12,2.9,2.9,0,0,0-.81.34,2.33,2.33,0,0,0-.63.58,1.83,1.83,0,0,0-.32.83,1,1,0,0,0,.15.83,1.7,1.7,0,0,0,.61.51,3.16,3.16,0,0,0,.83.31l.8.21c.57.15,1.13.33,1.69.53a5.57,5.57,0,0,1,1.51.8,4,4,0,0,1,1.06,1.21,3.41,3.41,0,0,1,.36,1.75,3.92,3.92,0,0,1-.63,2,4.86,4.86,0,0,1-1.43,1.39,6.5,6.5,0,0,1-1.93.8,8.23,8.23,0,0,1-2.08.22,6.74,6.74,0,0,1-2.06-.34,5.25,5.25,0,0,1-1.73-.93,4.54,4.54,0,0,1-1.19-1.49,4.31,4.31,0,0,1-.43-2l3,0a2.33,2.33,0,0,0,.69,1.75,2.71,2.71,0,0,0,1.82.61,4.88,4.88,0,0,0,.92-.1,3.27,3.27,0,0,0,.88-.3,2.18,2.18,0,0,0,.68-.57A1.73,1.73,0,0,0,148.17,77.3Z"/><path class="cls-1" d="M161.89,77.3a1.21,1.21,0,0,0-.14-.88,1.7,1.7,0,0,0-.62-.57,3.61,3.61,0,0,0-.85-.35l-.87-.23a13.68,13.68,0,0,1-1.62-.51,5.76,5.76,0,0,1-1.47-.8,4.08,4.08,0,0,1-1-1.18,3.06,3.06,0,0,1-.35-1.67,3.73,3.73,0,0,1,.58-2,4.94,4.94,0,0,1,1.37-1.4,6.14,6.14,0,0,1,1.84-.83,7.4,7.4,0,0,1,2-.26,6.42,6.42,0,0,1,2,.32,4.79,4.79,0,0,1,1.64.88,4.08,4.08,0,0,1,1.11,1.42,4.25,4.25,0,0,1,.4,2h-3.11a2.06,2.06,0,0,0-.55-1.56,2.25,2.25,0,0,0-1.56-.59,3.48,3.48,0,0,0-.9.12,2.9,2.9,0,0,0-.81.34,2.33,2.33,0,0,0-.63.58A2,2,0,0,0,158,71a1.08,1.08,0,0,0,.16.83,1.62,1.62,0,0,0,.61.51,3.09,3.09,0,0,0,.82.31l.81.21c.57.15,1.13.33,1.69.53a5.72,5.72,0,0,1,1.51.8,4,4,0,0,1,1.06,1.21,3.41,3.41,0,0,1,.36,1.75,3.92,3.92,0,0,1-.63,2,4.77,4.77,0,0,1-1.44,1.39,6.44,6.44,0,0,1-1.92.8,8.28,8.28,0,0,1-2.08.22,6.69,6.69,0,0,1-2.06-.34,5.25,5.25,0,0,1-1.73-.93,4.54,4.54,0,0,1-1.19-1.49,4.31,4.31,0,0,1-.43-2l3,0a2.33,2.33,0,0,0,.69,1.75,2.71,2.71,0,0,0,1.82.61A4.88,4.88,0,0,0,160,79a3.2,3.2,0,0,0,.87-.3,2.11,2.11,0,0,0,.69-.57A1.83,1.83,0,0,0,161.89,77.3Z"/><path class="cls-1" d="M173.38,81.54a6.06,6.06,0,0,1-2.59-.58,5.23,5.23,0,0,1-1.85-1.49,5.8,5.8,0,0,1-1-2.18,7.93,7.93,0,0,1-.19-2.64l.06-.55a9.76,9.76,0,0,1,.74-2.79,8.51,8.51,0,0,1,1.52-2.4,7.06,7.06,0,0,1,2.22-1.67,6.07,6.07,0,0,1,2.85-.57,5.22,5.22,0,0,1,2.53.64,4.57,4.57,0,0,1,1.62,1.59,5.9,5.9,0,0,1,.78,2.25,9.41,9.41,0,0,1,0,2.6l-.21,1.38h-9a5.1,5.1,0,0,0,.07,1.41,3.6,3.6,0,0,0,.47,1.21,2.71,2.71,0,0,0,.92.86,3.06,3.06,0,0,0,1.38.35,4.1,4.1,0,0,0,2.07-.46,6.25,6.25,0,0,0,1.69-1.31L179,78.86a5.78,5.78,0,0,1-1.11,1.2,6.16,6.16,0,0,1-1.36.84,6.53,6.53,0,0,1-1.53.5A8.06,8.06,0,0,1,173.38,81.54Zm1.54-12.3a2.86,2.86,0,0,0-1.4.28,3.65,3.65,0,0,0-1.07.81,5.14,5.14,0,0,0-.79,1.14,13.4,13.4,0,0,0-.56,1.3l6,0,.07-.29a4.33,4.33,0,0,0,0-1.19,2.62,2.62,0,0,0-.34-1,2.1,2.1,0,0,0-.74-.74A2.35,2.35,0,0,0,174.92,69.24Z"/><path class="cls-1" d="M186.7,66.92l-.32,1.68a6.38,6.38,0,0,1,1.91-1.43,5,5,0,0,1,2.35-.5,4,4,0,0,1,1.93.47,3.36,3.36,0,0,1,1.19,1.18,4.49,4.49,0,0,1,.56,1.7,8.8,8.8,0,0,1,0,2l-1.55,9.27h-3.15L191.21,72a4.63,4.63,0,0,0,0-1,2,2,0,0,0-.26-.85,1.48,1.48,0,0,0-.6-.56,2.33,2.33,0,0,0-1-.22,3.14,3.14,0,0,0-1.78.49,5.32,5.32,0,0,0-1.36,1.28l-1.79,10.22h-3.14l2.47-14.35Z"/></g></g></svg>