<svg xmlns="http://www.w3.org/2000/svg" viewBox="0 0 386.25 52.67"><defs><style>.cls-1{fill:#fff;}.cls-2{fill:none;stroke:#fff;stroke-miterlimit:10;}</style></defs><g id="Ebene_2" data-name="Ebene 2"><g id="Ebene_1-2" data-name="Ebene 1"><path class="cls-1" d="M120.12,0h-6.28V44.64a8,8,0,0,0,8,8h6.31V8.05A8.06,8.06,0,0,0,120.12,0Z"/><path class="cls-1" d="M20.89,8.06a8.05,8.05,0,0,0-8-8.06H6.56V12.17H0V25.11H3.2a3.35,3.35,0,0,1,3.35,3.34v4A20.18,20.18,0,0,0,26.78,52.66c.32,0,.65,0,1,0l.62,0V40.3l-.58-.06a7.87,7.87,0,0,1-6.9-7.8V25.11h7.48V12.17H20.89Z"/><path class="cls-1" d="M170.86,17.57c-4.83-4.3-11.65-6.33-17.45-4.25a25,25,0,0,0-6.08,3.12V8.05a8,8,0,0,0-8-8H133V52.67h11.29l1-1.1a3,3,0,0,1,3.54-.73,19.47,19.47,0,0,0,7.27,1.75,20.19,20.19,0,0,0,21.21-20.21A20,20,0,0,0,170.86,17.57ZM156.93,41a8.76,8.76,0,0,1-6.57-2,8.71,8.71,0,0,1,0-13.15,8.76,8.76,0,0,1,6.57-2,8.65,8.65,0,0,1,0,17.17Z"/><path class="cls-1" d="M109.25,32.37V20.76a8.06,8.06,0,0,0-8.06-8.06h-.07l-6.24.05V32.37a8.39,8.39,0,0,1-1.21,4.4c-.08.13-.16.26-.25.39l-.15.23c-.13.19-.28.37-.42.55l0,0c-.16.19-.33.38-.51.56h0c-.14.13-.27.27-.41.39l-.13.1A8.33,8.33,0,0,1,87.26,41a9.48,9.48,0,0,1-1.07,0H86l-.53,0h-.16a8,8,0,0,1-2.72-.79,8.83,8.83,0,0,1-1.91-1.22,9.84,9.84,0,0,1-3.44-6.41c-.71-5.29-1.26-10-3.7-13.09-3.64-4.65-8.91-6.72-12.48-6.72-5.65,0-10.76,2-13.31,6.53V8.05a8,8,0,0,0-8-8h-6.3V52.67H47.78V32.38h0a9.13,9.13,0,0,1,.31-2.21,8.63,8.63,0,0,1,2.68-4.36,7.93,7.93,0,0,1,1-.73,8.38,8.38,0,0,1,1-.55,8.85,8.85,0,0,1,4.53-.74c.15,0,.3.05.45.07,4.35.7,6.88,4.12,7.16,8.48.4,6.19,2.41,11.13,6.42,14.83a20.4,20.4,0,0,0,14.79,5.41,19.47,19.47,0,0,0,7.27-1.75,3.05,3.05,0,0,1,3.55.72l1,1.11h11.29V32.37Z"/><path class="cls-1" d="M213.4,2.08h-3.32v9.17h-1.84V2.08h-3.3V.59h8.46Z"/><path class="cls-1" d="M216.38,4.19a2.89,2.89,0,0,1,1-.74,2.79,2.79,0,0,1,1.24-.27,3.17,3.17,0,0,1,1,.16,2,2,0,0,1,.82.52,2.47,2.47,0,0,1,.52.92,4.6,4.6,0,0,1,.18,1.37v5.1h-1.78V6.14A1.58,1.58,0,0,0,219,5,1.46,1.46,0,0,0,218,4.64a1.7,1.7,0,0,0-.95.25,1.91,1.91,0,0,0-.65.7v5.66h-1.77V0h1.77Z"/><path class="cls-1" d="M227.76,10.47a2.48,2.48,0,0,1-.92.68,3.09,3.09,0,0,1-1.31.25,3.23,3.23,0,0,1-1.06-.17,2.05,2.05,0,0,1-.83-.52,2.46,2.46,0,0,1-.53-.91,4.19,4.19,0,0,1-.19-1.35V3.33h1.78V8.47a2.09,2.09,0,0,0,.1.71,1.23,1.23,0,0,0,.27.45,1,1,0,0,0,.4.25A1.92,1.92,0,0,0,226,10a2.22,2.22,0,0,0,1.11-.25A1.61,1.61,0,0,0,227.7,9V3.33h1.78v7.92H227.8Zm-4.14-9.22a.83.83,0,0,1,.25-.62.88.88,0,0,1,.67-.25.93.93,0,0,1,.69.25.86.86,0,0,1,.24.62.85.85,0,0,1-.24.61.93.93,0,0,1-.69.25.88.88,0,0,1-.67-.25A.82.82,0,0,1,223.62,1.25Zm3.34,0a.81.81,0,0,1,.25-.61.91.91,0,0,1,.68-.25.89.89,0,0,1,.68.25.81.81,0,0,1,.25.61.83.83,0,0,1-.25.62.93.93,0,0,1-.68.25,1,1,0,0,1-.68-.25A.83.83,0,0,1,227,1.25Z"/><path class="cls-1" d="M235.44,5l-.35,0-.37,0a2,2,0,0,0-1.05.25,1.55,1.55,0,0,0-.6.69v5.42h-1.78V3.33H233l0,.88a2.37,2.37,0,0,1,.75-.76,1.94,1.94,0,0,1,1-.27l.35,0a1.59,1.59,0,0,1,.28.07Z"/><path class="cls-1" d="M236.57,1.27a.94.94,0,0,1,.26-.68,1.13,1.13,0,0,1,1.49,0,.9.9,0,0,1,.26.68.9.9,0,0,1-.26.67,1.16,1.16,0,0,1-1.49,0A.94.94,0,0,1,236.57,1.27Zm1.89,10h-1.78V3.33h1.78Z"/><path class="cls-1" d="M242.05,3.33l0,.91a2.8,2.8,0,0,1,1-.78,3,3,0,0,1,1.31-.28,3.05,3.05,0,0,1,1,.16,1.83,1.83,0,0,1,.8.51,2.28,2.28,0,0,1,.51.91,4.55,4.55,0,0,1,.18,1.37v5.12h-1.78V6.12a2.33,2.33,0,0,0-.09-.7,1.18,1.18,0,0,0-.27-.45,1,1,0,0,0-.44-.26,2.12,2.12,0,0,0-.59-.07,1.68,1.68,0,0,0-1,.26,1.93,1.93,0,0,0-.65.71v5.64h-1.78V3.33Z"/><path class="cls-1" d="M248.43,7.23a5.73,5.73,0,0,1,.22-1.65,3.83,3.83,0,0,1,.63-1.28,3.07,3.07,0,0,1,3.56-.88,2.74,2.74,0,0,1,.89.7l.08-.79h1.61V11a3.53,3.53,0,0,1-.27,1.42,2.92,2.92,0,0,1-.73,1.05,3.36,3.36,0,0,1-1.14.65,4.5,4.5,0,0,1-1.45.22,4.08,4.08,0,0,1-.74-.07,4.31,4.31,0,0,1-.81-.23,4.11,4.11,0,0,1-.78-.4,2.65,2.65,0,0,1-.64-.61L249.7,12a2.77,2.77,0,0,0,1,.75,2.62,2.62,0,0,0,1.06.22,2,2,0,0,0,1.4-.48,1.85,1.85,0,0,0,.52-1.41v-.53a2.62,2.62,0,0,1-.88.64,3.05,3.05,0,0,1-1.17.22,2.81,2.81,0,0,1-1.31-.31,3,3,0,0,1-1-.84A3.78,3.78,0,0,1,248.65,9a5.43,5.43,0,0,1-.22-1.6Zm1.77.15a4.57,4.57,0,0,0,.11,1,2.46,2.46,0,0,0,.33.81,1.69,1.69,0,0,0,.57.56,1.67,1.67,0,0,0,.83.2,1.72,1.72,0,0,0,1-.26,1.91,1.91,0,0,0,.62-.67V5.54a1.88,1.88,0,0,0-.62-.66,1.81,1.81,0,0,0-1-.24,1.67,1.67,0,0,0-.83.2,1.64,1.64,0,0,0-.58.56,2.52,2.52,0,0,0-.33.82,4.67,4.67,0,0,0-.11,1Z"/><path class="cls-1" d="M260.73,11.4a4,4,0,0,1-1.58-.3,3.33,3.33,0,0,1-1.19-.8,3.55,3.55,0,0,1-.76-1.22,4.39,4.39,0,0,1-.26-1.51v-.3a4.76,4.76,0,0,1,.28-1.69A3.74,3.74,0,0,1,258,4.29a3.2,3.2,0,0,1,1.14-.82,3.52,3.52,0,0,1,1.41-.29,3.65,3.65,0,0,1,1.5.29,2.73,2.73,0,0,1,1.05.81,3.46,3.46,0,0,1,.63,1.24,5.91,5.91,0,0,1,.2,1.57v.76h-5.18a2.86,2.86,0,0,0,.2.85,2,2,0,0,0,.43.67,1.79,1.79,0,0,0,.64.44,2,2,0,0,0,.84.17A2.29,2.29,0,0,0,262,9.71a2.66,2.66,0,0,0,.85-.72l1,.91a4,4,0,0,1-.47.56,3.7,3.7,0,0,1-.66.47,4,4,0,0,1-.86.34A4.29,4.29,0,0,1,260.73,11.4Zm-.21-6.79a1.49,1.49,0,0,0-1.18.51,2.72,2.72,0,0,0-.58,1.43h3.39V6.42a3,3,0,0,0-.11-.68,1.65,1.65,0,0,0-.28-.58,1.33,1.33,0,0,0-.5-.4A1.65,1.65,0,0,0,260.52,4.61Z"/><path class="cls-1" d="M269.44,5l-.35,0-.37,0a2,2,0,0,0-1.05.25,1.55,1.55,0,0,0-.6.69v5.42h-1.78V3.33H267l0,.88a2.37,2.37,0,0,1,.75-.76,1.94,1.94,0,0,1,1-.27l.35,0a1.59,1.59,0,0,1,.28.07Z"/><path class="cls-1" d="M282.27.59V7.72a3.78,3.78,0,0,1-.31,1.6,3.2,3.2,0,0,1-.85,1.15,3.74,3.74,0,0,1-1.27.7,5.19,5.19,0,0,1-1.55.23,5.41,5.41,0,0,1-1.59-.23,3.69,3.69,0,0,1-1.26-.7,3,3,0,0,1-.83-1.15,3.94,3.94,0,0,1-.3-1.6V.59h1.84V7.72a3,3,0,0,0,.15,1,1.76,1.76,0,0,0,.43.68,1.74,1.74,0,0,0,.67.4,3.11,3.11,0,0,0,1.78,0,1.67,1.67,0,0,0,.67-.4,1.76,1.76,0,0,0,.43-.68,3,3,0,0,0,.15-1V.59Z"/><path class="cls-1" d="M285.73,3.33l0,.91a2.84,2.84,0,0,1,1-.78,2.92,2.92,0,0,1,1.3-.28,3.11,3.11,0,0,1,1,.16,1.8,1.8,0,0,1,.79.51,2.28,2.28,0,0,1,.51.91,4.55,4.55,0,0,1,.18,1.37v5.12h-1.78V6.12a2.33,2.33,0,0,0-.09-.7,1.06,1.06,0,0,0-.27-.45,1,1,0,0,0-.44-.26,2.12,2.12,0,0,0-.59-.07,1.68,1.68,0,0,0-1,.26,1.93,1.93,0,0,0-.65.71v5.64h-1.78V3.33Z"/><path class="cls-1" d="M292.43,1.27a.9.9,0,0,1,.26-.68,1,1,0,0,1,.74-.28,1,1,0,0,1,.75.28.94.94,0,0,1,.26.68.94.94,0,0,1-.26.67,1,1,0,0,1-.75.27,1,1,0,0,1-.74-.27A.9.9,0,0,1,292.43,1.27Zm1.88,10h-1.78V3.33h1.78Z"/><path class="cls-1" d="M299.05,9l1.67-5.66h1.84l-2.75,7.92h-1.54L295.5,3.33h1.85Z"/><path class="cls-1" d="M307.07,11.4a4,4,0,0,1-1.59-.3,3.43,3.43,0,0,1-2-2,4.39,4.39,0,0,1-.26-1.51v-.3a4.76,4.76,0,0,1,.28-1.69,3.9,3.9,0,0,1,.76-1.29,3.2,3.2,0,0,1,1.14-.82,3.52,3.52,0,0,1,1.41-.29,3.62,3.62,0,0,1,1.5.29,2.76,2.76,0,0,1,1.06.81A3.44,3.44,0,0,1,310,5.52a5.53,5.53,0,0,1,.2,1.57v.76h-5.17a2.86,2.86,0,0,0,.19.85,2.2,2.2,0,0,0,.43.67,1.79,1.79,0,0,0,.64.44,2.07,2.07,0,0,0,.84.17,2.29,2.29,0,0,0,1.14-.27,2.66,2.66,0,0,0,.85-.72l1,.91a3.41,3.41,0,0,1-.47.56,3.7,3.7,0,0,1-.66.47,4,4,0,0,1-.86.34A4.27,4.27,0,0,1,307.07,11.4Zm-.22-6.79a1.51,1.51,0,0,0-1.18.51,2.64,2.64,0,0,0-.57,1.43h3.39V6.42a3.71,3.71,0,0,0-.12-.68,1.65,1.65,0,0,0-.28-.58,1.37,1.37,0,0,0-.49-.4A1.7,1.7,0,0,0,306.85,4.61Z"/><path class="cls-1" d="M315.77,5l-.35,0-.37,0a2,2,0,0,0-1.05.25,1.55,1.55,0,0,0-.6.69v5.42h-1.78V3.33h1.7l0,.88a2.37,2.37,0,0,1,.75-.76,1.94,1.94,0,0,1,1-.27l.35,0a1.59,1.59,0,0,1,.28.07Z"/><path class="cls-1" d="M321.34,9.1a1,1,0,0,0-.06-.36.78.78,0,0,0-.25-.31,2,2,0,0,0-.51-.26,6.48,6.48,0,0,0-.87-.24,8,8,0,0,1-1.16-.33,3.48,3.48,0,0,1-.9-.48,2.13,2.13,0,0,1-.58-.66,1.79,1.79,0,0,1-.21-.88,2.1,2.1,0,0,1,.21-.92,2.33,2.33,0,0,1,.61-.76,3.11,3.11,0,0,1,1-.53,3.89,3.89,0,0,1,1.27-.19,4.23,4.23,0,0,1,1.33.19,3,3,0,0,1,1,.54,2.33,2.33,0,0,1,.63.8,2.39,2.39,0,0,1,.21,1h-1.78a1.17,1.17,0,0,0-.09-.45,1,1,0,0,0-.26-.38,1.37,1.37,0,0,0-.44-.27,1.57,1.57,0,0,0-.6-.1,1.68,1.68,0,0,0-.58.09,1.19,1.19,0,0,0-.42.22.79.79,0,0,0-.24.31.85.85,0,0,0-.09.38.78.78,0,0,0,.08.35.75.75,0,0,0,.26.28,2.15,2.15,0,0,0,.5.23,7.81,7.81,0,0,0,.79.21,8.83,8.83,0,0,1,1.24.34,3.46,3.46,0,0,1,.92.48,2,2,0,0,1,.57.68,1.92,1.92,0,0,1,.2.92,2.1,2.1,0,0,1-.23,1,2.3,2.3,0,0,1-.64.76,3.33,3.33,0,0,1-1,.49,4.48,4.48,0,0,1-1.32.18,4.26,4.26,0,0,1-1.44-.23,3.58,3.58,0,0,1-1.05-.61,2.68,2.68,0,0,1-.64-.84,2.4,2.4,0,0,1-.22-1h1.73a1.41,1.41,0,0,0,.17.62,1.21,1.21,0,0,0,.38.4,1.46,1.46,0,0,0,.51.22,2.25,2.25,0,0,0,.58.07A1.86,1.86,0,0,0,321,9.8.83.83,0,0,0,321.34,9.1Z"/><path class="cls-1" d="M324.64,1.27a.94.94,0,0,1,.26-.68,1,1,0,0,1,.75-.28,1,1,0,0,1,.74.28.91.91,0,0,1,.27.68.9.9,0,0,1-.27.67,1,1,0,0,1-.74.27,1,1,0,0,1-.75-.27A.94.94,0,0,1,324.64,1.27Zm1.89,10h-1.78V3.33h1.78Z"/><path class="cls-1" d="M330.7,1.4V3.33h1.4V4.64h-1.4V9.07a1.37,1.37,0,0,0,.06.44.54.54,0,0,0,.17.26.57.57,0,0,0,.26.12,1.69,1.69,0,0,0,.33,0,2.17,2.17,0,0,0,.36,0l.26-.05v1.38l-.49.11a3.3,3.3,0,0,1-.68.06,2.64,2.64,0,0,1-.81-.12,1.73,1.73,0,0,1-.66-.38,2,2,0,0,1-.43-.69,3.13,3.13,0,0,1-.15-1V4.64h-1.3V3.33h1.3V1.4Z"/><path class="cls-1" d="M338.19,11.25a1.27,1.27,0,0,1-.12-.33c0-.13-.06-.26-.08-.41a3.17,3.17,0,0,1-.39.34,2.92,2.92,0,0,1-.48.29,3.07,3.07,0,0,1-.56.19,3.41,3.41,0,0,1-.65.07,3.16,3.16,0,0,1-1.09-.18,2.7,2.7,0,0,1-.86-.5,2.28,2.28,0,0,1-.55-.75,2.12,2.12,0,0,1-.2-.94,2.57,2.57,0,0,1,.24-1.13,2.2,2.2,0,0,1,.7-.82,3.55,3.55,0,0,1,1.13-.5,6.45,6.45,0,0,1,1.53-.17h1.12V5.89a1.4,1.4,0,0,0-.34-1,1.39,1.39,0,0,0-1-.37,1.7,1.7,0,0,0-.57.09,1.4,1.4,0,0,0-.44.22,1.06,1.06,0,0,0-.28.35,1,1,0,0,0-.1.42h-1.78a1.84,1.84,0,0,1,.24-.9,2.51,2.51,0,0,1,.65-.78,3.36,3.36,0,0,1,1-.55,4.35,4.35,0,0,1,1.35-.2,4.4,4.4,0,0,1,1.23.17,3,3,0,0,1,1,.51,2.33,2.33,0,0,1,.63.85,2.94,2.94,0,0,1,.23,1.19V9.42a4,4,0,0,0,.3,1.7v.13Zm-4.08-10a.86.86,0,0,1,.24-.62,1,1,0,0,1,1.36,0,.83.83,0,0,1,.25.62.82.82,0,0,1-.25.61,1,1,0,0,1-1.36,0A.85.85,0,0,1,334.11,1.25ZM336.24,10a2.12,2.12,0,0,0,.57-.08,3.14,3.14,0,0,0,.49-.21,1.6,1.6,0,0,0,.37-.31,1.38,1.38,0,0,0,.26-.35V7.53h-1a2.65,2.65,0,0,0-1.49.34,1.12,1.12,0,0,0-.49,1,1,1,0,0,0,.08.44.88.88,0,0,0,.24.36,1,1,0,0,0,.39.23A1.45,1.45,0,0,0,336.24,10Zm1.21-8.72a.81.81,0,0,1,.25-.61.89.89,0,0,1,.68-.25.92.92,0,0,1,.68.25.85.85,0,0,1,.25.61.87.87,0,0,1-.25.62,1,1,0,0,1-.68.25.93.93,0,0,1-.68-.25A.83.83,0,0,1,337.45,1.25Z"/><path class="cls-1" d="M343.8,1.4V3.33h1.4V4.64h-1.4V9.07a1.37,1.37,0,0,0,.06.44.62.62,0,0,0,.17.26.57.57,0,0,0,.26.12,1.69,1.69,0,0,0,.33,0,2.06,2.06,0,0,0,.36,0l.27-.05v1.38l-.5.11a3.3,3.3,0,0,1-.68.06,2.64,2.64,0,0,1-.81-.12,1.69,1.69,0,0,1-.65-.38,1.73,1.73,0,0,1-.43-.69,3.11,3.11,0,0,1-.16-1V4.64h-1.3V3.33H342V1.4Z"/><path class="cls-1" d="M351,9.1a1,1,0,0,0-.06-.36.75.75,0,0,0-.24-.31,2.28,2.28,0,0,0-.52-.26,5.73,5.73,0,0,0-.87-.24,8.41,8.41,0,0,1-1.16-.33,3.48,3.48,0,0,1-.9-.48,2.26,2.26,0,0,1-.58-.66,1.79,1.79,0,0,1-.21-.88,2,2,0,0,1,.22-.92,2.21,2.21,0,0,1,.61-.76,3.06,3.06,0,0,1,1-.53,4,4,0,0,1,1.28-.19,4.17,4.17,0,0,1,1.32.19,2.9,2.9,0,0,1,1,.54,2.12,2.12,0,0,1,.63.8,2.4,2.4,0,0,1,.22,1h-1.78a1.17,1.17,0,0,0-.09-.45,1.1,1.1,0,0,0-.27-.38,1.32,1.32,0,0,0-.43-.27,1.61,1.61,0,0,0-.6-.1,1.7,1.7,0,0,0-.59.09,1.06,1.06,0,0,0-.41.22.73.73,0,0,0-.25.31,1,1,0,0,0-.08.38.78.78,0,0,0,.07.35.84.84,0,0,0,.26.28,2.36,2.36,0,0,0,.5.23c.21.07.48.14.79.21a8.47,8.47,0,0,1,1.24.34,3.46,3.46,0,0,1,.92.48,2.07,2.07,0,0,1,.58.68,2,2,0,0,1,.19.92,2.1,2.1,0,0,1-.22,1,2.34,2.34,0,0,1-.65.76,3.28,3.28,0,0,1-1,.49,4.58,4.58,0,0,1-1.32.18,4.22,4.22,0,0,1-1.44-.23,3.34,3.34,0,0,1-1.05-.61,2.41,2.41,0,0,1-.64-.84,2.25,2.25,0,0,1-.22-1h1.73a1.29,1.29,0,0,0,.17.62,1.18,1.18,0,0,0,.37.4A1.46,1.46,0,0,0,349,10a2.32,2.32,0,0,0,.59.07,1.88,1.88,0,0,0,1.07-.26A.85.85,0,0,0,351,9.1Z"/><path class="cls-1" d="M357.76,7.43h-3.85V6h3.85Z"/><path class="cls-1" d="M367.76,10.47a2.41,2.41,0,0,1-.92.68,3.08,3.08,0,0,1-1.3.25,3.29,3.29,0,0,1-1.07-.17,2,2,0,0,1-.82-.52,2.47,2.47,0,0,1-.54-.91,4.48,4.48,0,0,1-.19-1.35V3.33h1.78V8.47a2.38,2.38,0,0,0,.1.71,1.12,1.12,0,0,0,.28.45.94.94,0,0,0,.4.25A1.84,1.84,0,0,0,366,10a2.29,2.29,0,0,0,1.12-.25A1.65,1.65,0,0,0,367.7,9V3.33h1.78v7.92h-1.67Z"/><path class="cls-1" d="M373,3.33l.05.91a2.8,2.8,0,0,1,1-.78,3,3,0,0,1,1.31-.28,3.05,3.05,0,0,1,1,.16,1.83,1.83,0,0,1,.8.51,2.28,2.28,0,0,1,.51.91,4.55,4.55,0,0,1,.18,1.37v5.12h-1.78V6.12a2,2,0,0,0-.1-.7,1.16,1.16,0,0,0-.26-.45,1,1,0,0,0-.44-.26,2.15,2.15,0,0,0-.6-.07,1.67,1.67,0,0,0-.95.26,1.93,1.93,0,0,0-.65.71v5.64h-1.78V3.33Z"/><path class="cls-1" d="M379.3,7.23a6.1,6.1,0,0,1,.22-1.65,3.82,3.82,0,0,1,.62-1.28,2.82,2.82,0,0,1,1-.83,2.89,2.89,0,0,1,1.3-.29,2.64,2.64,0,0,1,1.16.23,2.43,2.43,0,0,1,.88.65V0h1.78V11.25h-1.61l-.09-.82a2.59,2.59,0,0,1-.91.71,2.71,2.71,0,0,1-1.22.26,2.8,2.8,0,0,1-1.3-.31,2.88,2.88,0,0,1-1-.84A3.76,3.76,0,0,1,379.53,9a5.43,5.43,0,0,1-.23-1.6Zm1.78.15a5.3,5.3,0,0,0,.1,1,2.45,2.45,0,0,0,.32.81,1.49,1.49,0,0,0,1.37.76,1.7,1.7,0,0,0,1-.27,1.92,1.92,0,0,0,.61-.71V5.59a1.76,1.76,0,0,0-.62-.7,1.72,1.72,0,0,0-1-.25,1.49,1.49,0,0,0-1.38.76,2.51,2.51,0,0,0-.32.82,4.67,4.67,0,0,0-.11,1Z"/><path class="cls-1" d="M207.55,27.77h4.84v1.48H205.7V18.59h1.85Z"/><path class="cls-1" d="M218.38,29.25a1.27,1.27,0,0,1-.12-.33,4.18,4.18,0,0,1-.09-.41,3.17,3.17,0,0,1-.39.34,2.27,2.27,0,0,1-.48.29,3.07,3.07,0,0,1-.56.19,3.32,3.32,0,0,1-.65.07,3.2,3.2,0,0,1-1.09-.18,2.55,2.55,0,0,1-.85-.5,2.17,2.17,0,0,1-.56-.75,2.26,2.26,0,0,1-.2-.94,2.57,2.57,0,0,1,.24-1.13,2.29,2.29,0,0,1,.7-.82,3.55,3.55,0,0,1,1.13-.5,6.45,6.45,0,0,1,1.53-.17h1.12v-.52a1.24,1.24,0,0,0-1.39-1.36,1.7,1.7,0,0,0-.57.09,1.4,1.4,0,0,0-.44.22.92.92,0,0,0-.27.35.87.87,0,0,0-.1.42h-1.78a1.83,1.83,0,0,1,.23-.9,2.51,2.51,0,0,1,.65-.78,3.48,3.48,0,0,1,1-.55,4.35,4.35,0,0,1,1.35-.2,4.3,4.3,0,0,1,1.23.17,3,3,0,0,1,1,.51,2.33,2.33,0,0,1,.63.85,2.78,2.78,0,0,1,.23,1.19v3.52a4,4,0,0,0,.3,1.7v.13Zm-2-1.28a2.14,2.14,0,0,0,.58-.08,3.48,3.48,0,0,0,.48-.21,1.91,1.91,0,0,0,.38-.31,1.61,1.61,0,0,0,.25-.35V25.53h-1a2.59,2.59,0,0,0-1.48.34,1.11,1.11,0,0,0-.5,1,1.23,1.23,0,0,0,.08.44.88.88,0,0,0,.24.36,1.09,1.09,0,0,0,.39.23A1.53,1.53,0,0,0,216.42,28Z"/><path class="cls-1" d="M223.41,21.33l.05.91a2.8,2.8,0,0,1,1-.78,3,3,0,0,1,1.31-.28,3.05,3.05,0,0,1,1,.16,1.83,1.83,0,0,1,.8.51,2.28,2.28,0,0,1,.51.91,4.55,4.55,0,0,1,.18,1.37v5.12h-1.78V24.12a2,2,0,0,0-.1-.7,1.16,1.16,0,0,0-.26-.45,1,1,0,0,0-.44-.26,2.15,2.15,0,0,0-.6-.07,1.67,1.67,0,0,0-1,.26,1.93,1.93,0,0,0-.65.71v5.64h-1.78V21.33Z"/><path class="cls-1" d="M229.77,25.23a6.11,6.11,0,0,1,.21-1.65,4,4,0,0,1,.62-1.28,2.77,2.77,0,0,1,2.29-1.12,2.64,2.64,0,0,1,1.16.23,2.43,2.43,0,0,1,.88.65V18h1.78V29.25H235.1l-.09-.82a2.56,2.56,0,0,1-.9.71,2.79,2.79,0,0,1-1.23.26,2.73,2.73,0,0,1-1.29-.31,2.82,2.82,0,0,1-1-.84A3.76,3.76,0,0,1,230,27a5.43,5.43,0,0,1-.22-1.6Zm1.78.15a5.31,5.31,0,0,0,.09,1,2.69,2.69,0,0,0,.32.81,1.49,1.49,0,0,0,1.37.76,1.7,1.7,0,0,0,1-.27,1.92,1.92,0,0,0,.61-.71V23.59a1.76,1.76,0,0,0-.62-.7,1.69,1.69,0,0,0-1-.25,1.67,1.67,0,0,0-.83.2,1.64,1.64,0,0,0-.55.56,2.51,2.51,0,0,0-.32.82,4.68,4.68,0,0,0-.1,1Z"/><path class="cls-1" d="M242.06,29.4a4,4,0,0,1-1.59-.3,3.52,3.52,0,0,1-1.19-.8,3.38,3.38,0,0,1-.75-1.22,4.17,4.17,0,0,1-.27-1.51v-.3a4.76,4.76,0,0,1,.28-1.69,3.9,3.9,0,0,1,.76-1.29,3.2,3.2,0,0,1,1.14-.82,3.52,3.52,0,0,1,1.41-.29,3.62,3.62,0,0,1,1.5.29,2.76,2.76,0,0,1,1.06.81,3.44,3.44,0,0,1,.62,1.24,5.53,5.53,0,0,1,.2,1.57v.76h-5.17a2.86,2.86,0,0,0,.19.85,2.2,2.2,0,0,0,.43.67,1.79,1.79,0,0,0,.64.44,2.07,2.07,0,0,0,.84.17,2.29,2.29,0,0,0,1.14-.27,2.66,2.66,0,0,0,.85-.72l1,.91a3.41,3.41,0,0,1-.47.56,3.7,3.7,0,0,1-.66.47,4,4,0,0,1-.86.34A4.27,4.27,0,0,1,242.06,29.4Zm-.22-6.79a1.51,1.51,0,0,0-1.18.51,2.64,2.64,0,0,0-.57,1.43h3.39v-.13a3.71,3.71,0,0,0-.12-.68,1.65,1.65,0,0,0-.28-.58,1.37,1.37,0,0,0-.49-.4A1.7,1.7,0,0,0,241.84,22.61Z"/><path class="cls-1" d="M251.06,27.1a.86.86,0,0,0-.07-.36.75.75,0,0,0-.24-.31,2.08,2.08,0,0,0-.52-.26,5.91,5.91,0,0,0-.86-.24,8.18,8.18,0,0,1-1.17-.33,3.58,3.58,0,0,1-.89-.48,2.16,2.16,0,0,1-.59-.66,1.9,1.9,0,0,1-.2-.88,2.1,2.1,0,0,1,.21-.92,2.21,2.21,0,0,1,.61-.76,3.11,3.11,0,0,1,1-.53,3.89,3.89,0,0,1,1.27-.19,4.27,4.27,0,0,1,1.33.19,3.09,3.09,0,0,1,1,.54,2.19,2.19,0,0,1,.62.8,2.25,2.25,0,0,1,.22,1H251a1.17,1.17,0,0,0-.09-.45,1.22,1.22,0,0,0-.26-.38,1.37,1.37,0,0,0-.44-.27,1.57,1.57,0,0,0-.6-.1,1.74,1.74,0,0,0-.59.09,1.14,1.14,0,0,0-.41.22.93.93,0,0,0-.25.31,1,1,0,0,0-.08.38,1,1,0,0,0,.07.35.84.84,0,0,0,.26.28,2.47,2.47,0,0,0,.51.23,7.81,7.81,0,0,0,.79.21,8.32,8.32,0,0,1,1.23.34,3.31,3.31,0,0,1,.92.48,2,2,0,0,1,.58.68,2,2,0,0,1,.2.92,2.1,2.1,0,0,1-.23,1,2.34,2.34,0,0,1-.65.76,3.28,3.28,0,0,1-1,.49,4.58,4.58,0,0,1-1.32.18,4.26,4.26,0,0,1-1.44-.23,3.34,3.34,0,0,1-1-.61,2.54,2.54,0,0,1-.64-.84,2.25,2.25,0,0,1-.22-1H248a1.41,1.41,0,0,0,.17.62,1.29,1.29,0,0,0,.37.4A1.55,1.55,0,0,0,249,28a2.38,2.38,0,0,0,.59.07,1.86,1.86,0,0,0,1.07-.26A.86.86,0,0,0,251.06,27.1Z"/><path class="cls-1" d="M261.31,25.37a6.42,6.42,0,0,1-.2,1.62,3.72,3.72,0,0,1-.59,1.27,2.7,2.7,0,0,1-1,.84,2.83,2.83,0,0,1-1.33.3,2.92,2.92,0,0,1-1.26-.26,2.64,2.64,0,0,1-.91-.75l-.09.86h-1.61V18h1.78v4.09a2.55,2.55,0,0,1,.89-.68,2.9,2.9,0,0,1,1.19-.23,2.85,2.85,0,0,1,1.34.3,2.58,2.58,0,0,1,1,.83,3.72,3.72,0,0,1,.59,1.27,6,6,0,0,1,.2,1.63Zm-1.78-.16a6.17,6.17,0,0,0-.08-1,2.64,2.64,0,0,0-.29-.82,1.58,1.58,0,0,0-.55-.57,1.67,1.67,0,0,0-.85-.2,1.76,1.76,0,0,0-1,.27,1.78,1.78,0,0,0-.61.74v3.26a1.88,1.88,0,0,0,.61.75,1.74,1.74,0,0,0,1,.29,1.51,1.51,0,0,0,1.38-.75,2.57,2.57,0,0,0,.29-.82,5.34,5.34,0,0,0,.09-1Z"/><path class="cls-1" d="M262.81,19.27a.9.9,0,0,1,.26-.68,1,1,0,0,1,.74-.28,1,1,0,0,1,.75.28,1,1,0,0,1,0,1.35,1,1,0,0,1-.75.27,1,1,0,0,1-.74-.27A.9.9,0,0,1,262.81,19.27Zm1.89,10h-1.78V21.33h1.78Z"/><path class="cls-1" d="M273.59,25.37a6.42,6.42,0,0,1-.2,1.62,4.14,4.14,0,0,1-.59,1.27,2.79,2.79,0,0,1-1,.84,3.14,3.14,0,0,1-2.59,0,2.64,2.64,0,0,1-.91-.75l-.09.86h-1.61V18h1.78v4.09a2.52,2.52,0,0,1,.88-.68,3.19,3.19,0,0,1,2.54.07,2.66,2.66,0,0,1,1,.83,3.72,3.72,0,0,1,.59,1.27,6.44,6.44,0,0,1,.2,1.63Zm-1.78-.16a5.18,5.18,0,0,0-.09-1,2.21,2.21,0,0,0-.29-.82,1.48,1.48,0,0,0-.54-.57,1.71,1.71,0,0,0-.86-.2,1.75,1.75,0,0,0-1,.27,1.71,1.71,0,0,0-.61.74v3.26a1.8,1.8,0,0,0,.61.75,1.74,1.74,0,0,0,1,.29,1.64,1.64,0,0,0,.83-.2,1.67,1.67,0,0,0,.54-.55,2.58,2.58,0,0,0,.3-.82,5.34,5.34,0,0,0,.09-1Z"/><path class="cls-1" d="M277,29.25h-1.78V18H277Z"/><path class="cls-1" d="M278.91,19.27a.94.94,0,0,1,.26-.68,1.13,1.13,0,0,1,1.49,0,1,1,0,0,1,0,1.35,1.16,1.16,0,0,1-1.49,0A.94.94,0,0,1,278.91,19.27Zm1.89,10H279V21.33h1.78Z"/><path class="cls-1" d="M282.4,25.21a4.88,4.88,0,0,1,.26-1.6,3.85,3.85,0,0,1,.72-1.27,3.18,3.18,0,0,1,1.16-.85,3.59,3.59,0,0,1,1.54-.31,3.71,3.71,0,0,1,1.56.31,3.1,3.1,0,0,1,1.16.85,3.53,3.53,0,0,1,.72,1.27,4.88,4.88,0,0,1,.25,1.6v.16a4.88,4.88,0,0,1-.25,1.6,3.49,3.49,0,0,1-.72,1.28,3.23,3.23,0,0,1-1.15.84,4.06,4.06,0,0,1-3.11,0,3.27,3.27,0,0,1-1.16-.84,3.8,3.8,0,0,1-.72-1.28,4.88,4.88,0,0,1-.26-1.6Zm1.78.16a4.74,4.74,0,0,0,.11,1,2.6,2.6,0,0,0,.35.83,1.62,1.62,0,0,0,.6.56,1.72,1.72,0,0,0,2.3-.56,2.6,2.6,0,0,0,.35-.83,4.74,4.74,0,0,0,.11-1v-.16a4.64,4.64,0,0,0-.11-1,2.54,2.54,0,0,0-.35-.82,1.81,1.81,0,0,0-.6-.57,1.69,1.69,0,0,0-.86-.21,1.62,1.62,0,0,0-.85.21,1.69,1.69,0,0,0-.59.57,2.54,2.54,0,0,0-.35.82,4.64,4.64,0,0,0-.11,1Z"/><path class="cls-1" d="M293.51,19.4v1.93h1.4v1.31h-1.4v4.43a1.37,1.37,0,0,0,.06.44.54.54,0,0,0,.17.26.58.58,0,0,0,.25.12,1.87,1.87,0,0,0,.34,0,2,2,0,0,0,.35,0l.27,0v1.38l-.49.11a3.37,3.37,0,0,1-.68.06,2.71,2.71,0,0,1-.82-.12,1.69,1.69,0,0,1-.65-.38,2,2,0,0,1-.43-.69,3.13,3.13,0,0,1-.15-1V22.64h-1.31V21.33h1.31V19.4Z"/><path class="cls-1" d="M298,22.19a2.87,2.87,0,0,1,2.2-1,3.23,3.23,0,0,1,1.06.16,1.92,1.92,0,0,1,.81.52,2.22,2.22,0,0,1,.52.92,4.6,4.6,0,0,1,.18,1.37v5.1H301V24.14a1.53,1.53,0,0,0-.36-1.16,1.45,1.45,0,0,0-1-.34,1.74,1.74,0,0,0-1,.25,1.81,1.81,0,0,0-.64.7v5.66h-1.78V18H298Z"/><path class="cls-1" d="M308.08,29.4a4,4,0,0,1-1.58-.3,3.33,3.33,0,0,1-1.19-.8,3.55,3.55,0,0,1-.76-1.22,4.39,4.39,0,0,1-.26-1.51v-.3a4.76,4.76,0,0,1,.28-1.69,3.74,3.74,0,0,1,.76-1.29,3.2,3.2,0,0,1,1.14-.82,3.49,3.49,0,0,1,1.41-.29,3.68,3.68,0,0,1,1.5.29,2.73,2.73,0,0,1,1.05.81,3.46,3.46,0,0,1,.63,1.24,5.91,5.91,0,0,1,.2,1.57v.76h-5.18a2.86,2.86,0,0,0,.2.85,2,2,0,0,0,.43.67,1.79,1.79,0,0,0,.64.44,2,2,0,0,0,.84.17,2.32,2.32,0,0,0,1.14-.27,2.66,2.66,0,0,0,.85-.72l1,.91a3.49,3.49,0,0,1-.48.56,3.29,3.29,0,0,1-.65.47,4.17,4.17,0,0,1-.86.34A4.35,4.35,0,0,1,308.08,29.4Zm-.21-6.79a1.49,1.49,0,0,0-1.18.51,2.72,2.72,0,0,0-.58,1.43h3.39v-.13a3,3,0,0,0-.11-.68,1.65,1.65,0,0,0-.28-.58,1.33,1.33,0,0,0-.5-.4A1.65,1.65,0,0,0,307.87,22.61Z"/><path class="cls-1" d="M315.22,25.85l-.79.81v2.59h-1.78V18h1.78v6.49l.55-.7,2.19-2.46h2.14l-2.94,3.3,3.26,4.62h-2.06Z"/><path class="cls-1" d="M328.74,18.59h1.85v7.47a3.74,3.74,0,0,1-.26,1.42,3,3,0,0,1-.72,1.05,3.2,3.2,0,0,1-1.11.64,4.14,4.14,0,0,1-1.39.23,5.15,5.15,0,0,1-1.4-.19,3,3,0,0,1-1.1-.59,2.63,2.63,0,0,1-.72-1,3.41,3.41,0,0,1-.26-1.41h1.84a2.3,2.3,0,0,0,.12.79,1.38,1.38,0,0,0,.34.53,1.26,1.26,0,0,0,.52.29,2,2,0,0,0,.66.1,1.76,1.76,0,0,0,.66-.12,1.43,1.43,0,0,0,.52-.36,1.63,1.63,0,0,0,.33-.58,2.41,2.41,0,0,0,.12-.8Z"/><path class="cls-1" d="M336,29.4a4,4,0,0,1-1.59-.3,3.42,3.42,0,0,1-1.19-.8,3.55,3.55,0,0,1-.76-1.22,4.39,4.39,0,0,1-.26-1.51v-.3a4.76,4.76,0,0,1,.28-1.69,3.74,3.74,0,0,1,.76-1.29,3.2,3.2,0,0,1,1.14-.82,3.52,3.52,0,0,1,1.41-.29,3.62,3.62,0,0,1,1.5.29,2.76,2.76,0,0,1,1.06.81,3.61,3.61,0,0,1,.62,1.24,5.91,5.91,0,0,1,.2,1.57v.76H334a2.58,2.58,0,0,0,.19.85,2,2,0,0,0,.43.67,1.79,1.79,0,0,0,.64.44,2,2,0,0,0,.84.17,2.29,2.29,0,0,0,1.14-.27,2.66,2.66,0,0,0,.85-.72l1,.91a4,4,0,0,1-.47.56,3.7,3.7,0,0,1-.66.47,4,4,0,0,1-.86.34A4.27,4.27,0,0,1,336,29.4Zm-.22-6.79a1.49,1.49,0,0,0-1.18.51,2.72,2.72,0,0,0-.58,1.43h3.4v-.13a3.71,3.71,0,0,0-.12-.68,1.65,1.65,0,0,0-.28-.58,1.37,1.37,0,0,0-.49-.4A1.7,1.7,0,0,0,335.81,22.61Z"/><path class="cls-1" d="M342.24,21.33l.05.91a2.72,2.72,0,0,1,1-.78,3,3,0,0,1,1.3-.28,3.11,3.11,0,0,1,1,.16,1.8,1.8,0,0,1,.79.51,2.28,2.28,0,0,1,.51.91,4.55,4.55,0,0,1,.18,1.37v5.12h-1.78V24.12a2.33,2.33,0,0,0-.09-.7A1.06,1.06,0,0,0,345,23a.94.94,0,0,0-.43-.26,2.15,2.15,0,0,0-.6-.07,1.67,1.67,0,0,0-.95.26,1.85,1.85,0,0,0-.65.71v5.64h-1.78V21.33Z"/><path class="cls-1" d="M353.66,29.25a1.27,1.27,0,0,1-.12-.33c0-.13-.06-.26-.09-.41a2.16,2.16,0,0,1-.39.34,2.47,2.47,0,0,1-.47.29,3.18,3.18,0,0,1-.57.19,3.32,3.32,0,0,1-.65.07,3.24,3.24,0,0,1-1.09-.18,2.65,2.65,0,0,1-.85-.5,2.31,2.31,0,0,1-.56-.75,2.26,2.26,0,0,1-.2-.94,2.57,2.57,0,0,1,.24-1.13,2.32,2.32,0,0,1,.71-.82,3.45,3.45,0,0,1,1.13-.5,6.39,6.39,0,0,1,1.53-.17h1.12v-.52a1.41,1.41,0,0,0-.35-1,1.39,1.39,0,0,0-1-.37,1.72,1.72,0,0,0-.58.09,1.34,1.34,0,0,0-.43.22,1.06,1.06,0,0,0-.28.35.87.87,0,0,0-.1.42h-1.78a1.94,1.94,0,0,1,.23-.9,2.55,2.55,0,0,1,.66-.78,3.25,3.25,0,0,1,1-.55,4.35,4.35,0,0,1,1.35-.2,4.4,4.4,0,0,1,1.23.17,3,3,0,0,1,1,.51,2.25,2.25,0,0,1,.64.85,2.94,2.94,0,0,1,.23,1.19v3.52a4,4,0,0,0,.3,1.7v.13Zm-2-1.28a2.14,2.14,0,0,0,.58-.08,2.67,2.67,0,0,0,.48-.21,1.88,1.88,0,0,0,.64-.66V25.53h-1a2.63,2.63,0,0,0-1.49.34,1.13,1.13,0,0,0-.5,1,1.23,1.23,0,0,0,.08.44,1,1,0,0,0,.25.36.94.94,0,0,0,.39.23A1.44,1.44,0,0,0,351.7,28Z"/><line class="cls-2" x1="191.11" x2="191.11" y2="29.2"/></g></g></svg>