<svg xmlns="http://www.w3.org/2000/svg" viewBox="0 0 190.04 86.85"><defs><style>.cls-1{fill:#002f5d;}</style></defs><g id="Ebene_2" data-name="Ebene 2"><g id="Ebene_1-2" data-name="Ebene 1"><path class="cls-1" d="M120.12,0h-6.28V44.64a8,8,0,0,0,8,8h6.31V8.05A8.06,8.06,0,0,0,120.12,0Z"/><path class="cls-1" d="M20.89,8.06a8.05,8.05,0,0,0-8-8.06H6.56V12.17H0V25.11H3.2a3.35,3.35,0,0,1,3.35,3.34v4A20.18,20.18,0,0,0,26.78,52.66c.32,0,.65,0,1,0l.62,0V40.3l-.58-.06a7.87,7.87,0,0,1-6.9-7.8V25.11h7.48V12.17H20.89Z"/><path class="cls-1" d="M170.86,17.57c-4.83-4.3-11.65-6.33-17.45-4.25a25,25,0,0,0-6.08,3.12V8.05a8,8,0,0,0-8-8H133V52.67h11.29l1-1.1a3,3,0,0,1,3.54-.73,19.47,19.47,0,0,0,7.27,1.75,20.19,20.19,0,0,0,21.21-20.21A20,20,0,0,0,170.86,17.57ZM156.93,41a8.76,8.76,0,0,1-6.57-2,8.71,8.71,0,0,1,0-13.15,8.76,8.76,0,0,1,6.57-2,8.65,8.65,0,0,1,0,17.17Z"/><path class="cls-1" d="M109.25,32.37V20.76a8.06,8.06,0,0,0-8.06-8.06h-.07l-6.24.05V32.37a8.39,8.39,0,0,1-1.21,4.4c-.08.13-.16.26-.25.39l-.15.23c-.13.19-.28.37-.42.55l0,0c-.16.19-.33.38-.51.56h0c-.14.13-.27.27-.41.39l-.13.1A8.33,8.33,0,0,1,87.26,41a9.48,9.48,0,0,1-1.07,0H86l-.53,0h-.16a8,8,0,0,1-2.72-.79,8.83,8.83,0,0,1-1.91-1.22,9.84,9.84,0,0,1-3.44-6.41c-.71-5.29-1.26-10-3.7-13.09-3.64-4.65-8.91-6.72-12.48-6.72-5.65,0-10.76,2-13.31,6.53V8.05a8,8,0,0,0-8-8h-6.3V52.67H47.78V32.38h0a9.13,9.13,0,0,1,.31-2.21,8.63,8.63,0,0,1,2.68-4.36,7.93,7.93,0,0,1,1-.73,8.38,8.38,0,0,1,1-.55,8.85,8.85,0,0,1,4.53-.74c.15,0,.3.05.45.07,4.35.7,6.88,4.12,7.16,8.48.4,6.19,2.41,11.13,6.42,14.83a20.4,20.4,0,0,0,14.79,5.41,19.47,19.47,0,0,0,7.27-1.75,3.05,3.05,0,0,1,3.55.72l1,1.11h11.29V32.37Z"/><path class="cls-1" d="M33.62,74.32a11.73,11.73,0,0,1,.62-2.62,8.38,8.38,0,0,1,1.25-2.35,6.19,6.19,0,0,1,1.93-1.67,5,5,0,0,1,2.63-.61,5.24,5.24,0,0,1,2,.42,3.7,3.7,0,0,1,1.52,1.27L44,67.33H46.8l-2.31,13.6a7.46,7.46,0,0,1-.79,2.47,6.35,6.35,0,0,1-1.51,1.88,6.58,6.58,0,0,1-2.1,1.19,7.2,7.2,0,0,1-2.58.36,6.09,6.09,0,0,1-1.4-.17,6.46,6.46,0,0,1-1.34-.47,6.34,6.34,0,0,1-1.19-.73,5.86,5.86,0,0,1-1-1l1.63-1.85a4.5,4.5,0,0,0,1.39,1.26,3.94,3.94,0,0,0,1.82.48,4.12,4.12,0,0,0,1.47-.2,3.76,3.76,0,0,0,1.17-.67,3.84,3.84,0,0,0,.86-1,5.13,5.13,0,0,0,.52-1.39l.22-1A5.68,5.68,0,0,1,40,81.21a4.45,4.45,0,0,1-2,.37,4.17,4.17,0,0,1-1.64-.33,4,4,0,0,1-1.23-.83,4.61,4.61,0,0,1-.85-1.21,6.67,6.67,0,0,1-.52-1.46,10.19,10.19,0,0,1-.21-1.58,11.87,11.87,0,0,1,0-1.58Zm3,.27a9.43,9.43,0,0,0,0,1.43,4.71,4.71,0,0,0,.24,1.43,2.58,2.58,0,0,0,.72,1.1,2,2,0,0,0,1.36.47,3,3,0,0,0,1.72-.41A4.85,4.85,0,0,0,42,77.41l1.09-6.18a2.51,2.51,0,0,0-.93-1.17,2.82,2.82,0,0,0-1.46-.42A3,3,0,0,0,39,70a3.78,3.78,0,0,0-1.18,1.11,5.78,5.78,0,0,0-.76,1.51,10.46,10.46,0,0,0-.39,1.66Z"/><path class="cls-1" d="M48.27,74.29A9.8,9.8,0,0,1,49,71.52a8,8,0,0,1,1.5-2.32,7,7,0,0,1,2.21-1.58,6.36,6.36,0,0,1,2.83-.54,5.5,5.5,0,0,1,2.56.64,5,5,0,0,1,1.73,1.58,6.13,6.13,0,0,1,.92,2.24,8.78,8.78,0,0,1,.12,2.62l0,.29a9.76,9.76,0,0,1-.76,2.76,8.07,8.07,0,0,1-1.51,2.29,6.79,6.79,0,0,1-2.21,1.55,6.34,6.34,0,0,1-2.82.53A5.52,5.52,0,0,1,51,81a5.1,5.1,0,0,1-1.73-1.56,6.28,6.28,0,0,1-.92-2.22,8.45,8.45,0,0,1-.11-2.62Zm3,.27a9.27,9.27,0,0,0,0,1.5,4.56,4.56,0,0,0,.28,1.45,2.71,2.71,0,0,0,.77,1.11,2.26,2.26,0,0,0,1.42.47,3,3,0,0,0,1.67-.38,4.22,4.22,0,0,0,1.21-1.1,5.4,5.4,0,0,0,.78-1.51,9.42,9.42,0,0,0,.4-1.65l0-.27q0-.47.06-1a5.82,5.82,0,0,0-.06-1,5.19,5.19,0,0,0-.24-1,2.48,2.48,0,0,0-.46-.81,2.08,2.08,0,0,0-.71-.57,2.66,2.66,0,0,0-1-.24,3,3,0,0,0-1.68.4,4,4,0,0,0-1.2,1.11,5.81,5.81,0,0,0-.78,1.53,8.78,8.78,0,0,0-.38,1.66Z"/><path class="cls-1" d="M63,74.29a9.79,9.79,0,0,1,.74-2.77,8.22,8.22,0,0,1,1.51-2.32,7.1,7.1,0,0,1,2.2-1.58,6.43,6.43,0,0,1,2.84-.54,5.5,5.5,0,0,1,2.56.64A5,5,0,0,1,74.6,69.3a6.13,6.13,0,0,1,.92,2.24,8.78,8.78,0,0,1,.12,2.62l0,.29a9.76,9.76,0,0,1-.76,2.76,8.07,8.07,0,0,1-1.51,2.29,6.79,6.79,0,0,1-2.21,1.55,6.37,6.37,0,0,1-2.82.53A5.52,5.52,0,0,1,65.76,81,5.1,5.1,0,0,1,64,79.4a6.1,6.1,0,0,1-.92-2.22A8.45,8.45,0,0,1,63,74.56Zm3,.27a10.54,10.54,0,0,0,0,1.5,4.56,4.56,0,0,0,.29,1.45,2.71,2.71,0,0,0,.77,1.11,2.26,2.26,0,0,0,1.42.47,3,3,0,0,0,1.67-.38,4.06,4.06,0,0,0,1.2-1.1,5.17,5.17,0,0,0,.79-1.51,9.42,9.42,0,0,0,.4-1.65l0-.27c0-.31.06-.64.07-1a5.82,5.82,0,0,0-.06-1,5.19,5.19,0,0,0-.24-1,2.48,2.48,0,0,0-.46-.81,2,2,0,0,0-.72-.57,2.56,2.56,0,0,0-1-.24,3,3,0,0,0-1.68.4,4,4,0,0,0-1.2,1.11,5.81,5.81,0,0,0-.78,1.53,8.83,8.83,0,0,0-.39,1.66Z"/><path class="cls-1" d="M77.77,74.32a12.27,12.27,0,0,1,.34-1.75,10,10,0,0,1,.6-1.69,9.17,9.17,0,0,1,.89-1.52,6.56,6.56,0,0,1,1.19-1.22,5.71,5.71,0,0,1,1.5-.81,5.16,5.16,0,0,1,1.84-.26,4.77,4.77,0,0,1,1.86.41,3.87,3.87,0,0,1,1.47,1.18l1.35-7.19h3.07L88.43,81.32H85.69l.21-1.44a5.67,5.67,0,0,1-1.72,1.29,4.69,4.69,0,0,1-2.11.43,4.12,4.12,0,0,1-1.63-.33,4,4,0,0,1-1.2-.85,4.57,4.57,0,0,1-.84-1.22,7.21,7.21,0,0,1-.51-1.46,9.1,9.1,0,0,1-.2-1.58,10.2,10.2,0,0,1,0-1.57Zm3,.27a8.81,8.81,0,0,0-.07.93,5.35,5.35,0,0,0,0,1,4.15,4.15,0,0,0,.19.93,2.65,2.65,0,0,0,.39.81,1.9,1.9,0,0,0,.66.56A2.09,2.09,0,0,0,83,79a3.06,3.06,0,0,0,1.75-.46,5,5,0,0,0,1.31-1.26l1-6a2.58,2.58,0,0,0-.9-1.22,2.62,2.62,0,0,0-1.45-.45,2.93,2.93,0,0,0-1.65.4,3.72,3.72,0,0,0-1.16,1.11,5.71,5.71,0,0,0-.73,1.51,9.23,9.23,0,0,0-.36,1.65Z"/><path class="cls-1" d="M105.11,63.94l-.6,3.4h2.39l-.4,2.33h-2.4l-1.32,7.83a2.35,2.35,0,0,0,0,.59,1.08,1.08,0,0,0,.13.45,1,1,0,0,0,.33.3,1.51,1.51,0,0,0,.57.12,4.89,4.89,0,0,0,.54,0,5.25,5.25,0,0,0,.55-.09l-.21,2.46a7.08,7.08,0,0,1-1.93.27,3.46,3.46,0,0,1-1.47-.32,2.76,2.76,0,0,1-1-.84,3.53,3.53,0,0,1-.51-1.24,5.44,5.44,0,0,1-.06-1.52l1.3-8H98.8l.41-2.33h2.23l.59-3.4Z"/><path class="cls-1" d="M107.2,74.29a9.79,9.79,0,0,1,.74-2.77,8.22,8.22,0,0,1,1.51-2.32,7,7,0,0,1,2.2-1.58,6.43,6.43,0,0,1,2.84-.54,5.54,5.54,0,0,1,2.56.64,5.06,5.06,0,0,1,1.73,1.58,6.13,6.13,0,0,1,.92,2.24,8.78,8.78,0,0,1,.12,2.62l0,.29a10.1,10.1,0,0,1-.76,2.76,7.89,7.89,0,0,1-1.52,2.29,6.75,6.75,0,0,1-2.2,1.55,6.37,6.37,0,0,1-2.82.53,5.49,5.49,0,0,1-2.55-.62,5.1,5.1,0,0,1-1.73-1.56,6.1,6.1,0,0,1-.92-2.22,8.77,8.77,0,0,1-.12-2.62Zm3,.27a10.54,10.54,0,0,0,0,1.5,4.56,4.56,0,0,0,.29,1.45,2.62,2.62,0,0,0,.77,1.11,2.23,2.23,0,0,0,1.42.47,3,3,0,0,0,1.67-.38,4.06,4.06,0,0,0,1.2-1.1,5.17,5.17,0,0,0,.79-1.51,9.42,9.42,0,0,0,.4-1.65l0-.27c0-.31.06-.64.07-1a5.82,5.82,0,0,0-.06-1,5.19,5.19,0,0,0-.24-1,2.67,2.67,0,0,0-.46-.81,2,2,0,0,0-.72-.57,2.6,2.6,0,0,0-1-.24,3,3,0,0,0-1.68.4,3.74,3.74,0,0,0-1.2,1.11,5.81,5.81,0,0,0-.78,1.53,8.83,8.83,0,0,0-.39,1.66Z"/><path class="cls-1" d="M133.37,75.35l-1.73,1.54-.76,4.43h-3.06l3.43-19.85h3.07l-2,11.27,1.08-1.11,4.44-4.29h3.92l-6.21,6,4.09,8h-3.32Z"/><path class="cls-1" d="M146.6,67.33,146.29,69a6.24,6.24,0,0,1,1.86-1.4,4.84,4.84,0,0,1,2.29-.49,3.92,3.92,0,0,1,1.88.46,3.2,3.2,0,0,1,1.16,1.15,4.34,4.34,0,0,1,.54,1.65,8.45,8.45,0,0,1,0,2l-1.51,9h-3.06L151,72.25a4.46,4.46,0,0,0,0-1,2,2,0,0,0-.25-.82,1.43,1.43,0,0,0-.59-.55,2.31,2.31,0,0,0-1-.21,3,3,0,0,0-1.74.48,5.17,5.17,0,0,0-1.32,1.24l-1.75,10H141.3l2.41-14Z"/><path class="cls-1" d="M156.42,74.29a9.79,9.79,0,0,1,.74-2.77,8.22,8.22,0,0,1,1.51-2.32,7,7,0,0,1,2.2-1.58,6.43,6.43,0,0,1,2.84-.54,5.54,5.54,0,0,1,2.56.64A5.06,5.06,0,0,1,168,69.3a6.13,6.13,0,0,1,.92,2.24,8.78,8.78,0,0,1,.12,2.62l0,.29a10.1,10.1,0,0,1-.76,2.76,7.89,7.89,0,0,1-1.52,2.29,6.75,6.75,0,0,1-2.2,1.55,6.37,6.37,0,0,1-2.82.53,5.49,5.49,0,0,1-2.55-.62,5.1,5.1,0,0,1-1.73-1.56,6.1,6.1,0,0,1-.92-2.22,8.77,8.77,0,0,1-.12-2.62Zm3,.27a10.54,10.54,0,0,0-.05,1.5,4.56,4.56,0,0,0,.29,1.45,2.62,2.62,0,0,0,.77,1.11,2.23,2.23,0,0,0,1.42.47,3,3,0,0,0,1.67-.38,4.06,4.06,0,0,0,1.2-1.1,5.17,5.17,0,0,0,.79-1.51,9.42,9.42,0,0,0,.4-1.65l0-.27c0-.31.06-.64.07-1a5.82,5.82,0,0,0-.06-1,5.19,5.19,0,0,0-.24-1,2.67,2.67,0,0,0-.46-.81,2,2,0,0,0-.72-.57,2.6,2.6,0,0,0-1-.24,3,3,0,0,0-1.68.4,3.85,3.85,0,0,0-1.2,1.11,5.81,5.81,0,0,0-.78,1.53,8.83,8.83,0,0,0-.39,1.66Z"/><path class="cls-1" d="M183.12,77,187,67.34H190l-6.13,14h-2.52l-1.23-9.56-4.52,9.56h-2.53l-1.28-14h2.89l.53,9.49,4.42-9.49H182Z"/></g></g></svg>