<svg id="Ebene_1" data-name="Ebene 1" xmlns="http://www.w3.org/2000/svg" xmlns:xlink="http://www.w3.org/1999/xlink" viewBox="0 0 232.73 177.73"><defs><style>.cls-1{fill:none;}.cls-2{fill:#978e90;}.cls-3{fill:#0d0802;}.cls-4{clip-path:url(#clip-path);}.cls-5{fill:#fff;}</style><clipPath id="clip-path" transform="translate(-22 -29.04)"><rect class="cls-1" x="22" y="29.04" width="232.72" height="177.73"/></clipPath></defs><title>Logo_UB_Universitaet_Erfurt</title><polygon class="cls-2" points="5.1 0 8.79 158.46 226.49 149.86 232.72 0 5.1 0"/><polygon class="cls-3" points="0 0 0 140.31 209.84 177.73 223.94 0 0 0"/><g class="cls-4"><path class="cls-5" d="M126.09,90.55h4.33v-14h5.37V72.86H120.72v3.71h5.37Zm-16-9.68V76.32h1.58a3.91,3.91,0,0,1,1.71.3,1.94,1.94,0,0,1,1,1.95,2,2,0,0,1-2.25,2.3Zm-6.41,9.68h8.26V87.33h-1.85v-3H111c.91,0,1.24.2,1.53.77l2.16,4.13c.49,1,1.06,1.31,2.5,1.31h2.92V87.33h-.62a1.1,1.1,0,0,1-1.14-.57L117,84.14a2.43,2.43,0,0,0-1.09-1.06v0a5.18,5.18,0,0,0,2.87-4.85,4.87,4.87,0,0,0-3.54-5,12.78,12.78,0,0,0-3.54-.34h-8v3.21h2V87.33h-2ZM84.38,83.79a6.94,6.94,0,0,0,1.49,4.68,7.87,7.87,0,0,0,6,2.38,7.72,7.72,0,0,0,6-2.45,7.51,7.51,0,0,0,1.46-4.61V76.07h2V72.86H93v3.21h2v7.72a3.65,3.65,0,0,1-.47,2A2.85,2.85,0,0,1,91.91,87a3,3,0,0,1-2.65-1.26,3.92,3.92,0,0,1-.45-2V76.07h2V72.86H82.4v3.21h2ZM69.52,90.55h4.33V84h5.4V80.28h-5.4V76.57h6.51V72.86H69.52ZM56.7,80.87V76.32h1.59a3.83,3.83,0,0,1,1.7.3,2,2,0,0,1,1,1.95,2,2,0,0,1-2.25,2.3Zm-6.41,9.68h8.27V87.33H56.7v-3h.89c.92,0,1.24.2,1.54.77l2.15,4.13c.5,1,1.06,1.31,2.5,1.31H66.7V87.33h-.62a1.11,1.11,0,0,1-1.14-.57l-1.36-2.62a2.38,2.38,0,0,0-1.09-1.06v0a5.18,5.18,0,0,0,2.87-4.85,4.87,4.87,0,0,0-3.54-5,12.75,12.75,0,0,0-3.53-.34h-8v3.21h2V87.33h-2Zm-14.48,0H47.25V86.84H40.14V83.5h5.4V79.79h-5.4V76.57H46.9V72.86H35.81Z" transform="translate(-22 -29.04)"/><path class="cls-5" d="M192.11,65.8h4.34v-14h5.37V48.11H186.74v3.71h5.37ZM175.28,46.72h3.12V43.25h-3.12Zm5.18,0h3.12V43.25h-3.12Zm-1,5.42s.4,1.93.72,3l1,3.44h-3.49l1-3.44c.32-1.11.71-3,.71-3Zm3.81,13.66h4.46l-6-17.69h-4.55l-6,17.69h4.45l1.07-3.71h5.52Zm-20.87,0h4.33v-14h5.37V48.11H157v3.71h5.37Zm-12.13,0h4.33V48.11h-4.33Zm-16.13-2.23a9.12,9.12,0,0,0,6.46,2.53c4,0,6.24-2.55,6.24-5.5,0-5.59-8-5.19-8-7.42,0-1,1-1.39,1.88-1.39a6.74,6.74,0,0,1,3.91,1.56l1.83-3.54a8,8,0,0,0-5.69-2c-3.52,0-6.26,2.15-6.26,5.42,0,5.44,8,5.37,8,7.47,0,1.07-1,1.41-1.86,1.41a7.32,7.32,0,0,1-4.23-1.83Zm-11.9-7.45V51.57h1.58a3.91,3.91,0,0,1,1.71.3,1.94,1.94,0,0,1,1,2,2,2,0,0,1-2.25,2.3Zm-6.41,9.68h8.26V62.58h-1.85v-3h.89c.91,0,1.24.2,1.53.77l2.16,4.13c.49,1,1.06,1.31,2.5,1.31h2.92V62.58h-.62a1.1,1.1,0,0,1-1.14-.57l-1.36-2.62A2.43,2.43,0,0,0,128,58.33v0a5.18,5.18,0,0,0,2.87-4.85,4.87,4.87,0,0,0-3.54-5,12.78,12.78,0,0,0-3.54-.34h-8v3.21h2V62.58h-2Zm-14.48,0h11.43V62.09h-7.1V58.75h5.39V55h-5.39V51.82h6.76V48.11H101.33Zm-13.09,0h4.51L99,48.11H94.36L91.19,58.18c-.35,1.11-.67,2.84-.67,2.84h0s-.32-1.73-.67-2.84L86.68,48.11H82Zm-12.91,0h4.33V48.11H75.33Zm-19.44,0h4.33V57.56c0-1.11-.2-3-.2-3h0a30.05,30.05,0,0,0,1.49,3l4.92,8.24h4.36V48.11H66.51v8.26c0,1.12.19,3,.19,3h0a31.47,31.47,0,0,0-1.48-3l-4.9-8.26H55.89ZM35.85,59a6.94,6.94,0,0,0,1.48,4.68,7.89,7.89,0,0,0,6,2.38,7.72,7.72,0,0,0,6-2.45A7.51,7.51,0,0,0,50.84,59V51.32h2V48.11H44.43v3.21h2V59a3.59,3.59,0,0,1-.47,2,2.83,2.83,0,0,1-2.57,1.24A3,3,0,0,1,40.72,61a4,4,0,0,1-.44-2V51.32h2V48.11H33.87v3.21h2Z" transform="translate(-22 -29.04)"/><path class="cls-2" d="M176.83,104v11.35h1.8V112.6l.88-.79,2.13,3.51h2.07l-3-4.7,2.81-3.41h-2l-2.13,2.64c-.13.16-.27.35-.42.56s-.29.41-.4.59h0c0-.27.05-.56.06-.85s0-.58,0-.85V104ZM173,109a2.71,2.71,0,0,1,.38,1.43h-3.05a2.54,2.54,0,0,1,.47-1.5,1.35,1.35,0,0,1,1.08-.49A1.26,1.26,0,0,1,173,109m-3.61-.82a4.78,4.78,0,0,0-.91,3.16,4.33,4.33,0,0,0,1,3.06,3.46,3.46,0,0,0,2.71,1.08,6.31,6.31,0,0,0,1.37-.13,5.12,5.12,0,0,0,1.17-.42v-1.48a5.55,5.55,0,0,1-1.17.46,4.84,4.84,0,0,1-1.24.15,1.82,1.82,0,0,1-1.47-.6,2.71,2.71,0,0,1-.53-1.74h4.79v-1a4,4,0,0,0-.85-2.68,2.94,2.94,0,0,0-2.37-1,3,3,0,0,0-2.48,1.09m-9.23-4.2v11.35h1.81v-4a4.48,4.48,0,0,1,.37-2.07,1.41,1.41,0,0,1,1.35-.7c.84,0,1.27.61,1.27,1.81v4.93h1.79V110a3.13,3.13,0,0,0-.68-2.21,2.56,2.56,0,0,0-1.94-.7,2.82,2.82,0,0,0-1.27.29,2.2,2.2,0,0,0-.89.92h-.12c0-.19.06-.43.08-.71a8.51,8.51,0,0,0,0-.88V104Zm-3.27,9.74a1.22,1.22,0,0,1-.25-.82v-4.26h2v-1.42h-2v-1.76h-1.16l-.52,1.74-1.09.59v.85h1v4.3a2.56,2.56,0,0,0,.62,2,2.29,2.29,0,0,0,1.62.57,4.29,4.29,0,0,0,.9-.09,3,3,0,0,0,.73-.24v-1.37a5.12,5.12,0,0,1-.56.15,2.78,2.78,0,0,1-.58.06.88.88,0,0,1-.68-.27m-8.8-4.47a1.37,1.37,0,0,1,1.28-.69,1.38,1.38,0,0,1,1.29.69,5.3,5.3,0,0,1,0,4,1.52,1.52,0,0,1-2.57,0,5.16,5.16,0,0,1,0-4m3.84-1.1a3.27,3.27,0,0,0-2.54-1.08,3.19,3.19,0,0,0-2.63,1.11,4.74,4.74,0,0,0-.91,3.09,5.48,5.48,0,0,0,.42,2.23,3.41,3.41,0,0,0,1.22,1.47,3.34,3.34,0,0,0,1.85.51,3.19,3.19,0,0,0,2.64-1.14,4.78,4.78,0,0,0,.92-3.07,4.57,4.57,0,0,0-1-3.12m-9.64,7.18h1.8v-8.11h-1.8Zm.18-11a1,1,0,0,0-.27.77.93.93,0,0,0,.28.76,1.08,1.08,0,0,0,.72.24,1,1,0,0,0,.71-.24,1.14,1.14,0,0,0,0-1.52,1,1,0,0,0-.71-.24,1.14,1.14,0,0,0-.73.23M140.1,104h-1.8v11.35h1.8Zm-5.46,7.27a4.26,4.26,0,0,1-.39,2.05,1.25,1.25,0,0,1-1.13.69,1.34,1.34,0,0,1-1.29-.68,4.15,4.15,0,0,1-.37-2v-.24a3.9,3.9,0,0,1,.36-1.87,1.32,1.32,0,0,1,1.27-.64c1,0,1.55.89,1.55,2.67m-5-7.27v11.35H131l.3-.94h.12a2.75,2.75,0,0,0,.84.79,2.69,2.69,0,0,0,3.39-.78,6.61,6.61,0,0,0,0-6.25,2.45,2.45,0,0,0-2.09-1.06,2.48,2.48,0,0,0-1.3.32,2.62,2.62,0,0,0-.85.87h-.07c0-.2,0-.44,0-.71s0-.54,0-.8V104Zm-4,11.35h1.81v-8.11h-1.81Zm.19-11a1.17,1.17,0,0,0,0,1.53,1,1,0,0,0,.71.24,1.08,1.08,0,0,0,.72-.24,1.17,1.17,0,0,0,0-1.52,1.08,1.08,0,0,0-.72-.24,1.09,1.09,0,0,0-.72.23m-3.8,6.92a4.24,4.24,0,0,1-.4,2.05,1.24,1.24,0,0,1-1.13.69,1.35,1.35,0,0,1-1.29-.68,4.27,4.27,0,0,1-.37-2v-.24a3.9,3.9,0,0,1,.36-1.87,1.33,1.33,0,0,1,1.27-.64q1.56,0,1.56,2.67m-5-7.27v11.35h1.39l.3-.94h.11a2.78,2.78,0,0,0,.85.79,2.45,2.45,0,0,0,1.28.3,2.48,2.48,0,0,0,2.1-1.08,5.24,5.24,0,0,0,.79-3.13,5.34,5.34,0,0,0-.77-3.12,2.66,2.66,0,0,0-3.39-.74,2.65,2.65,0,0,0-.86.87h-.07c0-.2,0-.44.05-.71s0-.54,0-.8V104Zm-1.93,7.92a2.29,2.29,0,0,0-.72-.77,7.86,7.86,0,0,0-1.1-.61c-.43-.2-.76-.36-1-.49a1.56,1.56,0,0,1-.48-.38.67.67,0,0,1-.13-.43c0-.49.36-.73,1.1-.73a3.28,3.28,0,0,1,1,.15,6.45,6.45,0,0,1,1,.39l.56-1.35a5.73,5.73,0,0,0-1.21-.45,4.85,4.85,0,0,0-1.29-.16,3.38,3.38,0,0,0-2.08.58,1.92,1.92,0,0,0-.79,1.65,2.06,2.06,0,0,0,.53,1.5,5.62,5.62,0,0,0,1.53,1,8.72,8.72,0,0,1,1,.52,1.41,1.41,0,0,1,.47.41.84.84,0,0,1,.12.45.8.8,0,0,1-.31.64,1.54,1.54,0,0,1-1,.24,4.28,4.28,0,0,1-1.24-.2,6.41,6.41,0,0,1-1.15-.46V115a4.81,4.81,0,0,0,1.07.36,6.46,6.46,0,0,0,1.32.12,3.53,3.53,0,0,0,2.25-.63,2.23,2.23,0,0,0,.79-1.85,2.16,2.16,0,0,0-.25-1.1m-8.22,1.82a1.17,1.17,0,0,1-.25-.82v-4.26h2v-1.42h-2v-1.76h-1.16l-.53,1.74-1.09.59v.85h1v4.3a2.6,2.6,0,0,0,.62,2,2.32,2.32,0,0,0,1.62.57,4.46,4.46,0,0,0,.91-.09,3,3,0,0,0,.72-.24v-1.37a4.94,4.94,0,0,1-.55.15,2.78,2.78,0,0,1-.58.06.87.87,0,0,1-.68-.27m-6.52-7.89a.88.88,0,0,0,.63.22.91.91,0,0,0,.62-.22,1,1,0,0,0,0-1.35.91.91,0,0,0-.62-.22.88.88,0,0,0-.63.22,1,1,0,0,0,0,1.35m-2.78,0a1,1,0,0,0,1.23,0,1,1,0,0,0,0-1.35,1,1,0,0,0-1.23,0,1,1,0,0,0,0,1.35m3.14,6.38a1.91,1.91,0,0,1-.47,1.4,1.63,1.63,0,0,1-1.2.48A1,1,0,0,1,98,113a1.31,1.31,0,0,1,.42-1,2.43,2.43,0,0,1,1.47-.42l.85,0Zm-2.56-5a5.33,5.33,0,0,0-1.29.5l.57,1.3a7.74,7.74,0,0,1,1-.42,3.3,3.3,0,0,1,1-.17,1.23,1.23,0,0,1,.93.35,1.58,1.58,0,0,1,.32,1.12v.4l-1.23,0c-2.24.08-3.35.94-3.35,2.6a2.62,2.62,0,0,0,.62,1.83,2.17,2.17,0,0,0,1.66.66,2.91,2.91,0,0,0,1.42-.3,3.28,3.28,0,0,0,1-1h0l.33,1.1h1.3v-5.44c0-1.88-1-2.82-2.87-2.82a5.58,5.58,0,0,0-1.49.19m-5,6.46a1.17,1.17,0,0,1-.25-.82v-4.26h2v-1.42H93v-1.76H91.78l-.52,1.74-1.09.59v.85h1v4.3a2.6,2.6,0,0,0,.62,2,2.32,2.32,0,0,0,1.62.57,4.46,4.46,0,0,0,.91-.09,3,3,0,0,0,.72-.24v-1.37a4.94,4.94,0,0,1-.55.15,2.78,2.78,0,0,1-.58.06.87.87,0,0,1-.68-.27M87,115.32h1.81v-8.11H87Zm.19-11a1,1,0,0,0-.28.77.94.94,0,0,0,.29.76,1.19,1.19,0,0,0,1.43,0,1.14,1.14,0,0,0,0-1.52,1.07,1.07,0,0,0-.71-.24,1.14,1.14,0,0,0-.73.23M85,111.89a2.29,2.29,0,0,0-.72-.77,8,8,0,0,0-1.11-.61c-.42-.2-.76-.36-1-.49a1.45,1.45,0,0,1-.48-.38.67.67,0,0,1-.14-.43c0-.49.37-.73,1.11-.73a3.27,3.27,0,0,1,1,.15,6.14,6.14,0,0,1,1,.39l.55-1.35a5.86,5.86,0,0,0-1.2-.45,5,5,0,0,0-1.29-.16,3.43,3.43,0,0,0-2.09.58,1.94,1.94,0,0,0-.78,1.65,2,2,0,0,0,.53,1.5,5.32,5.32,0,0,0,1.53,1,7.74,7.74,0,0,1,1,.52,1.32,1.32,0,0,1,.47.41.84.84,0,0,1,.12.45.79.79,0,0,1-.3.64,1.59,1.59,0,0,1-1,.24,4.28,4.28,0,0,1-1.24-.2,6.41,6.41,0,0,1-1.15-.46V115a4.9,4.9,0,0,0,1.08.36,6.36,6.36,0,0,0,1.31.12,3.56,3.56,0,0,0,2.26-.63,2.23,2.23,0,0,0,.79-1.85,2.16,2.16,0,0,0-.25-1.1m-8.32-4.37a3.4,3.4,0,0,0-.88,1.08h-.09l-.25-1.39H74.11v8.11h1.81v-4.18a2.41,2.41,0,0,1,.57-1.73,1.89,1.89,0,0,1,1.38-.59l.38,0a1.59,1.59,0,0,1,.34.06l.17-1.76-.38-.07-.39,0a1.89,1.89,0,0,0-1.27.46M70.23,109a2.71,2.71,0,0,1,.38,1.43h-3a2.54,2.54,0,0,1,.47-1.5,1.38,1.38,0,0,1,1.09-.49,1.23,1.23,0,0,1,1.11.56m-3.61-.82a4.84,4.84,0,0,0-.91,3.16,4.38,4.38,0,0,0,1,3.06,3.47,3.47,0,0,0,2.71,1.08,6.35,6.35,0,0,0,1.38-.13,5.22,5.22,0,0,0,1.16-.42v-1.48a5.7,5.7,0,0,1-1.16.46,4.9,4.9,0,0,1-1.24.15,1.86,1.86,0,0,1-1.48-.6,2.71,2.71,0,0,1-.53-1.74h4.8v-1a4,4,0,0,0-.85-2.68,3,3,0,0,0-2.38-1,3.06,3.06,0,0,0-2.48,1.09m-4.29,7.15,2.75-8.11H63.2l-1.42,4.68c-.08.3-.16.62-.24.94a5.37,5.37,0,0,0-.15.82h-.06a10.42,10.42,0,0,0-.39-1.82l-1.37-4.62h-1.9l2.73,8.11Zm-7.75,0h1.8v-8.11h-1.8Zm.18-11a1,1,0,0,0-.27.77.93.93,0,0,0,.28.76,1.2,1.2,0,0,0,1.44,0,1.17,1.17,0,0,0,0-1.52,1.08,1.08,0,0,0-.72-.24,1.14,1.14,0,0,0-.73.23m-6.18,3.05a2.09,2.09,0,0,0-.94.92h-.1l-.24-1.08H45.89v8.11H47.7v-4a4.48,4.48,0,0,1,.37-2.09,1.37,1.37,0,0,1,1.33-.69,1.08,1.08,0,0,1,1,.46,2.42,2.42,0,0,1,.31,1.36v4.93h1.79V110a3.08,3.08,0,0,0-.69-2.22,2.54,2.54,0,0,0-1.91-.71,2.8,2.8,0,0,0-1.3.31m-6.81-2.71v6.85a2.75,2.75,0,0,1-.47,1.77,1.82,1.82,0,0,1-1.51.59,1.94,1.94,0,0,1-1.53-.56,2.65,2.65,0,0,1-.5-1.78v-6.87H35.9v7a3.87,3.87,0,1,0,7.73,0v-7Z" transform="translate(-22 -29.04)"/></g></svg>