<svg id="Ebene_1" data-name="Ebene 1" xmlns="http://www.w3.org/2000/svg" viewBox="0 0 236.91 207.49">
  <defs>
    <style>.cls-1{fill:#978e90;}.cls-2{fill:#0d0802;}.cls-3{fill:#fff;}</style>
  </defs>
  <polygon class="cls-1" points="24.38 0 3.97 204.09 208.44 193.32 236.91 46.06 24.38 0 24.38 0"/>
  <polygon class="cls-2" points="0 33.16 0.57 180.56 187.65 207.49 204.66 10.77 0 33.16 0 33.16"/>
  <path class="cls-3"
        d="M204.5,398.45h11.43v-3.72h-7.1v-3.34h5.39v-3.71h-5.39v-3.22h6.76v-3.71H204.5v17.7Zm14.48,0h8.26v-3.22h-1.85v-3h.89c.91,0,1.23.2,1.53.77l2.15,4.14c.5,1,1.07,1.31,2.5,1.31h2.92v-3.22h-.61a1.11,1.11,0,0,1-1.14-.57L232.27,392a2.48,2.48,0,0,0-1.09-1.07v-.05a5.19,5.19,0,0,0,2.87-4.85,4.85,4.85,0,0,0-3.54-5,12.8,12.8,0,0,0-3.54-.35h-8V384h2v11.26h-2v3.22Zm6.41-9.68v-4.55H227a3.93,3.93,0,0,1,1.71.29,2,2,0,0,1,1,2,2,2,0,0,1-2.25,2.3Zm12.82,9.68h4.33v-6.56h5.39v-3.71h-5.39v-3.72h6.51v-3.71H238.21v17.7Zm14.86-6.76a6.94,6.94,0,0,0,1.48,4.68,7.93,7.93,0,0,0,6,2.37,7.68,7.68,0,0,0,6-2.45,7.46,7.46,0,0,0,1.46-4.6V384h2v-3.22h-8.39V384h2v7.72a3.59,3.59,0,0,1-.47,2,2.85,2.85,0,0,1-2.57,1.24,3,3,0,0,1-2.65-1.26,4.06,4.06,0,0,1-.44-2V384h2v-3.22h-8.39V384h2v7.72Zm19.28,6.76h8.27v-3.22h-1.86v-3h.89c.92,0,1.24.2,1.54.77l2.15,4.14c.5,1,1.06,1.31,2.5,1.31h2.92v-3.22h-.62a1.12,1.12,0,0,1-1.14-.57L285.64,392a2.43,2.43,0,0,0-1.09-1.07v-.05a5.17,5.17,0,0,0,2.87-4.85,4.85,4.85,0,0,0-3.54-5,12.72,12.72,0,0,0-3.53-.35h-8V384h2v11.26h-2v3.22Zm6.41-9.68v-4.55h1.59a3.85,3.85,0,0,1,1.7.29,2,2,0,0,1,1,2,2,2,0,0,1-2.25,2.3Zm16,9.68h4.34v-14h5.37v-3.71H289.4v3.71h5.37v14Z"
        transform="translate(-187 -293)"/>
  <path class="cls-3"
        d="M204.53,366.94a6.94,6.94,0,0,0,1.49,4.68,7.89,7.89,0,0,0,6,2.37,7.69,7.69,0,0,0,6-2.45,7.52,7.52,0,0,0,1.46-4.6v-7.72h2V356h-8.39v3.22h2v7.72a3.68,3.68,0,0,1-.47,2,2.88,2.88,0,0,1-2.58,1.24,2.94,2.94,0,0,1-2.64-1.26,3.94,3.94,0,0,1-.45-2v-7.72h2V356h-8.39v3.22h2v7.72Zm20,6.76h4.33v-8.24c0-1.12-.19-3-.19-3h0a32.74,32.74,0,0,0,1.48,3l4.93,8.24h4.35V356h-4.33v8.27c0,1.11.2,3,.2,3h0a30.05,30.05,0,0,0-1.49-3L229,356h-4.38v17.7Zm19.45,0h4.33V356H244v17.7Zm12.91,0h4.5l6.24-17.7H263l-3.17,10.07c-.34,1.12-.67,2.85-.67,2.85h-.05s-.32-1.73-.66-2.85L255.37,356h-4.7l6.26,17.7Zm13.08,0h11.44V370h-7.11v-3.34h5.4v-3.71h-5.4v-3.22h6.76V356H270v17.7Zm14.48,0h8.27v-3.22H290.9v-3h.89c.92,0,1.24.2,1.54.77l2.15,4.14c.5,1,1.06,1.31,2.5,1.31h2.92v-3.22h-.62a1.12,1.12,0,0,1-1.14-.57l-1.36-2.62a2.43,2.43,0,0,0-1.09-1.07v-.05a5.17,5.17,0,0,0,2.87-4.85,4.86,4.86,0,0,0-3.53-5,12.84,12.84,0,0,0-3.54-.35h-8v3.22h2v11.26h-2v3.22ZM290.9,364v-4.55h1.59a3.85,3.85,0,0,1,1.7.29,2,2,0,0,1,1,2,2,2,0,0,1-2.25,2.3Zm11.91,7.45a9.14,9.14,0,0,0,6.46,2.52c4,0,6.23-2.55,6.23-5.49,0-5.59-8-5.2-8-7.43,0-1,1-1.38,1.88-1.38a6.79,6.79,0,0,1,3.92,1.56l1.83-3.54a8,8,0,0,0-5.7-2c-3.51,0-6.26,2.16-6.26,5.42,0,5.45,8,5.37,8,7.48,0,1.06-1,1.41-1.85,1.41a7.36,7.36,0,0,1-4.24-1.83l-2.27,3.29Zm16.13,2.23h4.33V356h-4.33v17.7Zm12.12,0h4.33v-14h5.37V356H325.69v3.71h5.37v14Zm20.88,0h4.45l-6-17.7h-4.55l-6,17.7h4.46l1.06-3.72h5.52l1.09,3.72ZM348.13,360s.39,1.94.72,3.05l1,3.44h-3.49l1-3.44c.32-1.11.72-3.05.72-3.05Zm1-5.42h3.12v-3.46h-3.12v3.46Zm-5.17,0h3.12v-3.46H344v3.46ZM360.8,373.7h4.33v-14h5.37V356H355.43v3.71h5.37v14Z"
        transform="translate(-187 -293)"/>
</svg>
