<svg id="logo" xmlns="http://www.w3.org/2000/svg" width="100%" height="100%" viewBox="0 0 311 100"
     preserveAspectRatio="xMinYMin meet">
  <defs>
    <style>
      .cls-1 { fill: #978e90; }
      .cls-2 { fill: #0d0802; }
      .cls-3 { fill: #fff; }
    </style>
  </defs>
  <title>Universität Erfurt</title>
  <desc>Das Logo der Universität Erfurt</desc>
  <g id="logo-mobile">
    <polygon class="cls-1" points="0.3,87.9 0,0 294.2,0 311,78.5 "></polygon>
    <polygon class="cls-2" points="0,0 0.3,99 230.9,90.9 252.8,0 "></polygon>
    <path class="cls-3" d="M38.5,71h11.8v-3.8h-7.3v-3.4h5.5v-3.8h-5.5v-3.3h7v-3.8H38.5V71z M53.4,71h8.5v-3.3H60v-3.1h0.9
                c0.9,0,1.3,0.2,1.6,0.8l2.2,4.3c0.5,1,1.1,1.3,2.6,1.3h3v-3.3h-0.6c-0.5,0.1-0.9-0.2-1.2-0.6L67,64.4c-0.2-0.5-0.6-0.9-1.1-1.1
                l0,0c1.9-0.9,3-2.9,3-5c0.2-2.4-1.4-4.5-3.6-5.1c-1.2-0.3-2.4-0.4-3.6-0.4h-8.2v3.3h2.1v11.6h-2.1L53.4,71L53.4,71z M60,61v-4.7
                h1.6c0.6,0,1.2,0.1,1.8,0.3c0.7,0.4,1.2,1.2,1,2.1c0.2,1.1-0.6,2.2-1.7,2.4c-0.2,0-0.4,0-0.6,0L60,61z M73.2,71h4.5v-6.7h5.5v-3.8
                h-5.5v-3.8h6.7v-3.8H73.2V71z M88.5,64c-0.1,1.8,0.4,3.5,1.5,4.9c1.6,1.7,3.9,2.5,6.2,2.4c2.3,0.1,4.6-0.8,6.2-2.5
                c1-1.4,1.5-3,1.5-4.7v-8h2.1v-3.3h-8.6v3.3h2.1v7.9c0,0.7-0.1,1.4-0.5,2.1c-0.6,0.9-1.6,1.3-2.6,1.3c-1.1,0.1-2.1-0.4-2.7-1.3
                c-0.3-0.6-0.5-1.3-0.5-2.1v-7.9h2.1v-3.3h-8.7v3.3h2.1L88.5,64L88.5,64z M108.3,71h8.5v-3.3h-1.9v-3.1h0.9c0.9,0,1.3,0.2,1.6,0.8
                l2.2,4.3c0.5,1,1.1,1.3,2.6,1.3h3v-3.3h-0.6c-0.5,0.1-0.9-0.2-1.2-0.6l-1.4-2.7c-0.2-0.5-0.6-0.9-1.1-1.1l0,0c1.9-0.9,3-2.9,3-5
                c0.2-2.4-1.4-4.5-3.6-5.1c-1.2-0.3-2.4-0.4-3.6-0.4h-8.2v3.3h2.1v11.6h-2.1L108.3,71L108.3,71z M114.9,61v-4.7h1.6
                c0.6,0,1.2,0.1,1.7,0.3c0.7,0.4,1.1,1.2,1,2.1c0.2,1.1-0.6,2.2-1.7,2.4c-0.2,0-0.4,0-0.6,0L114.9,61z M131.4,71h4.5V56.6h5.5v-3.8
                h-15.5v3.8h5.5L131.4,71L131.4,71z"></path>
    <path class="cls-3" d="M38.5,38.6C38.4,40.3,39,42,40,43.4c1.6,1.7,3.9,2.6,6.2,2.4c2.3,0.1,4.6-0.8,6.2-2.5c1-1.4,1.5-3,1.5-4.7
                v-7.9h2.1v-3.3h-8.6v3.3h2.1v7.9c0,0.7-0.1,1.4-0.5,2.1c-0.6,0.9-1.6,1.4-2.7,1.3c-1.1,0.1-2.1-0.4-2.7-1.3
                c-0.3-0.6-0.5-1.3-0.5-2.1v-7.9h2.1v-3.3h-8.7v3.3h2.1L38.5,38.6L38.5,38.6z M59.1,45.5h4.5V37c0-1.1-0.2-3.1-0.2-3.1h0.1
                c0.5,1.1,1,2.1,1.5,3.1l5.1,8.5h4.5V27.3h-4.4v8.5c0,1.1,0.2,3.1,0.2,3.1l0,0c-0.5-1.1-1-2.1-1.5-3.1l-5-8.5h-4.6L59.1,45.5
                L59.1,45.5z M79.1,45.5h4.5V27.3h-4.4L79.1,45.5L79.1,45.5z M92.4,45.5H97l6.4-18.2h-4.7l-3.3,10.4c-0.3,1.1-0.7,2.9-0.7,2.9l0,0
                c0,0-0.3-1.8-0.7-2.9l-3.3-10.4h-4.9C85.9,27.3,92.4,45.5,92.4,45.5z M105.8,45.5h11.8v-3.8h-7.3v-3.4h5.6v-3.8h-5.6v-3.3h7v-3.8
                h-11.4L105.8,45.5L105.8,45.5z M120.7,45.5h8.5v-3.3h-1.9v-3.1h0.9c0.9,0,1.3,0.2,1.6,0.8l2.3,4.3c0.5,1,1.1,1.3,2.6,1.3h3v-3.3
                H137c-0.5,0.1-0.9-0.2-1.2-0.6l-1.4-2.7c-0.2-0.5-0.6-0.9-1.1-1.1l0,0c1.9-0.9,3-2.9,3-5c0.2-2.4-1.4-4.5-3.6-5.1
                c-1.2-0.3-2.4-0.4-3.6-0.4h-8.2v3.3h2.1v11.6h-2.1L120.7,45.5L120.7,45.5z M127.3,35.6v-4.7h1.6c0.6,0,1.2,0.1,1.7,0.3
                c0.7,0.4,1.1,1.2,1,2.1c0.2,1.1-0.6,2.2-1.7,2.4c-0.2,0-0.4,0-0.6,0L127.3,35.6z M139.6,43.3c1.8,1.7,4.2,2.6,6.6,2.6
                c4.1,0,6.4-2.6,6.4-5.7c0-5.8-8.2-5.3-8.2-7.6c0-1,1-1.4,1.9-1.4c1.5,0.1,2.9,0.7,4,1.6l1.9-3.6c-1.6-1.4-3.7-2.2-5.9-2.1
                c-3.6,0-6.4,2.2-6.4,5.6c0,5.6,8.2,5.5,8.2,7.7c0,1.1-1,1.5-1.9,1.5c-1.6-0.1-3.1-0.8-4.4-1.9L139.6,43.3L139.6,43.3z M156.2,45.5
                h4.5V27.3h-4.5V45.5z M168.7,45.5h4.5V31.1h5.5v-3.8h-15.5v3.8h5.5L168.7,45.5L168.7,45.5z M190.2,45.5h4.6l-6.2-18.2h-4.7
                l-6.2,18.2h4.6l1.1-3.8h5.7L190.2,45.5L190.2,45.5z M186.3,31.5c0,0,0.4,2,0.7,3.1l1,3.5h-3.6l1-3.5
                C185.8,33.4,186.2,31.5,186.3,31.5L186.3,31.5z M187.3,25.9h3.2v-3.6h-3.2C187.3,22.3,187.3,25.9,187.3,25.9z M182,25.9h3.2v-3.6
                H182C182,22.3,182,25.9,182,25.9z M199.3,45.5h4.5V31.1h5.5v-3.8h-15.5v3.8h5.5L199.3,45.5L199.3,45.5z"></path>
  </g>
</svg>
