<svg id="Ebene_1" data-name="Ebene 1" xmlns="http://www.w3.org/2000/svg" viewBox="0 0 232.73 177.73">
  <defs>
    <style>
      .cls-1{fill:none;}.cls-2{fill:#978e90;}.cls-3{fill:#0d0802;}.cls-4{clip-path:url(#clip-path);}.cls-5{fill:#fff;}
    </style>
    <clipPath id="clip-path" transform="translate(-22 -29.04)">
      <rect class="cls-1" x="22" y="29.04" width="232.72" height="177.73"/>
    </clipPath>
  </defs>
  <title>Logo_UB_Universitaet_Erfurt</title>
  <polygon class="cls-2" points="5.1 0 8.79 158.46 226.49 149.86 232.72 0 5.1 0"/>
  <polygon class="cls-3" points="0 0 0 140.31 209.84 177.73 223.94 0 0 0"/>
  <g class="cls-4">
    <path class="cls-5"
          d="M126.09,90.55h4.33v-14h5.37V72.86H120.72v3.71h5.37Zm-16-9.68V76.32h1.58a3.91,3.91,0,0,1,1.71.3,1.94,1.94,0,0,1,1,1.95,2,2,0,0,1-2.25,2.3Zm-6.41,9.68h8.26V87.33h-1.85v-3H111c.91,0,1.24.2,1.53.77l2.16,4.13c.49,1,1.06,1.31,2.5,1.31h2.92V87.33h-.62a1.1,1.1,0,0,1-1.14-.57L117,84.14a2.43,2.43,0,0,0-1.09-1.06v0a5.18,5.18,0,0,0,2.87-4.85,4.87,4.87,0,0,0-3.54-5,12.78,12.78,0,0,0-3.54-.34h-8v3.21h2V87.33h-2ZM84.38,83.79a6.94,6.94,0,0,0,1.49,4.68,7.87,7.87,0,0,0,6,2.38,7.72,7.72,0,0,0,6-2.45,7.51,7.51,0,0,0,1.46-4.61V76.07h2V72.86H93v3.21h2v7.72a3.65,3.65,0,0,1-.47,2A2.85,2.85,0,0,1,91.91,87a3,3,0,0,1-2.65-1.26,3.92,3.92,0,0,1-.45-2V76.07h2V72.86H82.4v3.21h2ZM69.52,90.55h4.33V84h5.4V80.28h-5.4V76.57h6.51V72.86H69.52ZM56.7,80.87V76.32h1.59a3.83,3.83,0,0,1,1.7.3,2,2,0,0,1,1,1.95,2,2,0,0,1-2.25,2.3Zm-6.41,9.68h8.27V87.33H56.7v-3h.89c.92,0,1.24.2,1.54.77l2.15,4.13c.5,1,1.06,1.31,2.5,1.31H66.7V87.33h-.62a1.11,1.11,0,0,1-1.14-.57l-1.36-2.62a2.38,2.38,0,0,0-1.09-1.06v0a5.18,5.18,0,0,0,2.87-4.85,4.87,4.87,0,0,0-3.54-5,12.75,12.75,0,0,0-3.53-.34h-8v3.21h2V87.33h-2Zm-14.48,0H47.25V86.84H40.14V83.5h5.4V79.79h-5.4V76.57H46.9V72.86H35.81Z"
          transform="translate(-22 -29.04)"/>
    <path class="cls-5"
          d="M192.11,65.8h4.34v-14h5.37V48.11H186.74v3.71h5.37ZM175.28,46.72h3.12V43.25h-3.12Zm5.18,0h3.12V43.25h-3.12Zm-1,5.42s.4,1.93.72,3l1,3.44h-3.49l1-3.44c.32-1.11.71-3,.71-3Zm3.81,13.66h4.46l-6-17.69h-4.55l-6,17.69h4.45l1.07-3.71h5.52Zm-20.87,0h4.33v-14h5.37V48.11H157v3.71h5.37Zm-12.13,0h4.33V48.11h-4.33Zm-16.13-2.23a9.12,9.12,0,0,0,6.46,2.53c4,0,6.24-2.55,6.24-5.5,0-5.59-8-5.19-8-7.42,0-1,1-1.39,1.88-1.39a6.74,6.74,0,0,1,3.91,1.56l1.83-3.54a8,8,0,0,0-5.69-2c-3.52,0-6.26,2.15-6.26,5.42,0,5.44,8,5.37,8,7.47,0,1.07-1,1.41-1.86,1.41a7.32,7.32,0,0,1-4.23-1.83Zm-11.9-7.45V51.57h1.58a3.91,3.91,0,0,1,1.71.3,1.94,1.94,0,0,1,1,2,2,2,0,0,1-2.25,2.3Zm-6.41,9.68h8.26V62.58h-1.85v-3h.89c.91,0,1.24.2,1.53.77l2.16,4.13c.49,1,1.06,1.31,2.5,1.31h2.92V62.58h-.62a1.1,1.1,0,0,1-1.14-.57l-1.36-2.62A2.43,2.43,0,0,0,128,58.33v0a5.18,5.18,0,0,0,2.87-4.85,4.87,4.87,0,0,0-3.54-5,12.78,12.78,0,0,0-3.54-.34h-8v3.21h2V62.58h-2Zm-14.48,0h11.43V62.09h-7.1V58.75h5.39V55h-5.39V51.82h6.76V48.11H101.33Zm-13.09,0h4.51L99,48.11H94.36L91.19,58.18c-.35,1.11-.67,2.84-.67,2.84h0s-.32-1.73-.67-2.84L86.68,48.11H82Zm-12.91,0h4.33V48.11H75.33Zm-19.44,0h4.33V57.56c0-1.11-.2-3-.2-3h0a30.05,30.05,0,0,0,1.49,3l4.92,8.24h4.36V48.11H66.51v8.26c0,1.12.19,3,.19,3h0a31.47,31.47,0,0,0-1.48-3l-4.9-8.26H55.89ZM35.85,59a6.94,6.94,0,0,0,1.48,4.68,7.89,7.89,0,0,0,6,2.38,7.72,7.72,0,0,0,6-2.45A7.51,7.51,0,0,0,50.84,59V51.32h2V48.11H44.43v3.21h2V59a3.59,3.59,0,0,1-.47,2,2.83,2.83,0,0,1-2.57,1.24A3,3,0,0,1,40.72,61a4,4,0,0,1-.44-2V51.32h2V48.11H33.87v3.21h2Z"
          transform="translate(-22 -29.04)"/>
  </g>
</svg>
