<?xml version="1.0" encoding="utf-8"?>
<!-- Generator: Adobe Illustrator 20.1.0, SVG Export Plug-In . SVG Version: 6.00 Build 0)  -->
<svg version="1.1" id="Ebene_1" xmlns="http://www.w3.org/2000/svg" xmlns:xlink="http://www.w3.org/1999/xlink" x="0px" y="0px"
	 viewBox="0 0 276.2 32" style="enable-background:new 0 0 276.2 32;" xml:space="preserve">
<style type="text/css">
	.st0{fill:#FFFFFF;}
</style>
<g>
	<rect x="86.2" y="16.4" class="st0" width="5.8" height="1.7"/>
	<path class="st0" d="M121.2,12.4l-0.1,10h2l0.1-10H121.2z M121.1,10.7h2.2V8.6h-2.2V10.7z"/>
	<path class="st0" d="M163.7,12.4l-0.1,10h2l0.1-10H163.7z M163.6,10.7h2.2V8.6h-2.2V10.7z"/>
	<g>
		<path class="st0" d="M219.1,8.9l-1.9-0.4l-2.9,9.4c-0.5,1.6-0.6,2.7-0.6,2.7s-0.2-1.3-0.7-2.8l-2.9-9h-2.3l-2.7,9.1
			c-0.3,1.1-0.6,2.7-0.6,2.7s-0.2-1.2-0.6-2.7L201,8.4L198.9,9l4.3,13.4h2.3l2.8-9.4c0.3-1,0.5-2.4,0.5-2.4s0.2,1.4,0.5,2.3l3,9.5
			h2.3L219.1,8.9z"/>
		<path class="st0" d="M226.3,16.1l-4.3,0c0.2-1.2,1.1-2.5,2.3-2.5C225.7,13.7,226.4,14.8,226.3,16.1 M228.2,16.9
			c0-2.7-1-4.7-3.8-4.7c-3.1,0-4.8,2.6-4.8,5.3c0,3.8,1.8,5.1,4.4,5.1c1.5,0,2.5-0.5,3.7-1.5l-1.1-1.2c-0.7,0.7-1.4,1.1-2.3,1.1
			c-2,0-2.5-1.9-2.5-3.5l6.4,0C228.2,17.3,228.2,17.1,228.2,16.9"/>
	</g>
	<path class="st0" d="M230.9,12.4l-0.1,10h2l0.1-10H230.9z M230.8,10.7h2.2V8.6h-2.2V10.7z"/>
	<g>
		<path class="st0" d="M250.2,15.1c0-1.5-0.7-2.9-2.8-2.9c-1.3,0-2.5,0.8-3.3,1.8c-0.3-1.2-1.3-1.8-2.5-1.8c-2,0-3.1,1.7-3.3,1.8
			c0-0.1,0.1-1.1,0.1-1.6h-2l-0.1,10h2.1l0-6.8c0.6-0.7,1.5-1.5,2.4-1.5c0.8,0,1.4,0.5,1.4,1.4l0,7h2.1l0-6.8
			c0.6-0.7,1.5-1.6,2.4-1.6c0.8,0,1.4,0.5,1.4,1.4l0,7h2.1L250.2,15.1z"/>
		<path class="st0" d="M258.2,17.5l0,2.5c-0.6,0.7-1.3,1.2-2,1.2c-0.9,0-1.5-0.5-1.5-1.4C254.6,18.4,255.7,17.9,258.2,17.5
			 M262.2,21.9l-0.6-1.1c-0.3,0.2-0.5,0.3-0.8,0.3c-0.5,0-0.6-0.3-0.6-1.1l0.1-5.1c0-1.7-1.2-2.7-2.7-2.7c-1.2,0-2.9,0.5-4.3,1.9
			l1,1.1c1.3-1.2,2.1-1.4,2.7-1.4c0.8,0,1.3,0.4,1.3,1.4v0.9c-3.4,0.6-5.6,1.3-5.6,3.6c0,1.9,1.1,2.9,2.9,2.9c1.1,0,2.1-0.6,2.8-1.5
			c0,1,0.7,1.5,1.6,1.5C260.5,22.6,261.3,22.4,262.2,21.9"/>
		<path class="st0" d="M269.2,12.3c-0.2-0.1-0.5-0.1-0.8-0.1c-1.3,0-2.1,1.1-2.7,2.2c0.1-0.8,0.1-1.9,0.1-1.9h-2l-0.1,10h2.1
			l0.1-6.3c0.7-1.3,1.5-1.9,2.3-1.9c0.2,0,0.4,0,0.6,0.1L269.2,12.3z"/>
	</g>
	<path class="st0" d="M17.2,18.5c0,1.5-1.3,2.3-3,2.3c-0.6,0-1.5,0-1.5,0l0-4.6h1.4C16.5,16.2,17.2,16.9,17.2,18.5 M17.1,12.2
		c0,1.4-1,2.4-3,2.4h-1.3l0-4.4c0,0,0.6,0,1.4,0C15.2,10.2,17.1,10.2,17.1,12.2 M19.5,18.6c0-1.7-1-3-2.7-3.3
		c0.7-0.3,2.5-0.8,2.5-3.2c0-3.2-2.9-3.5-4.9-3.5c-0.8,0-3.6,0.1-3.6,0.1l-0.1,13.8c0,0,2.6,0.1,3.5,0.1
		C17,22.5,19.5,21.4,19.5,18.6"/>
	<path class="st0" d="M27.3,17.5l0,2.5c-0.6,0.7-1.3,1.2-2,1.2c-0.9,0-1.5-0.5-1.5-1.4C23.7,18.4,24.8,17.9,27.3,17.5 M31.2,21.9
		l-0.6-1.1c-0.3,0.2-0.5,0.3-0.8,0.3c-0.5,0-0.6-0.3-0.6-1.1l0.1-5.1c0-1.7-1.2-2.7-2.7-2.7c-1.2,0-2.9,0.5-4.3,1.9l1,1.1
		c1.2-1.2,2.1-1.4,2.7-1.4c0.8,0,1.3,0.4,1.3,1.4v0.9c-3.4,0.6-5.6,1.3-5.6,3.6c0,1.9,1.1,2.9,2.9,2.9c1.1,0,2.1-0.6,2.8-1.5
		c0,1,0.7,1.5,1.6,1.5C29.6,22.6,30.4,22.4,31.2,21.9"/>
	<path class="st0" d="M41,12.4H39l0,6.8c-0.8,0.9-1.6,1.6-2.5,1.6c-1.1,0-1.6-0.4-1.6-1.6l0.1-6.8h-2.1l-0.1,7.2c0,1.7,0.7,3,2.9,3
		c1.4,0,2.5-0.8,3.4-1.8c0,0.2,0,0.9-0.1,1.6h2L41,12.4z"/>
	<path class="st0" d="M52.7,15.3c0-1.9-0.9-3.1-2.9-3.1c-1.2,0-2.6,0.8-3.4,1.7c0.2-2.1,0.1-4.3,0.1-6.4h-2.1l-0.1,14.9h2.1l0-6.8
		c0.6-0.7,1.6-1.6,2.6-1.6c1,0,1.5,0.5,1.5,1.5l0,6.9h2.1L52.7,15.3z"/>
	<path class="st0" d="M60.6,17.5l0,2.5c-0.6,0.7-1.3,1.2-2,1.2c-0.9,0-1.5-0.5-1.5-1.4C57.1,18.4,58.1,17.9,60.6,17.5 M64.6,21.9
		L64,20.8c-0.3,0.2-0.5,0.3-0.8,0.3c-0.5,0-0.6-0.3-0.6-1.1l0.1-5.1c0-1.7-1.2-2.7-2.7-2.7c-1.2,0-2.9,0.5-4.3,1.9l1,1.1
		c1.3-1.2,2.1-1.4,2.7-1.4c0.8,0,1.3,0.4,1.3,1.4v0.9c-3.4,0.6-5.6,1.3-5.6,3.6c0,1.9,1.1,2.9,2.9,2.9c1.1,0,2.1-0.6,2.8-1.5
		c0,1,0.7,1.5,1.6,1.5C63,22.6,63.7,22.4,64.6,21.9"/>
	<path class="st0" d="M74.4,12.4h-2.1l0,6.8c-0.8,0.9-1.6,1.6-2.5,1.6c-1.1,0-1.6-0.4-1.6-1.6l0.1-6.8h-2.1l-0.1,7.2
		c0,1.7,0.7,3,2.9,3c1.4,0,2.5-0.8,3.4-1.8c0,0.2,0,0.9-0.1,1.6h2L74.4,12.4z"/>
	<path class="st0" d="M84,13c-0.8-0.5-2.1-0.8-3.2-0.8c-1.9,0-3.7,1-3.7,2.9c0,3.6,4.7,2.5,4.7,4.6c0,1-1,1.4-1.8,1.4
		c-0.9,0-1.6-0.3-2.3-0.7l-0.8,1.3c1,0.6,2.1,0.8,3.3,0.8c1.8,0,3.8-1.1,3.8-3.1c0-3.5-4.8-2.5-4.8-4.6c0-1,1-1.3,1.9-1.3
		c0.7,0,1.6,0.3,2.2,0.6L84,13z"/>
	<g>
		<path class="st0" d="M134.8,12.7l-1.8-0.5l-2,5.4c-0.6,1.7-0.9,2.7-0.9,2.7s-0.3-1.3-0.9-2.9l-1.8-5.2l-2,0.6l3.5,9.7h2
			L134.8,12.7z"/>
		<path class="st0" d="M142.7,16.1l-4.3,0c0.2-1.2,1.1-2.5,2.3-2.5C142.2,13.7,142.8,14.8,142.7,16.1 M144.7,16.9
			c0-2.7-1-4.7-3.8-4.7c-3.1,0-4.8,2.6-4.8,5.3c0,3.8,1.8,5.1,4.4,5.1c1.5,0,2.5-0.5,3.7-1.5l-1.1-1.2c-0.7,0.7-1.4,1.1-2.3,1.1
			c-2,0-2.5-1.9-2.5-3.5l6.4,0C144.7,17.3,144.7,17.1,144.7,16.9"/>
		<path class="st0" d="M152.7,12.3c-0.2-0.1-0.5-0.1-0.8-0.1c-1.3,0-2.1,1.1-2.7,2.2c0.1-0.8,0.1-1.9,0.1-1.9h-2l-0.1,10h2.1
			l0.1-6.3c0.7-1.3,1.5-1.9,2.3-1.9c0.2,0,0.4,0,0.6,0.1L152.7,12.3z"/>
		<path class="st0" d="M160.8,13c-0.8-0.5-2.1-0.8-3.2-0.8c-1.9,0-3.7,1-3.7,2.9c0,3.6,4.7,2.5,4.7,4.6c0,1-1,1.4-1.8,1.4
			c-0.9,0-1.6-0.3-2.3-0.7l-0.8,1.3c1,0.6,2.1,0.8,3.3,0.8c1.8,0,3.8-1.1,3.8-3.1c0-3.5-4.8-2.5-4.8-4.6c0-1,1-1.3,1.9-1.3
			c0.7,0,1.6,0.3,2.2,0.6L160.8,13z"/>
	</g>
	<g>
		<path class="st0" d="M117.8,15.2c0-1.7-0.7-3-2.9-3c-1.4,0-2.5,0.8-3.4,1.8c0-0.2,0-0.9,0.1-1.5h-2l-0.1,10h2.1l0.1-6.8
			c0.8-0.9,1.6-1.6,2.5-1.6c1.1,0,1.6,0.4,1.6,1.6l-0.1,6.8h2.1L117.8,15.2z"/>
	</g>
	<path class="st0" d="M105.9,8.7h-2l-0.1,8.6c0,2.2-1.2,3.6-3.5,3.6c-2.1,0-3.3-1.2-3.3-3.3l0.1-8.9H95L95,17.3
		c0,3.6,1.8,5.3,5.3,5.3c3.4,0,5.5-1.8,5.5-5.3L105.9,8.7z"/>
	<path class="st0" d="M174.9,21.7l-0.7-1.2c-0.4,0.2-0.9,0.5-1.3,0.5c-0.6,0-1.2-0.3-1.2-1.3l0-5.8h3v-1.5h-3l0-3.5h-2.1l0,3.5H168
		V14h1.6l0,5.7c0,2.2,0.9,3,2.9,3C173.3,22.6,174.2,22.2,174.9,21.7"/>
	<path class="st0" d="M181.4,17.5l0,2.5c-0.6,0.7-1.3,1.2-2,1.2c-0.9,0-1.5-0.5-1.5-1.4C177.9,18.4,178.9,17.9,181.4,17.5
		 M185.4,21.9l-0.6-1.1c-0.3,0.2-0.5,0.3-0.8,0.3c-0.5,0-0.6-0.3-0.6-1.1l0.1-5.1c0-1.7-1.2-2.7-2.7-2.7c-1.3,0-2.9,0.5-4.3,1.9
		l1,1.1c1.3-1.2,2.1-1.4,2.7-1.4c0.8,0,1.3,0.4,1.3,1.4v0.9c-3.4,0.6-5.6,1.3-5.6,3.6c0,1.9,1.1,2.9,2.9,2.9c1.1,0,2.1-0.6,2.8-1.5
		c0,1,0.7,1.5,1.6,1.5C183.8,22.6,184.5,22.4,185.4,21.9 M179.4,8.7h-2v2h2V8.7z M182.8,8.7h-2v2h2V8.7z"/>
	<path class="st0" d="M192.7,21.7l-0.7-1.2c-0.4,0.2-0.9,0.5-1.3,0.5c-0.6,0-1.2-0.3-1.2-1.3l0-5.8h3v-1.5h-3l0-3.5h-2.1l0,3.5h-1.6
		V14h1.6l0,5.7c0,2.2,0.9,3,2.9,3C191.1,22.6,192,22.2,192.7,21.7"/>
</g>
</svg>
